solid Adapto Imports
facet normal -2.77896151974004e-14 0.999999999999933 -3.6679769233269e-07
outer loop
vertex -100.89381 17.27949 8.583069e-06
vertex -96.722145 17.2794945839344 5.977239
vertex -96.072918 17.2794945839344 5.874413
endloop
endfacet
facet normal -2.77896151974004e-14 0.999999999999933 -3.6679769233269e-07
outer loop
vertex -96.722145 17.2794945839344 5.977239
vertex -100.89381 17.27949 8.583069e-06
vertex -97.307823 17.2794945839344 6.275664
endloop
endfacet
facet normal -2.77896151974004e-14 0.999999999999933 -3.6679769233269e-07
outer loop
vertex -97.307823 17.2794945839344 6.275664
vertex -100.89381 17.27949 8.583069e-06
vertex -97.772617 17.2794945839344 6.740456
endloop
endfacet
facet normal -2.77896151974004e-14 0.999999999999933 -3.6679769233269e-07
outer loop
vertex -97.772617 17.2794945839344 6.740456
vertex -100.89381 17.27949 8.583069e-06
vertex -98.071034 17.2794945839344 7.326138
endloop
endfacet
facet normal -2.77896151974004e-14 0.999999999999933 -3.6679769233269e-07
outer loop
vertex -98.071034 17.2794945839344 7.326138
vertex -100.89381 17.27949 8.583069e-06
vertex -100.893808187295 17.2794958506839 15.9507192847422
endloop
endfacet
facet normal -2.77896151974004e-14 0.999999999999933 -3.6679769233269e-07
outer loop
vertex -98.071034 17.2794945839344 7.326138
vertex -100.893808187295 17.2794958506839 15.9507192847422
vertex -98.173863 17.2794945839344 7.975361
endloop
endfacet
facet normal -2.77896151974004e-14 0.999999999999933 -3.6679769233269e-07
outer loop
vertex -98.173863 17.2794945839344 7.975361
vertex -100.893808187295 17.2794958506839 15.9507192847422
vertex -98.071034 17.2794945839344 8.62458
endloop
endfacet
facet normal -2.77896151974004e-14 0.999999999999933 -3.6679769233269e-07
outer loop
vertex -98.071034 17.2794945839344 8.62458
vertex -100.893808187295 17.2794958506839 15.9507192847422
vertex -97.822022 17.2794945839344 9.255459
endloop
endfacet
facet normal -2.77896151974004e-14 0.999999999999933 -3.6679769233269e-07
outer loop
vertex -97.822022 17.2794945839344 9.255459
vertex -100.893808187295 17.2794958506839 15.9507192847422
vertex -97.539493 17.2794945839344 9.826221
endloop
endfacet
facet normal -2.77896151974004e-14 0.999999999999933 -3.6679769233269e-07
outer loop
vertex -97.539493 17.2794945839344 9.826221
vertex -100.893808187295 17.2794958506839 15.9507192847422
vertex -97.1895 17.2794945839344 10.42515
endloop
endfacet
facet normal -2.77896151974004e-14 0.999999999999933 -3.6679769233269e-07
outer loop
vertex -97.1895 17.2794945839344 10.42515
vertex -100.893808187295 17.2794958506839 15.9507192847422
vertex -96.738105 17.2794945839344 11.14059
endloop
endfacet
facet normal -2.77896151974004e-14 0.999999999999933 -3.6679769233269e-07
outer loop
vertex -96.738105 17.2794945839344 11.14059
vertex -100.893808187295 17.2794958506839 15.9507192847422
vertex -96.534917 17.2794945839344 11.38614
endloop
endfacet
facet normal -2.77896151974004e-14 0.999999999999933 -3.6679769233269e-07
outer loop
vertex -96.534917 17.2794945839344 11.38614
vertex -100.893808187295 17.2794958506839 15.9507192847422
vertex -96.309478 17.2794945839344 11.53347
endloop
endfacet
facet normal -2.77896151974004e-14 0.999999999999933 -3.6679769233269e-07
outer loop
vertex -96.309478 17.2794945839344 11.53347
vertex -100.893808187295 17.2794958506839 15.9507192847422
vertex -96.072918 17.2794945839344 11.58256
endloop
endfacet
facet normal -2.77896151974004e-14 0.999999999999933 -3.6679769233269e-07
outer loop
vertex -96.072918 17.2794945839344 11.58256
vertex -100.893808187295 17.2794958506839 15.9507192847422
vertex -88.3061771872946 17.2794958506839 15.9507183310682
endloop
endfacet
facet normal -2.77896151974004e-14 0.999999999999933 -3.6679769233269e-07
outer loop
vertex -88.306179 17.27949 7.629395e-06
vertex -94.373218 17.2794945839344 6.740455
vertex -88.3061771872946 17.2794958506839 15.9507183310682
endloop
endfacet
facet normal -2.77896151974004e-14 0.999999999999933 -3.6679769233269e-07
outer loop
vertex -94.373218 17.2794945839344 6.740455
vertex -88.306179 17.27949 7.629395e-06
vertex -100.89381 17.27949 8.583069e-06
endloop
endfacet
facet normal -2.77896151974004e-14 0.999999999999933 -3.6679769233269e-07
outer loop
vertex -94.373218 17.2794945839344 6.740455
vertex -100.89381 17.27949 8.583069e-06
vertex -94.838012 17.2794945839344 6.275648
endloop
endfacet
facet normal -2.77896151974004e-14 0.999999999999933 -3.6679769233269e-07
outer loop
vertex -94.838012 17.2794945839344 6.275648
vertex -100.89381 17.27949 8.583069e-06
vertex -95.42369 17.2794945839344 5.977238
endloop
endfacet
facet normal -2.77896151974004e-14 0.999999999999933 -3.6679769233269e-07
outer loop
vertex -95.42369 17.2794945839344 5.977238
vertex -100.89381 17.27949 8.583069e-06
vertex -96.072918 17.2794945839344 5.874413
endloop
endfacet
facet normal -2.77896151974004e-14 0.999999999999933 -3.6679769233269e-07
outer loop
vertex -88.3061771872946 17.2794958506839 15.9507183310682
vertex -94.373218 17.2794945839344 6.740455
vertex -94.074802 17.2794945839344 7.32612
endloop
endfacet
facet normal -2.77896151974004e-14 0.999999999999933 -3.6679769233269e-07
outer loop
vertex -88.3061771872946 17.2794958506839 15.9507183310682
vertex -94.074802 17.2794945839344 7.32612
vertex -93.971975 17.2794945839344 7.97536
endloop
endfacet
facet normal -2.77896151974004e-14 0.999999999999933 -3.6679769233269e-07
outer loop
vertex -88.3061771872946 17.2794958506839 15.9507183310682
vertex -93.971975 17.2794945839344 7.97536
vertex -94.074802 17.2794945839344 8.624597
endloop
endfacet
facet normal -2.77896151974004e-14 0.999999999999933 -3.6679769233269e-07
outer loop
vertex -88.3061771872946 17.2794958506839 15.9507183310682
vertex -94.074802 17.2794945839344 8.624597
vertex -94.32381 17.2794945839344 9.255474
endloop
endfacet
facet normal -2.77896151974004e-14 0.999999999999933 -3.6679769233269e-07
outer loop
vertex -88.3061771872946 17.2794958506839 15.9507183310682
vertex -94.32381 17.2794945839344 9.255474
vertex -94.606342 17.2794945839344 9.826222
endloop
endfacet
facet normal -2.77896151974004e-14 0.999999999999933 -3.6679769233269e-07
outer loop
vertex -88.3061771872946 17.2794958506839 15.9507183310682
vertex -94.606342 17.2794945839344 9.826222
vertex -94.956337 17.2794945839344 10.42517
endloop
endfacet
facet normal -2.77896151974004e-14 0.999999999999933 -3.6679769233269e-07
outer loop
vertex -88.3061771872946 17.2794958506839 15.9507183310682
vertex -94.956337 17.2794945839344 10.42517
vertex -95.407732 17.2794945839344 11.14059
endloop
endfacet
facet normal -2.77896151974004e-14 0.999999999999933 -3.6679769233269e-07
outer loop
vertex -88.3061771872946 17.2794958506839 15.9507183310682
vertex -95.407732 17.2794945839344 11.14059
vertex -95.610918 17.2794945839344 11.38614
endloop
endfacet
facet normal -2.77896151974004e-14 0.999999999999933 -3.6679769233269e-07
outer loop
vertex -88.3061771872946 17.2794958506839 15.9507183310682
vertex -95.610918 17.2794945839344 11.38614
vertex -95.836357 17.2794945839344 11.53347
endloop
endfacet
facet normal -2.77896151974004e-14 0.999999999999933 -3.6679769233269e-07
outer loop
vertex -88.3061771872946 17.2794958506839 15.9507183310682
vertex -95.836357 17.2794945839344 11.53347
vertex -96.072918 17.2794945839344 11.58256
endloop
endfacet
facet normal -0.707114387699632 9.45675676083759e-08 0.707099174591631
outer loop
vertex -94.373218 6.452386 6.740456
vertex -94.838016 -15.97949 6.275651
vertex -94.37322 -15.97949 6.740457
endloop
endfacet
facet normal -0.453999755194994 1.40915569634502e-07 0.891001808237708
outer loop
vertex -94.838012 6.452386 6.275664
vertex -95.423689 6.452386 5.977239
vertex -95.423694 -15.97949 5.97724
endloop
endfacet
facet normal 0.203184786820584 -7.24629038697788e-08 -0.979140409953888
outer loop
vertex -96.072923 -15.97948 11.58256
vertex -96.309486 -15.97948 11.53347
vertex -96.309478 6.452388 11.53347
endloop
endfacet
facet normal 0.707103738512843 -1.26089151653622e-07 0.707109823847148
outer loop
vertex -97.307823 6.452388 6.275664
vertex -97.772619 6.452386 6.740456
vertex -97.772623 -15.97948 6.740456
endloop
endfacet
facet normal 0.845735302348627 -3.01619215062513e-07 -0.533602659627166
outer loop
vertex -96.738105 6.452388 11.14059
vertex -96.738113 -15.97948 11.14059
vertex -97.1895 6.452388 10.42515
endloop
endfacet
facet normal 0.707104499173229 -1.57611321371751e-07 0.707109063192484
outer loop
vertex -97.307823 6.452388 6.275664
vertex -97.772623 -15.97948 6.740456
vertex -97.307829 -15.97949 6.275665
endloop
endfacet
facet normal -0.156432305616142 3.48683065163349e-08 0.987688682611893
outer loop
vertex -95.423689 6.452386 5.977239
vertex -96.072916 6.452386 5.874413
vertex -96.072921 -15.97949 5.874413
endloop
endfacet
facet normal -0.987687754049473 7.84872678429002e-08 0.156438168298859
outer loop
vertex -94.0748 6.452386 7.326138
vertex -94.074804 -15.97949 7.326124
vertex -93.971971 6.452386 7.975359
endloop
endfacet
facet normal 0.891009529908732 -1.58882812596703e-07 0.45398460063288
outer loop
vertex -97.772619 6.452386 6.740456
vertex -98.071038 -15.97948 7.326138
vertex -97.772623 -15.97948 6.740456
endloop
endfacet
facet normal 0.891009529908732 -1.58882812596703e-07 0.45398460063288
outer loop
vertex -98.071038 -15.97948 7.326138
vertex -97.772619 6.452386 6.740456
vertex -98.071034 6.452388 7.326138
endloop
endfacet
facet normal 0.203187257183385 -4.52898655524674e-08 -0.979139897317177
outer loop
vertex -96.072918 6.452388 11.58256
vertex -96.072923 -15.97948 11.58256
vertex -96.309478 6.452388 11.53347
endloop
endfacet
facet normal -0.770437151914602 1.7172826429137e-07 -0.637515956623586
outer loop
vertex -95.610916 6.452388 11.38614
vertex -95.407735 -15.97948 11.14059
vertex -95.610921 -15.97948 11.38614
endloop
endfacet
facet normal -0.770437151914602 1.7172826429137e-07 -0.637515956623586
outer loop
vertex -95.407735 -15.97948 11.14059
vertex -95.610916 6.452388 11.38614
vertex -95.40773 6.452388 11.14059
endloop
endfacet
facet normal 0.987688694295781 -3.66192152070153e-07 0.156432231845494
outer loop
vertex -98.173859 6.452388 7.975359
vertex -98.173867 -15.97948 7.975357
vertex -98.071034 6.452388 7.326138
endloop
endfacet
facet normal 0.987687679585395 -1.62174270082668e-07 -0.156438638434346
outer loop
vertex -98.071034 6.452388 8.624578
vertex -98.071038 -15.97949 8.624576
vertex -98.173867 -15.97948 7.975357
endloop
endfacet
facet normal 0.454000370591432 -8.17141003292016e-08 0.891001494669249
outer loop
vertex -96.722147 6.452386 5.977239
vertex -97.307823 6.452388 6.275664
vertex -97.307829 -15.97949 6.275665
endloop
endfacet
facet normal -0.863395569698504 1.1546905988088e-07 -0.50452759114342
outer loop
vertex -94.956337 6.452388 10.42516
vertex -94.606346 -15.97949 9.826217
vertex -94.95634 -15.97948 10.42516
endloop
endfacet
facet normal 0.453999755194996 -6.14748836536173e-08 0.891001808237716
outer loop
vertex -96.722147 6.452386 5.977239
vertex -97.307829 -15.97949 6.275665
vertex -96.722152 -15.97949 5.97724
endloop
endfacet
facet normal -0.987688596471253 2.64183502914319e-07 -0.156432849493247
outer loop
vertex -93.971971 6.452386 7.975359
vertex -93.971977 -15.97949 7.975359
vertex -94.074804 -15.97949 8.62459
endloop
endfacet
facet normal 0.156431365400566 9.16249737240033e-09 0.987688831524846
outer loop
vertex -96.072916 6.452386 5.874413
vertex -96.722147 6.452386 5.977239
vertex -96.722152 -15.97949 5.97724
endloop
endfacet
facet normal -0.453982231044467 -4.3541657688252e-07 0.891010737250511
outer loop
vertex -94.838012 6.452386 6.275664
vertex -95.423694 -15.97949 5.97724
vertex -94.838016 -15.97949 6.275651
endloop
endfacet
facet normal 0.999999999999998 -3.74803967083373e-08 -4.38216705455772e-08
outer loop
vertex -86.519405 -1.12746549999996 5.4150189044015e-06
vertex -86.519405 -15.97948 15.95071
vertex -86.519405 -15.97948 1.907349e-06
endloop
endfacet
facet normal 0.999999999999998 -3.74803967083373e-08 -4.38216705455772e-08
outer loop
vertex -86.519405 -15.97948 15.95071
vertex -86.519405 -1.12746549999996 5.4150189044015e-06
vertex -86.5194049030392 -1.12746737264111 15.9507161951901
endloop
endfacet
facet normal 0.156432849493253 -3.48684277445686e-08 0.987688596471287
outer loop
vertex -96.072916 6.452386 5.874413
vertex -96.722152 -15.97949 5.97724
vertex -96.072921 -15.97949 5.874413
endloop
endfacet
facet normal -0.156433789717302 7.88992145143038e-08 0.987688447555542
outer loop
vertex -95.423689 6.452386 5.977239
vertex -96.072921 -15.97949 5.874413
vertex -95.423694 -15.97949 5.97724
endloop
endfacet
facet normal -0.896198908884429 -9.73028873324673e-08 -0.443652471777573
outer loop
vertex -94.606342 6.452388 9.826204
vertex -94.323808 6.452386 9.255472
vertex -94.606346 -15.97949 9.826217
endloop
endfacet
facet normal -0.93016669628736 -3.05361342506386e-08 -0.367137463517221
outer loop
vertex -94.0748 6.452386 8.624578
vertex -94.074804 -15.97949 8.62459
vertex -94.323812 -15.97948 9.255468
endloop
endfacet
facet normal -0.891004211156711 -1.24461891000054e-07 0.45399503929117
outer loop
vertex -94.0748 6.452386 7.326138
vertex -94.37322 -15.97949 6.740457
vertex -94.074804 -15.97949 7.326124
endloop
endfacet
facet normal -0.98768767958579 9.24348483870265e-08 -0.156438638431912
outer loop
vertex -93.971971 6.452386 7.975359
vertex -94.074804 -15.97949 8.62459
vertex -94.0748 6.452386 8.624578
endloop
endfacet
facet normal -0.863399711869102 -1.38426559124731e-07 -0.50452050260057
outer loop
vertex -94.606342 6.452388 9.826204
vertex -94.606346 -15.97949 9.826217
vertex -94.956337 6.452388 10.42516
endloop
endfacet
facet normal -0.89620416290126 2.38918335363745e-07 -0.443641858257755
outer loop
vertex -94.323808 6.452386 9.255472
vertex -94.323812 -15.97948 9.255468
vertex -94.606346 -15.97949 9.826217
endloop
endfacet
facet normal -0.707105259847897 -2.83702838514922e-07 0.707108302521868
outer loop
vertex -94.373218 6.452386 6.740456
vertex -94.838012 6.452386 6.275664
vertex -94.838016 -15.97949 6.275651
endloop
endfacet
facet normal -0.930169875931165 2.31331496601493e-07 -0.367129407580145
outer loop
vertex -94.0748 6.452386 8.624578
vertex -94.323812 -15.97948 9.255468
vertex -94.323808 6.452386 9.255472
endloop
endfacet
facet normal 0.987687679585778 -1.76122234590721e-07 0.156438638431909
outer loop
vertex -98.071034 6.452388 7.326138
vertex -98.173867 -15.97948 7.975357
vertex -98.071038 -15.97948 7.326138
endloop
endfacet
facet normal -0.98768874538431 2.64183542745327e-07 0.156431909280357
outer loop
vertex -93.971971 6.452386 7.975359
vertex -94.074804 -15.97949 7.326124
vertex -93.971977 -15.97949 7.975359
endloop
endfacet
facet normal 0.987688619837689 -3.38297441586997e-07 -0.156432701961603
outer loop
vertex -98.071034 6.452388 8.624578
vertex -98.173867 -15.97948 7.975357
vertex -98.173859 6.452388 7.975359
endloop
endfacet
facet normal -0.891007683762898 9.96797410751063e-08 0.453988223939196
outer loop
vertex -94.373218 6.452386 6.740456
vertex -94.37322 -15.97949 6.740457
vertex -94.0748 6.452386 7.326138
endloop
endfacet
facet normal 0.845739735098836 1.16583214463344e-08 -0.533595633860465
outer loop
vertex -97.1895 6.452388 10.42515
vertex -96.738113 -15.97948 11.14059
vertex -97.189506 -15.97948 10.42514
endloop
endfacet
facet normal 0.453991263856564 -0.891006134850889 0.0
outer loop
vertex -89.8864054945863 12.8429114202162 15.95071
vertex -91.3119429912038 12.1165622465681 5.72204600119974e-06
vertex -89.8864054945863 12.8429114202162 5.72204600119974e-06
endloop
endfacet
facet normal 0.453991263856564 -0.891006134850889 0.0
outer loop
vertex -91.3119429912038 12.1165622465681 5.72204600119974e-06
vertex -89.8864054945863 12.8429114202162 15.95071
vertex -91.3119429912038 12.1165622465681 15.95071
endloop
endfacet
facet normal 0.156434746992123 -0.987688295938304 0.0
outer loop
vertex -88.306178876566 13.0931951911152 15.95071
vertex -89.8864054945863 12.8429114202162 5.72204600119974e-06
vertex -88.306178876566 13.0931951911152 5.72204600119974e-06
endloop
endfacet
facet normal 0.156434746992123 -0.987688295938304 0.0
outer loop
vertex -89.8864054945863 12.8429114202162 5.72204600119974e-06
vertex -88.306178876566 13.0931951911152 15.95071
vertex -89.8864054945863 12.8429114202162 15.95071
endloop
endfacet
facet normal -0.156434987818872 -0.987688257794993 -0.0
outer loop
vertex -86.7259544477952 12.8429113719902 15.95071
vertex -88.306178876566 13.0931951911152 5.72204600119974e-06
vertex -86.7259544477952 12.8429113719902 5.72204600119974e-06
endloop
endfacet
facet normal -0.156434987818872 -0.987688257794993 -0.0
outer loop
vertex -88.306178876566 13.0931951911152 5.72204600119974e-06
vertex -86.7259544477952 12.8429113719902 15.95071
vertex -88.306178876566 13.0931951911152 15.95071
endloop
endfacet
facet normal 0.889901579294905 -0.456152583209209 0.0
outer loop
vertex -92.4422916064159 10.9862239725127 5.72204600119974e-06
vertex -93.2007347069081 9.50658812745218 15.95071
vertex -93.2007347069081 9.50658812745218 5.72204600119974e-06
endloop
endfacet
facet normal 0.889901579294905 -0.456152583209209 0.0
outer loop
vertex -93.2007347069081 9.50658812745218 15.95071
vertex -92.4422916064159 10.9862239725127 5.72204600119974e-06
vertex -92.4422916064159 10.9862239725127 15.95071
endloop
endfacet
facet normal 0.707103546630339 -0.70711001572796 0.0
outer loop
vertex -91.3119429912038 12.1165622465681 15.95071
vertex -92.4422916064159 10.9862239725127 5.72204600119974e-06
vertex -91.3119429912038 12.1165622465681 5.72204600119974e-06
endloop
endfacet
facet normal 0.707103546630339 -0.70711001572796 0.0
outer loop
vertex -92.4422916064159 10.9862239725127 5.72204600119974e-06
vertex -91.3119429912038 12.1165622465681 15.95071
vertex -92.4422916064159 10.9862239725127 15.95071
endloop
endfacet
facet normal -0.453991169282705 -0.891006183038773 -0.0
outer loop
vertex -85.3004136516149 12.1165607077211 15.95071
vertex -86.7259544477952 12.8429113719902 5.72204600119974e-06
vertex -85.3004136516149 12.1165607077211 5.72204600119974e-06
endloop
endfacet
facet normal -0.453991169282705 -0.891006183038773 -0.0
outer loop
vertex -86.7259544477952 12.8429113719902 5.72204600119974e-06
vertex -85.3004136516149 12.1165607077211 15.95071
vertex -86.7259544477952 12.8429113719902 15.95071
endloop
endfacet
facet normal -0.707108339842297 -0.707105222527362 -0.0
outer loop
vertex -85.3004136516149 12.1165607077211 15.95071
vertex -84.1690987679252 10.9852408365632 5.72204600119974e-06
vertex -84.1690987679252 10.9852408365632 15.95071
endloop
endfacet
facet normal -0.707108339842297 -0.707105222527362 -0.0
outer loop
vertex -84.1690987679252 10.9852408365632 5.72204600119974e-06
vertex -85.3004136516149 12.1165607077211 15.95071
vertex -85.3004136516149 12.1165607077211 5.72204600119974e-06
endloop
endfacet
facet normal -0.891006807525423 -0.453989943658836 -0.0
outer loop
vertex -84.1690987679252 10.9852408365632 15.95071
vertex -83.4427525655555 9.55970394974184 5.72204600119974e-06
vertex -83.4427525655555 9.55970394974184 15.95071
endloop
endfacet
facet normal -0.891006807525423 -0.453989943658836 -0.0
outer loop
vertex -83.4427525655555 9.55970394974184 5.72204600119974e-06
vertex -84.1690987679252 10.9852408365632 15.95071
vertex -84.1690987679252 10.9852408365632 5.72204600119974e-06
endloop
endfacet
facet normal -0.987688225634732 -0.15643519086994 -0.0
outer loop
vertex -83.4427525655555 9.55970394974184 15.95071
vertex -83.192469775918 7.97948812343499 5.72204600119974e-06
vertex -83.192469775918 7.97948812343499 15.95071
endloop
endfacet
facet normal -0.987688225634732 -0.15643519086994 -0.0
outer loop
vertex -83.192469775918 7.97948812343499 5.72204600119974e-06
vertex -83.4427525655555 9.55970394974184 15.95071
vertex -83.4427525655555 9.55970394974184 5.72204600119974e-06
endloop
endfacet
facet normal -0.987688263778382 0.15643495004137 0.0
outer loop
vertex -83.192469775918 7.97948812343499 15.95071
vertex -83.4427525066976 6.39927017500296 5.72204600119974e-06
vertex -83.4427525066976 6.39927017500296 15.95071
endloop
endfacet
facet normal -0.987688263778382 0.15643495004137 0.0
outer loop
vertex -83.4427525066976 6.39927017500296 5.72204600119974e-06
vertex -83.192469775918 7.97948812343499 15.95071
vertex -83.192469775918 7.97948812343499 5.72204600119974e-06
endloop
endfacet
facet normal -0.891006819535838 0.453989920087033 0.0
outer loop
vertex -83.4427525066976 6.39927017500296 15.95071
vertex -84.1691011430201 4.97372841804091 5.72204600119974e-06
vertex -84.1691011430201 4.97372841804091 15.95071
endloop
endfacet
facet normal -0.891006819535838 0.453989920087033 0.0
outer loop
vertex -84.1691011430201 4.97372841804091 5.72204600119974e-06
vertex -83.4427525066976 6.39927017500296 15.95071
vertex -83.4427525066976 6.39927017500296 5.72204600119974e-06
endloop
endfacet
facet normal -0.707107170851881 0.707106391520999 0.0
outer loop
vertex -84.1691011430201 4.97372841804091 15.95071
vertex -85.3004152831651 3.84241303102837 5.72204600119974e-06
vertex -85.3004152831651 3.84241303102837 15.95071
endloop
endfacet
facet normal -0.707107170851881 0.707106391520999 0.0
outer loop
vertex -85.3004152831651 3.84241303102837 5.72204600119974e-06
vertex -84.1691011430201 4.97372841804091 15.95071
vertex -84.1691011430201 4.97372841804091 5.72204600119974e-06
endloop
endfacet
facet normal -0.453991472740455 0.891006028418974 0.0
outer loop
vertex -86.725956626905 3.11606147620748 15.95071
vertex -85.3004152831651 3.84241303102837 5.72204600119974e-06
vertex -86.725956626905 3.11606147620748 5.72204600119974e-06
endloop
endfacet
facet normal -0.453991472740455 0.891006028418974 0.0
outer loop
vertex -85.3004152831651 3.84241303102837 5.72204600119974e-06
vertex -86.725956626905 3.11606147620748 15.95071
vertex -85.3004152831651 3.84241303102837 15.95071
endloop
endfacet
facet normal -0.156434227560052 0.987688378208274 0.0
outer loop
vertex -88.306181 2.86577891276868 15.95071
vertex -86.725956626905 3.11606147620748 5.72204600119974e-06
vertex -88.306181 2.86577891276868 5.72204600119974e-06
endloop
endfacet
facet normal -0.156434227560052 0.987688378208274 0.0
outer loop
vertex -86.725956626905 3.11606147620748 5.72204600119974e-06
vertex -88.306181 2.86577891276868 15.95071
vertex -86.725956626905 3.11606147620748 15.95071
endloop
endfacet
facet normal 0.156434227560052 0.987688378208274 0.0
outer loop
vertex -89.8864045625858 3.11606134783564 15.95071
vertex -88.306181 2.86577891276868 5.72204600119974e-06
vertex -89.8864045625858 3.11606134783564 5.72204600119974e-06
endloop
endfacet
facet normal 0.156434227560052 0.987688378208274 0.0
outer loop
vertex -88.306181 2.86577891276868 5.72204600119974e-06
vertex -89.8864045625858 3.11606134783564 15.95071
vertex -88.306181 2.86577891276868 15.95071
endloop
endfacet
facet normal 0.453990046185136 0.891006755285737 0.0
outer loop
vertex -91.3119468876105 3.84241052772404 15.95071
vertex -89.8864045625858 3.11606134783564 5.72204600119974e-06
vertex -91.3119468876105 3.84241052772404 5.72204600119974e-06
endloop
endfacet
facet normal 0.453990046185136 0.891006755285737 0.0
outer loop
vertex -89.8864045625858 3.11606134783564 5.72204600119974e-06
vertex -91.3119468876105 3.84241052772404 15.95071
vertex -89.8864045625858 3.11606134783564 15.95071
endloop
endfacet
facet normal 0.707107404710283 0.707106157662262 0.0
outer loop
vertex -92.4422942076744 4.97275984126144 5.72204600119974e-06
vertex -91.3119468876105 3.84241052772404 15.95071
vertex -91.3119468876105 3.84241052772404 5.72204600119974e-06
endloop
endfacet
facet normal 0.707107404710283 0.707106157662262 0.0
outer loop
vertex -91.3119468876105 3.84241052772404 15.95071
vertex -92.4422942076744 4.97275984126144 5.72204600119974e-06
vertex -92.4422942076744 4.97275984126144 15.95071
endloop
endfacet
facet normal 0.889900730799962 0.456154238522118 -1.304843032728e-18
outer loop
vertex -93.2007369743349 6.45238825490467 5.72204600119974e-06
vertex -92.4422942076744 4.97275984126144 15.95071
vertex -92.4422942076744 4.97275984126144 5.72204600119974e-06
endloop
endfacet
facet normal 0.889900730799962 0.456154238522118 -1.304843032728e-18
outer loop
vertex -92.4422942076744 4.97275984126144 15.95071
vertex -93.2007369743349 6.45238825490467 5.72204600119974e-06
vertex -93.2007369743349 6.45238825490467 15.95071
endloop
endfacet
facet normal -1.38200676724256e-07 -1.63930027312041e-07 0.999999999999977
outer loop
vertex -86.519405 -15.97948 15.95071
vertex -100.89381 6.45239 15.95071
vertex -100.89381 -15.97948 15.95071
endloop
endfacet
facet normal -1.38200676724256e-07 -1.63930027312041e-07 0.999999999999977
outer loop
vertex -100.89381 6.45239 15.95071
vertex -86.519405 -15.97948 15.95071
vertex -93.2007369743349 6.45238825490467 15.95071
endloop
endfacet
facet normal -1.38200676724256e-07 -1.63930027312041e-07 0.999999999999977
outer loop
vertex -93.2007369743349 6.45238825490467 15.95071
vertex -86.519405 -15.97948 15.95071
vertex -92.4422942076744 4.97275984126144 15.95071
endloop
endfacet
facet normal -1.38200676724256e-07 -1.63930027312041e-07 0.999999999999977
outer loop
vertex -92.4422942076744 4.97275984126144 15.95071
vertex -86.519405 -15.97948 15.95071
vertex -91.3119468876105 3.84241052772404 15.95071
endloop
endfacet
facet normal -1.38200676724256e-07 -1.63930027312041e-07 0.999999999999977
outer loop
vertex -91.3119468876105 3.84241052772404 15.95071
vertex -86.519405 -15.97948 15.95071
vertex -89.8864045625858 3.11606134783564 15.95071
endloop
endfacet
facet normal -1.38200676724256e-07 -1.63930027312041e-07 0.999999999999977
outer loop
vertex -89.8864045625858 3.11606134783564 15.95071
vertex -86.519405 -15.97948 15.95071
vertex -88.306181 2.86577891276868 15.95071
endloop
endfacet
facet normal -1.38200676724256e-07 -1.63930027312041e-07 0.999999999999977
outer loop
vertex -88.306181 2.86577891276868 15.95071
vertex -86.519405 -15.97948 15.95071
vertex -86.725956626905 3.11606147620748 15.95071
endloop
endfacet
facet normal -1.38200676724256e-07 -1.63930027312041e-07 0.999999999999977
outer loop
vertex -86.725956626905 3.11606147620748 15.95071
vertex -86.519405 -15.97948 15.95071
vertex -86.5194049030392 -1.12746737264111 15.9507161951901
endloop
endfacet
facet normal -1.38200676724256e-07 -1.63930027312041e-07 0.999999999999977
outer loop
vertex -86.725956626905 3.11606147620748 15.95071
vertex -86.5194049030392 -1.12746737264111 15.9507161951901
vertex -85.3004152831651 3.84241303102837 15.95071
endloop
endfacet
facet normal -1.38200676724256e-07 -1.63930027312041e-07 0.999999999999977
outer loop
vertex -85.3004152831651 3.84241303102837 15.95071
vertex -86.5194049030392 -1.12746737264111 15.9507161951901
vertex -84.3994153548012 -0.383439309585138 15.9507161850163
endloop
endfacet
facet normal -1.38200676724256e-07 -1.63930027312041e-07 0.999999999999977
outer loop
vertex -85.3004152831651 3.84241303102837 15.95071
vertex -84.3994153548012 -0.383439309585138 15.9507161850163
vertex -84.1691011430201 4.97372841804091 15.95071
endloop
endfacet
facet normal -1.38200676724256e-07 -1.63930027312041e-07 0.999999999999977
outer loop
vertex -84.1691011430201 4.97372841804091 15.95071
vertex -84.3994153548012 -0.383439309585138 15.9507161850163
vertex -82.5192876878018 0.846623046166206 15.9507162420742
endloop
endfacet
facet normal -1.38200676724256e-07 -1.63930027312041e-07 0.999999999999977
outer loop
vertex -84.1691011430201 4.97372841804091 15.95071
vertex -82.5192876878018 0.846623046166206 15.9507162420742
vertex -83.4427525066976 6.39927017500296 15.95071
endloop
endfacet
facet normal -1.38200676724256e-07 -1.63930027312041e-07 0.999999999999977
outer loop
vertex -83.4427525066976 6.39927017500296 15.95071
vertex -82.5192876878018 0.846623046166206 15.9507162420742
vertex -83.192469775918 7.97948812343499 15.95071
endloop
endfacet
facet normal -1.38200676724256e-07 -1.63930027312041e-07 0.999999999999977
outer loop
vertex -93.2007347069081 9.50658812745218 15.95071
vertex -100.893808187295 17.2794958506839 15.9507192847422
vertex -100.89381 9.506589 15.95071
endloop
endfacet
facet normal -1.38200676724256e-07 -1.63930027312041e-07 0.999999999999977
outer loop
vertex -100.893808187295 17.2794958506839 15.9507192847422
vertex -93.2007347069081 9.50658812745218 15.95071
vertex -92.4422916064159 10.9862239725127 15.95071
endloop
endfacet
facet normal -1.38200676724256e-07 -1.63930027312041e-07 0.999999999999977
outer loop
vertex -100.893808187295 17.2794958506839 15.9507192847422
vertex -92.4422916064159 10.9862239725127 15.95071
vertex -88.3061771872946 17.2794958506839 15.9507183310682
endloop
endfacet
facet normal -1.38200676724256e-07 -1.63930027312041e-07 0.999999999999977
outer loop
vertex -88.3061771872946 17.2794958506839 15.9507183310682
vertex -92.4422916064159 10.9862239725127 15.95071
vertex -91.3119429912038 12.1165622465681 15.95071
endloop
endfacet
facet normal -1.38200676724256e-07 -1.63930027312041e-07 0.999999999999977
outer loop
vertex -88.3061771872946 17.2794958506839 15.9507183310682
vertex -91.3119429912038 12.1165622465681 15.95071
vertex -89.8864054945863 12.8429114202162 15.95071
endloop
endfacet
facet normal -1.38200676724256e-07 -1.63930027312041e-07 0.999999999999977
outer loop
vertex -88.3061771872946 17.2794958506839 15.9507183310682
vertex -89.8864054945863 12.8429114202162 15.95071
vertex -88.306178876566 13.0931951911152 15.95071
endloop
endfacet
facet normal -1.38200676724256e-07 -1.63930027312041e-07 0.999999999999977
outer loop
vertex -88.3061771872946 17.2794958506839 15.9507183310682
vertex -88.306178876566 13.0931951911152 15.95071
vertex -86.7259544477952 12.8429113719902 15.95071
endloop
endfacet
facet normal -1.38200676724256e-07 -1.63930027312041e-07 0.999999999999977
outer loop
vertex -88.3061771872946 17.2794958506839 15.9507183310682
vertex -86.7259544477952 12.8429113719902 15.95071
vertex -86.0826703469228 16.957085980762 15.9507182710997
endloop
endfacet
facet normal -1.38200676724256e-07 -1.63930027312041e-07 0.999999999999977
outer loop
vertex -86.0826703469228 16.957085980762 15.9507182710997
vertex -86.7259544477952 12.8429113719902 15.95071
vertex -85.3004136516149 12.1165607077211 15.95071
endloop
endfacet
facet normal -1.38200676724256e-07 -1.63930027312041e-07 0.999999999999977
outer loop
vertex -86.0826703469228 16.957085980762 15.9507182710997
vertex -85.3004136516149 12.1165607077211 15.95071
vertex -84.0010671249459 16.1115911732628 15.950718078466
endloop
endfacet
facet normal -1.38200676724256e-07 -1.63930027312041e-07 0.999999999999977
outer loop
vertex -84.0010671249459 16.1115911732628 15.950718078466
vertex -85.3004136516149 12.1165607077211 15.95071
vertex -84.1690987679252 10.9852408365632 15.95071
endloop
endfacet
facet normal -1.38200676724256e-07 -1.63930027312041e-07 0.999999999999977
outer loop
vertex -84.0010671249459 16.1115911732628 15.950718078466
vertex -84.1690987679252 10.9852408365632 15.95071
vertex -83.4427525655555 9.55970394974184 15.95071
endloop
endfacet
facet normal -1.38200676724256e-07 -1.63930027312041e-07 0.999999999999977
outer loop
vertex -84.0010671249459 16.1115911732628 15.950718078466
vertex -83.4427525655555 9.55970394974184 15.95071
vertex -82.1825075465206 14.7922070355035 15.9507178428753
endloop
endfacet
facet normal -1.38200676724256e-07 -1.63930027312041e-07 0.999999999999977
outer loop
vertex -82.1825075465206 14.7922070355035 15.9507178428753
vertex -83.4427525655555 9.55970394974184 15.95071
vertex -83.192469775918 7.97948812343499 15.95071
endloop
endfacet
facet normal -1.38200676724256e-07 -1.63930027312041e-07 0.999999999999977
outer loop
vertex -82.1825075465206 14.7922070355035 15.9507178428753
vertex -83.192469775918 7.97948812343499 15.95071
vertex -82.5192876878018 0.846623046166206 15.9507162420742
endloop
endfacet
facet normal -1.38200676724256e-07 -1.63930027312041e-07 0.999999999999977
outer loop
vertex -82.1825075465206 14.7922070355035 15.9507178428753
vertex -82.5192876878018 0.846623046166206 15.9507162420742
vertex -80.9884353986455 2.49113656451677 15.9507163630436
endloop
endfacet
facet normal -1.38200676724256e-07 -1.63930027312041e-07 0.999999999999977
outer loop
vertex -82.1825075465206 14.7922070355035 15.9507178428753
vertex -80.9884353986455 2.49113656451677 15.9507163630436
vertex -80.7328221707902 13.0757147533635 15.9507175780378
endloop
endfacet
facet normal -1.38200676724256e-07 -1.63930027312041e-07 0.999999999999977
outer loop
vertex -80.7328221707902 13.0757147533635 15.9507175780378
vertex -80.9884353986455 2.49113656451677 15.9507163630436
vertex -79.8959460023352 4.45439924745111 15.9507165408845
endloop
endfacet
facet normal -1.38200676724256e-07 -1.63930027312041e-07 0.999999999999977
outer loop
vertex -80.7328221707902 13.0757147533635 15.9507175780378
vertex -79.8959460023352 4.45439924745111 15.9507165408845
vertex -79.7363750272399 11.0620051086124 15.9507172993656
endloop
endfacet
facet normal -1.38200676724256e-07 -1.63930027312041e-07 0.999999999999977
outer loop
vertex -79.7363750272399 11.0620051086124 15.9507172993656
vertex -79.8959460023352 4.45439924745111 15.9507165408845
vertex -79.3053966095915 6.62215957967951 15.9507167652475
endloop
endfacet
facet normal -1.38200676724256e-07 -1.63930027312041e-07 0.999999999999977
outer loop
vertex -79.7363750272399 11.0620051086124 15.9507172993656
vertex -79.3053966095915 6.62215957967951 15.9507167652475
vertex -79.2511540749168 8.86826536318237 15.950717023076
endloop
endfacet
facet normal 0.763985375083266 0.645233559774193 7.11074419296287e-08
outer loop
vertex -80.732822267751 13.0757166260046 6.79786659844865e-06
vertex -82.1825075465206 14.7922070355035 15.9507178428753
vertex -80.7328221707902 13.0757147533635 15.9507175780378
endloop
endfacet
facet normal 0.763985375083266 0.645233559774193 7.11074419296287e-08
outer loop
vertex -82.1825075465206 14.7922070355035 15.9507178428753
vertex -80.732822267751 13.0757166260046 6.79786659844865e-06
vertex -82.1825076434815 14.7922089081446 7.06270410461548e-06
endloop
endfacet
facet normal -0.547064367312537 1.21939101829411e-07 -0.837090543499876
outer loop
vertex -95.610916 6.452388 11.38614
vertex -95.610921 -15.97948 11.38614
vertex -95.836353 6.452388 11.53347
endloop
endfacet
facet normal -0.547059266067637 1.9510074363844e-07 -0.837093877297822
outer loop
vertex -95.610921 -15.97948 11.38614
vertex -95.836361 -15.97948 11.53347
vertex -95.836353 6.452388 11.53347
endloop
endfacet
facet normal 0.143498173592745 0.989650581859845 -1.31997438088215e-07
outer loop
vertex -88.306179 17.27949 7.629395e-06
vertex -86.0826703469228 16.957085980762 15.9507182710997
vertex -86.0826704438836 16.9570878534032 7.49092850416062e-06
endloop
endfacet
facet normal 0.143498173592745 0.989650581859845 -1.31997438088215e-07
outer loop
vertex -86.0826703469228 16.957085980762 15.9507182710997
vertex -88.306179 17.27949 7.629395e-06
vertex -88.3061771872946 17.2794958506839 15.9507183310682
endloop
endfacet
facet normal -0.203183139944704 -0.0 -0.979140751701312
outer loop
vertex -95.836353 9.506589 11.53347
vertex -96.072918 9.506589 11.58256
vertex -96.072918 15.97949 11.58256
endloop
endfacet
facet normal -0.203186433722587 -1.25561279997898e-07 -0.979140068198152
outer loop
vertex -95.836357 17.2794945839344 11.53347
vertex -96.072918 15.97949 11.58256
vertex -96.072918 17.2794945839344 11.58256
endloop
endfacet
facet normal -0.203186433722587 -1.25561279997898e-07 -0.979140068198152
outer loop
vertex -96.072918 15.97949 11.58256
vertex -95.836357 17.2794945839344 11.53347
vertex -95.836357 15.97949 11.53347
endloop
endfacet
facet normal -0.203186433722587 -1.25561279997898e-07 -0.979140068198152
outer loop
vertex -96.072918 15.97949 11.58256
vertex -95.836357 15.97949 11.53347
vertex -95.836353 9.506589 11.53347
endloop
endfacet
facet normal 0.89627243551359 0.443503913554927 4.66198873463435e-08
outer loop
vertex -79.7363751242007 11.0620069812536 6.51919440921747e-06
vertex -80.7328221707902 13.0757147533635 15.9507175780378
vertex -79.7363750272399 11.0620051086124 15.9507172993656
endloop
endfacet
facet normal 0.89627243551359 0.443503913554927 4.66198873463435e-08
outer loop
vertex -80.7328221707902 13.0757147533635 15.9507175780378
vertex -79.7363751242007 11.0620069812536 6.51919440921747e-06
vertex -80.732822267751 13.0757166260046 6.79786659844865e-06
endloop
endfacet
facet normal 0.587238402323742 0.809414021892536 9.14569190872827e-08
outer loop
vertex -84.0010672219067 16.1115930459039 7.29829478412244e-06
vertex -82.1825075465206 14.7922070355035 15.9507178428753
vertex -82.1825076434815 14.7922089081446 7.06270410461548e-06
endloop
endfacet
facet normal 0.587238402323742 0.809414021892536 9.14569190872827e-08
outer loop
vertex -82.1825075465206 14.7922070355035 15.9507178428753
vertex -84.0010672219067 16.1115930459039 7.29829478412244e-06
vertex -84.0010671249459 16.1115911732628 15.950718078466
endloop
endfacet
facet normal 0.930164880991404 -1.3313086841508e-07 -0.367142062654538
outer loop
vertex -97.822022 6.452388 9.255457
vertex -98.071038 -15.97949 8.624576
vertex -98.071034 6.452388 8.624578
endloop
endfacet
facet normal 0.87381923753166 -0.486250902435753 -6.23984544704046e-08
outer loop
vertex -80.9884354956063 2.49113843715791 5.58287239636662e-06
vertex -79.8959460023352 4.45439924745111 15.9507165408845
vertex -80.9884353986455 2.49113656451677 15.9507163630436
endloop
endfacet
facet normal 0.87381923753166 -0.486250902435753 -6.23984544704046e-08
outer loop
vertex -79.8959460023352 4.45439924745111 15.9507165408845
vertex -80.9884354956063 2.49113843715791 5.58287239636662e-06
vertex -79.8959460992961 4.45440112009225 5.76071328056807e-06
endloop
endfacet
facet normal 0.89621067134313 -8.07033923172145e-08 -0.443628710264215
outer loop
vertex -97.539491 6.452388 9.826221
vertex -97.822026 -15.97948 9.255453
vertex -97.822022 6.452388 9.255457
endloop
endfacet
facet normal -0.845728570408573 5.63066876964547e-07 -0.533613329288497
outer loop
vertex -95.407732 15.97949 11.14059
vertex -94.956337 15.97949 10.42517
vertex -94.956335 9.506589 10.42516
endloop
endfacet
facet normal -0.845728570408573 5.63066876964547e-07 -0.533613329288497
outer loop
vertex -94.956337 15.97949 10.42517
vertex -95.407732 15.97949 11.14059
vertex -95.407732 17.2794945839344 11.14059
endloop
endfacet
facet normal -0.845728570408573 5.63066876964547e-07 -0.533613329288497
outer loop
vertex -94.956337 15.97949 10.42517
vertex -95.407732 17.2794945839344 11.14059
vertex -94.956337 17.2794945839344 10.42517
endloop
endfacet
facet normal 0.547064367312534 -1.46326922222449e-07 -0.837090543499875
outer loop
vertex -96.309486 -15.97948 11.53347
vertex -96.534923 -15.97948 11.38614
vertex -96.534917 6.452388 11.38614
endloop
endfacet
facet normal -0.54706096647429 -1.69031155104166e-07 -0.837092766042203
outer loop
vertex -95.610918 17.2794945839344 11.38614
vertex -95.836357 15.97949 11.53347
vertex -95.836357 17.2794945839344 11.53347
endloop
endfacet
facet normal -0.54706096647429 -1.69031155104166e-07 -0.837092766042203
outer loop
vertex -95.836357 15.97949 11.53347
vertex -95.610918 17.2794945839344 11.38614
vertex -95.610916 9.506589 11.38614
endloop
endfacet
facet normal 0.376317257210714 0.926490864458681 1.06484086764764e-07
outer loop
vertex -86.0826704438836 16.9570878534032 7.49092850416062e-06
vertex -84.0010671249459 16.1115911732628 15.950718078466
vertex -84.0010672219067 16.1115930459039 7.29829478412244e-06
endloop
endfacet
facet normal 0.376317257210714 0.926490864458681 1.06484086764764e-07
outer loop
vertex -84.0010671249459 16.1115911732628 15.950718078466
vertex -86.0826704438836 16.9570878534032 7.49092850416062e-06
vertex -86.0826703469228 16.957085980762 15.9507182710997
endloop
endfacet
facet normal -0.845731936429135 -2.61314651993346e-07 -0.533607994415149
outer loop
vertex -95.407732 15.97949 11.14059
vertex -94.956335 9.506589 10.42516
vertex -95.40773 9.506589 11.14059
endloop
endfacet
facet normal 0.547060966474302 -6.98752924444419e-19 -0.837092766042213
outer loop
vertex -96.309478 17.2794945839344 11.53347
vertex -96.534917 9.506591 11.38614
vertex -96.534917 17.2794945839344 11.38614
endloop
endfacet
facet normal 0.547060966474302 -6.98752924444419e-19 -0.837092766042213
outer loop
vertex -96.534917 9.506591 11.38614
vertex -96.309478 17.2794945839344 11.53347
vertex -96.309478 9.506591 11.53347
endloop
endfacet
facet normal 0.930164483513182 -1.00396705913131e-07 -0.367143069675359
outer loop
vertex -97.822022 6.452388 9.255457
vertex -97.822026 -15.97948 9.255453
vertex -98.071038 -15.97949 8.624576
endloop
endfacet
facet normal 0.547482595763767 -0.83681706921869 -1.01571802800963e-07
outer loop
vertex -82.5192877847627 0.846624918807349 5.4619030722657e-06
vertex -84.3994153548012 -0.383439309585138 15.9507161850163
vertex -84.399415451762 -0.383437436943996 5.40484508378911e-06
endloop
endfacet
facet normal 0.547482595763767 -0.83681706921869 -1.01571802800963e-07
outer loop
vertex -84.3994153548012 -0.383439309585138 15.9507161850163
vertex -82.5192877847627 0.846624918807349 5.4619030722657e-06
vertex -82.5192876878018 0.846623046166206 15.9507162420742
endloop
endfacet
facet normal -0.54706436731251 -3.38064411793675e-07 -0.837090543499835
outer loop
vertex -95.610916 9.506589 11.38614
vertex -95.836353 9.506589 11.53347
vertex -95.836357 15.97949 11.53347
endloop
endfacet
facet normal 0.77043098760263 -2.7476302466737e-07 -0.637523406112718
outer loop
vertex -96.738105 6.452388 11.14059
vertex -96.534923 -15.97948 11.38614
vertex -96.738113 -15.97948 11.14059
endloop
endfacet
facet normal 0.863392316292106 -6.0192183529151e-09 -0.504533158640492
outer loop
vertex -97.1895 6.452388 10.42515
vertex -97.189506 -15.97948 10.42514
vertex -97.539491 6.452388 9.826221
endloop
endfacet
facet normal 0.331155907160621 -0.943576051599771 -1.12790490051805e-07
outer loop
vertex -84.3994153548012 -0.383439309585138 15.9507161850163
vertex -86.519405 -1.12746549999996 5.4150189044015e-06
vertex -84.399415451762 -0.383437436943996 5.40484508378911e-06
endloop
endfacet
facet normal 0.331155907160621 -0.943576051599771 -1.12790490051805e-07
outer loop
vertex -86.519405 -1.12746549999996 5.4150189044015e-06
vertex -84.3994153548012 -0.383439309585138 15.9507161850163
vertex -86.5194049030392 -1.12746737264111 15.9507161951901
endloop
endfacet
facet normal 0.999708526126741 -0.0241425514289268 -8.91138483062298e-09
outer loop
vertex -79.3053967065524 6.62216145232065 5.9850763250281e-06
vertex -79.2511540749168 8.86826536318237 15.950717023076
vertex -79.3053966095915 6.62215957967951 15.9507167652475
endloop
endfacet
facet normal 0.999708526126741 -0.0241425514289268 -8.91138483062298e-09
outer loop
vertex -79.2511540749168 8.86826536318237 15.950717023076
vertex -79.3053967065524 6.62216145232065 5.9850763250281e-06
vertex -79.2511541718777 8.86826723582351 6.24290478597655e-06
endloop
endfacet
facet normal -0.203183139944704 7.24623165293936e-08 -0.97914075170131
outer loop
vertex -95.836353 6.452388 11.53347
vertex -95.836361 -15.97948 11.53347
vertex -96.072918 6.452388 11.58256
endloop
endfacet
facet normal -0.845731936429149 1.88511259173522e-07 -0.533607994415157
outer loop
vertex -95.40773 6.452388 11.14059
vertex -94.95634 -15.97948 10.42516
vertex -95.407735 -15.97948 11.14059
endloop
endfacet
facet normal -0.203185610268321 4.52894984596199e-08 -0.979140239077063
outer loop
vertex -95.836361 -15.97948 11.53347
vertex -96.072923 -15.97948 11.58256
vertex -96.072918 6.452388 11.58256
endloop
endfacet
facet normal 0.863390114540195 -1.40968776214202e-07 -0.504536926412972
outer loop
vertex -97.539491 6.452388 9.826221
vertex -97.189506 -15.97948 10.42514
vertex -97.539497 -15.97948 9.826217
endloop
endfacet
facet normal 0.770434069755294 -2.06073092929452e-07 -0.637519681390506
outer loop
vertex -96.534917 6.452388 11.38614
vertex -96.534923 -15.97948 11.38614
vertex -96.738105 6.452388 11.14059
endloop
endfacet
facet normal 0.863392316291688 2.66771364476524e-07 -0.504533158641138
outer loop
vertex -97.539493 15.97949 9.826221
vertex -97.1895 9.506591 10.42515
vertex -97.539491 9.506589 9.826221
endloop
endfacet
facet normal 0.896211919912441 -1.6060930665543e-07 -0.443626187918196
outer loop
vertex -97.539491 6.452388 9.826221
vertex -97.539497 -15.97948 9.826217
vertex -97.822026 -15.97948 9.255453
endloop
endfacet
facet normal 0.976401175633574 0.215964682810351 1.94193016346938e-08
outer loop
vertex -79.2511541718777 8.86826723582351 6.24290478597655e-06
vertex -79.7363750272399 11.0620051086124 15.9507172993656
vertex -79.2511540749168 8.86826536318237 15.950717023076
endloop
endfacet
facet normal 0.976401175633574 0.215964682810351 1.94193016346938e-08
outer loop
vertex -79.7363750272399 11.0620051086124 15.9507172993656
vertex -79.2511541718777 8.86826723582351 6.24290478597655e-06
vertex -79.7363751242007 11.0620069812536 6.51919440921747e-06
endloop
endfacet
facet normal 0.863391060374874 0.0 -0.50453530784748
outer loop
vertex -97.539493 15.97949 9.826221
vertex -97.1895 17.2794945839344 10.42515
vertex -97.1895 9.506591 10.42515
endloop
endfacet
facet normal 0.863391060374874 0.0 -0.50453530784748
outer loop
vertex -97.1895 17.2794945839344 10.42515
vertex -97.539493 15.97949 9.826221
vertex -97.539493 17.2794945839344 9.826221
endloop
endfacet
facet normal 0.547060966474287 -1.9510135008081e-07 -0.837092766042199
outer loop
vertex -96.309478 6.452388 11.53347
vertex -96.309486 -15.97948 11.53347
vertex -96.534917 6.452388 11.38614
endloop
endfacet
facet normal 0.770434069755299 1.28622078979067e-18 -0.637519681390534
outer loop
vertex -96.738105 17.2794945839344 11.14059
vertex -96.534917 9.506591 11.38614
vertex -96.738105 9.506591 11.14059
endloop
endfacet
facet normal 0.770434069755299 1.28622078979067e-18 -0.637519681390534
outer loop
vertex -96.534917 9.506591 11.38614
vertex -96.738105 17.2794945839344 11.14059
vertex -96.534917 17.2794945839344 11.38614
endloop
endfacet
facet normal -0.845733003394953 1.13106898203869e-07 -0.533606303344085
outer loop
vertex -94.956337 6.452388 10.42516
vertex -94.95634 -15.97948 10.42516
vertex -95.40773 6.452388 11.14059
endloop
endfacet
facet normal -2.74937930668043e-08 1.72257594550002e-07 -0.999999999999985
outer loop
vertex -88.306179 17.27949 7.629395e-06
vertex -100.89381 9.506591 7.629395e-06
vertex -100.89381 17.27949 8.583069e-06
endloop
endfacet
facet normal -2.74937930668043e-08 1.72257594550002e-07 -0.999999999999985
outer loop
vertex -100.89381 9.506591 7.629395e-06
vertex -88.306179 17.27949 7.629395e-06
vertex -92.4422916064159 10.9862239725127 5.72204600119974e-06
endloop
endfacet
facet normal -2.74937930668043e-08 1.72257594550002e-07 -0.999999999999985
outer loop
vertex -100.89381 9.506591 7.629395e-06
vertex -92.4422916064159 10.9862239725127 5.72204600119974e-06
vertex -93.2007347069081 9.50658812745218 5.72204600119974e-06
endloop
endfacet
facet normal -2.74937930668043e-08 1.72257594550002e-07 -0.999999999999985
outer loop
vertex -92.4422916064159 10.9862239725127 5.72204600119974e-06
vertex -88.306179 17.27949 7.629395e-06
vertex -91.3119429912038 12.1165622465681 5.72204600119974e-06
endloop
endfacet
facet normal -2.74937930668043e-08 1.72257594550002e-07 -0.999999999999985
outer loop
vertex -91.3119429912038 12.1165622465681 5.72204600119974e-06
vertex -88.306179 17.27949 7.629395e-06
vertex -89.8864054945863 12.8429114202162 5.72204600119974e-06
endloop
endfacet
facet normal -2.74937930668043e-08 1.72257594550002e-07 -0.999999999999985
outer loop
vertex -89.8864054945863 12.8429114202162 5.72204600119974e-06
vertex -88.306179 17.27949 7.629395e-06
vertex -88.306178876566 13.0931951911152 5.72204600119974e-06
endloop
endfacet
facet normal -2.74937930668043e-08 1.72257594550002e-07 -0.999999999999985
outer loop
vertex -88.306178876566 13.0931951911152 5.72204600119974e-06
vertex -88.306179 17.27949 7.629395e-06
vertex -86.0826704438836 16.9570878534032 7.49092850416062e-06
endloop
endfacet
facet normal -2.74937930668043e-08 1.72257594550002e-07 -0.999999999999985
outer loop
vertex -88.306178876566 13.0931951911152 5.72204600119974e-06
vertex -86.0826704438836 16.9570878534032 7.49092850416062e-06
vertex -86.7259544477952 12.8429113719902 5.72204600119974e-06
endloop
endfacet
facet normal -2.74937930668043e-08 1.72257594550002e-07 -0.999999999999985
outer loop
vertex -86.7259544477952 12.8429113719902 5.72204600119974e-06
vertex -86.0826704438836 16.9570878534032 7.49092850416062e-06
vertex -85.3004136516149 12.1165607077211 5.72204600119974e-06
endloop
endfacet
facet normal -2.74937930668043e-08 1.72257594550002e-07 -0.999999999999985
outer loop
vertex -85.3004136516149 12.1165607077211 5.72204600119974e-06
vertex -86.0826704438836 16.9570878534032 7.49092850416062e-06
vertex -84.0010672219067 16.1115930459039 7.29829478412244e-06
endloop
endfacet
facet normal -2.74937930668043e-08 1.72257594550002e-07 -0.999999999999985
outer loop
vertex -85.3004136516149 12.1165607077211 5.72204600119974e-06
vertex -84.0010672219067 16.1115930459039 7.29829478412244e-06
vertex -84.1690987679252 10.9852408365632 5.72204600119974e-06
endloop
endfacet
facet normal -2.74937930668043e-08 1.72257594550002e-07 -0.999999999999985
outer loop
vertex -84.1690987679252 10.9852408365632 5.72204600119974e-06
vertex -84.0010672219067 16.1115930459039 7.29829478412244e-06
vertex -83.4427525655555 9.55970394974184 5.72204600119974e-06
endloop
endfacet
facet normal -2.74937930668043e-08 1.72257594550002e-07 -0.999999999999985
outer loop
vertex -83.4427525655555 9.55970394974184 5.72204600119974e-06
vertex -84.0010672219067 16.1115930459039 7.29829478412244e-06
vertex -82.1825076434815 14.7922089081446 7.06270410461548e-06
endloop
endfacet
facet normal -2.74937930668043e-08 1.72257594550002e-07 -0.999999999999985
outer loop
vertex -83.4427525655555 9.55970394974184 5.72204600119974e-06
vertex -82.1825076434815 14.7922089081446 7.06270410461548e-06
vertex -83.192469775918 7.97948812343499 5.72204600119974e-06
endloop
endfacet
facet normal -2.74937930668043e-08 1.72257594550002e-07 -0.999999999999985
outer loop
vertex -83.192469775918 7.97948812343499 5.72204600119974e-06
vertex -82.1825076434815 14.7922089081446 7.06270410461548e-06
vertex -82.5192877847627 0.846624918807349 5.4619030722657e-06
endloop
endfacet
facet normal -2.74937930668043e-08 1.72257594550002e-07 -0.999999999999985
outer loop
vertex -82.5192877847627 0.846624918807349 5.4619030722657e-06
vertex -82.1825076434815 14.7922089081446 7.06270410461548e-06
vertex -80.9884354956063 2.49113843715791 5.58287239636662e-06
endloop
endfacet
facet normal -2.74937930668043e-08 1.72257594550002e-07 -0.999999999999985
outer loop
vertex -80.9884354956063 2.49113843715791 5.58287239636662e-06
vertex -82.1825076434815 14.7922089081446 7.06270410461548e-06
vertex -80.732822267751 13.0757166260046 6.79786659844865e-06
endloop
endfacet
facet normal -2.74937930668043e-08 1.72257594550002e-07 -0.999999999999985
outer loop
vertex -80.9884354956063 2.49113843715791 5.58287239636662e-06
vertex -80.732822267751 13.0757166260046 6.79786659844865e-06
vertex -79.8959460992961 4.45440112009225 5.76071328056807e-06
endloop
endfacet
facet normal -2.74937930668043e-08 1.72257594550002e-07 -0.999999999999985
outer loop
vertex -79.8959460992961 4.45440112009225 5.76071328056807e-06
vertex -80.732822267751 13.0757166260046 6.79786659844865e-06
vertex -79.7363751242007 11.0620069812536 6.51919440921747e-06
endloop
endfacet
facet normal -2.74937930668043e-08 1.72257594550002e-07 -0.999999999999985
outer loop
vertex -79.8959460992961 4.45440112009225 5.76071328056807e-06
vertex -79.7363751242007 11.0620069812536 6.51919440921747e-06
vertex -79.3053967065524 6.62216145232065 5.9850763250281e-06
endloop
endfacet
facet normal -2.74937930668043e-08 1.72257594550002e-07 -0.999999999999985
outer loop
vertex -79.3053967065524 6.62216145232065 5.9850763250281e-06
vertex -79.7363751242007 11.0620069812536 6.51919440921747e-06
vertex -79.2511541718777 8.86826723582351 6.24290478597655e-06
endloop
endfacet
facet normal -2.74937930668043e-08 1.72257594550002e-07 -0.999999999999985
outer loop
vertex -85.3004152831651 3.84241303102837 5.72204600119974e-06
vertex -86.519405 -1.12746549999996 5.4150189044015e-06
vertex -86.725956626905 3.11606147620748 5.72204600119974e-06
endloop
endfacet
facet normal -2.74937930668043e-08 1.72257594550002e-07 -0.999999999999985
outer loop
vertex -86.519405 -1.12746549999996 5.4150189044015e-06
vertex -85.3004152831651 3.84241303102837 5.72204600119974e-06
vertex -84.399415451762 -0.383437436943996 5.40484508378911e-06
endloop
endfacet
facet normal -2.74937930668043e-08 1.72257594550002e-07 -0.999999999999985
outer loop
vertex -84.399415451762 -0.383437436943996 5.40484508378911e-06
vertex -85.3004152831651 3.84241303102837 5.72204600119974e-06
vertex -84.1691011430201 4.97372841804091 5.72204600119974e-06
endloop
endfacet
facet normal -2.74937930668043e-08 1.72257594550002e-07 -0.999999999999985
outer loop
vertex -84.399415451762 -0.383437436943996 5.40484508378911e-06
vertex -84.1691011430201 4.97372841804091 5.72204600119974e-06
vertex -82.5192877847627 0.846624918807349 5.4619030722657e-06
endloop
endfacet
facet normal -2.74937930668043e-08 1.72257594550002e-07 -0.999999999999985
outer loop
vertex -82.5192877847627 0.846624918807349 5.4619030722657e-06
vertex -84.1691011430201 4.97372841804091 5.72204600119974e-06
vertex -83.4427525066976 6.39927017500296 5.72204600119974e-06
endloop
endfacet
facet normal -2.74937930668043e-08 1.72257594550002e-07 -0.999999999999985
outer loop
vertex -82.5192877847627 0.846624918807349 5.4619030722657e-06
vertex -83.4427525066976 6.39927017500296 5.72204600119974e-06
vertex -83.192469775918 7.97948812343499 5.72204600119974e-06
endloop
endfacet
facet normal -2.74937930668043e-08 1.72257594550002e-07 -0.999999999999985
outer loop
vertex -100.89381 6.452388 7.629395e-06
vertex -86.519405 -15.97948 1.907349e-06
vertex -100.89382 -15.97948 0.0
endloop
endfacet
facet normal -2.74937930668043e-08 1.72257594550002e-07 -0.999999999999985
outer loop
vertex -86.519405 -15.97948 1.907349e-06
vertex -100.89381 6.452388 7.629395e-06
vertex -93.2007369743349 6.45238825490467 5.72204600119974e-06
endloop
endfacet
facet normal -2.74937930668043e-08 1.72257594550002e-07 -0.999999999999985
outer loop
vertex -86.519405 -15.97948 1.907349e-06
vertex -93.2007369743349 6.45238825490467 5.72204600119974e-06
vertex -92.4422942076744 4.97275984126144 5.72204600119974e-06
endloop
endfacet
facet normal -2.74937930668043e-08 1.72257594550002e-07 -0.999999999999985
outer loop
vertex -86.519405 -15.97948 1.907349e-06
vertex -92.4422942076744 4.97275984126144 5.72204600119974e-06
vertex -91.3119468876105 3.84241052772404 5.72204600119974e-06
endloop
endfacet
facet normal -2.74937930668043e-08 1.72257594550002e-07 -0.999999999999985
outer loop
vertex -86.519405 -15.97948 1.907349e-06
vertex -91.3119468876105 3.84241052772404 5.72204600119974e-06
vertex -89.8864045625858 3.11606134783564 5.72204600119974e-06
endloop
endfacet
facet normal -2.74937930668043e-08 1.72257594550002e-07 -0.999999999999985
outer loop
vertex -86.519405 -15.97948 1.907349e-06
vertex -89.8864045625858 3.11606134783564 5.72204600119974e-06
vertex -88.306181 2.86577891276868 5.72204600119974e-06
endloop
endfacet
facet normal -2.74937930668043e-08 1.72257594550002e-07 -0.999999999999985
outer loop
vertex -86.519405 -15.97948 1.907349e-06
vertex -88.306181 2.86577891276868 5.72204600119974e-06
vertex -86.725956626905 3.11606147620748 5.72204600119974e-06
endloop
endfacet
facet normal -2.74937930668043e-08 1.72257594550002e-07 -0.999999999999985
outer loop
vertex -86.519405 -15.97948 1.907349e-06
vertex -86.725956626905 3.11606147620748 5.72204600119974e-06
vertex -86.519405 -1.12746549999996 5.4150189044015e-06
endloop
endfacet
facet normal 0.731948689906238 -0.68135975471445 -8.44421727896409e-08
outer loop
vertex -82.5192877847627 0.846624918807349 5.4619030722657e-06
vertex -80.9884353986455 2.49113656451677 15.9507163630436
vertex -82.5192876878018 0.846623046166206 15.9507162420742
endloop
endfacet
facet normal 0.731948689906238 -0.68135975471445 -8.44421727896409e-08
outer loop
vertex -80.9884353986455 2.49113656451677 15.9507163630436
vertex -82.5192877847627 0.846624918807349 5.4619030722657e-06
vertex -80.9884354956063 2.49113843715791 5.58287239636662e-06
endloop
endfacet
facet normal 0.964838122338289 -0.262844816731704 -3.67234757819118e-08
outer loop
vertex -79.8959460992961 4.45440112009225 5.76071328056807e-06
vertex -79.3053966095915 6.62215957967951 15.9507167652475
vertex -79.8959460023352 4.45439924745111 15.9507165408845
endloop
endfacet
facet normal 0.964838122338289 -0.262844816731704 -3.67234757819118e-08
outer loop
vertex -79.3053966095915 6.62215957967951 15.9507167652475
vertex -79.8959460992961 4.45440112009225 5.76071328056807e-06
vertex -79.3053967065524 6.62216145232065 5.9850763250281e-06
endloop
endfacet
facet normal -9.73158221829857e-08 -0.999999999999987 -1.28141318726665e-07
outer loop
vertex -93.2007347069081 9.50658812745218 5.72204600119974e-06
vertex -94.373216 9.506591 6.740457
vertex -100.89381 9.506591 7.629395e-06
endloop
endfacet
facet normal -9.73158221829857e-08 -0.999999999999987 -1.28141318726665e-07
outer loop
vertex -94.373216 9.506591 6.740457
vertex -93.2007347069081 9.50658812745218 5.72204600119974e-06
vertex -94.0748 9.506591 7.326139
endloop
endfacet
facet normal -9.73158221829857e-08 -0.999999999999987 -1.28141318726665e-07
outer loop
vertex -94.0748 9.506591 7.326139
vertex -93.2007347069081 9.50658812745218 5.72204600119974e-06
vertex -93.971969 9.506591 7.975362
endloop
endfacet
facet normal -9.73158221829857e-08 -0.999999999999987 -1.28141318726665e-07
outer loop
vertex -93.971969 9.506591 7.975362
vertex -93.2007347069081 9.50658812745218 5.72204600119974e-06
vertex -93.2007347069081 9.50658812745218 15.95071
endloop
endfacet
facet normal -9.73158221829857e-08 -0.999999999999987 -1.28141318726665e-07
outer loop
vertex -100.89381 9.506591 7.629395e-06
vertex -94.373216 9.506591 6.740457
vertex -94.838012 9.506591 6.275664
endloop
endfacet
facet normal -9.73158221829857e-08 -0.999999999999987 -1.28141318726665e-07
outer loop
vertex -100.89381 9.506591 7.629395e-06
vertex -94.838012 9.506591 6.275664
vertex -95.423689 9.506591 5.977239
endloop
endfacet
facet normal -9.73158221829857e-08 -0.999999999999987 -1.28141318726665e-07
outer loop
vertex -100.89381 9.506591 7.629395e-06
vertex -95.423689 9.506591 5.977239
vertex -96.072916 9.506591 5.874413
endloop
endfacet
facet normal -9.73158221829857e-08 -0.999999999999987 -1.28141318726665e-07
outer loop
vertex -93.971969 9.506591 7.975362
vertex -93.2007347069081 9.50658812745218 15.95071
vertex -94.074798 9.506591 8.624578
endloop
endfacet
facet normal -9.73158221829857e-08 -0.999999999999987 -1.28141318726665e-07
outer loop
vertex -94.074798 9.506591 8.624578
vertex -93.2007347069081 9.50658812745218 15.95071
vertex -94.323808 9.506591 9.255472
endloop
endfacet
facet normal -9.73158221829857e-08 -0.999999999999987 -1.28141318726665e-07
outer loop
vertex -94.323808 9.506591 9.255472
vertex -93.2007347069081 9.50658812745218 15.95071
vertex -94.60634 9.506589 9.826205
endloop
endfacet
facet normal -9.73158221829857e-08 -0.999999999999987 -1.28141318726665e-07
outer loop
vertex -94.60634 9.506589 9.826205
vertex -93.2007347069081 9.50658812745218 15.95071
vertex -94.956335 9.506589 10.42516
endloop
endfacet
facet normal -9.73158221829857e-08 -0.999999999999987 -1.28141318726665e-07
outer loop
vertex -94.956335 9.506589 10.42516
vertex -93.2007347069081 9.50658812745218 15.95071
vertex -95.40773 9.506589 11.14059
endloop
endfacet
facet normal -9.73158221829857e-08 -0.999999999999987 -1.28141318726665e-07
outer loop
vertex -95.40773 9.506589 11.14059
vertex -93.2007347069081 9.50658812745218 15.95071
vertex -95.610916 9.506589 11.38614
endloop
endfacet
facet normal -9.73158221829857e-08 -0.999999999999987 -1.28141318726665e-07
outer loop
vertex -95.610916 9.506589 11.38614
vertex -93.2007347069081 9.50658812745218 15.95071
vertex -95.836353 9.506589 11.53347
endloop
endfacet
facet normal -9.73158221829857e-08 -0.999999999999987 -1.28141318726665e-07
outer loop
vertex -95.836353 9.506589 11.53347
vertex -93.2007347069081 9.50658812745218 15.95071
vertex -96.072918 9.506589 11.58256
endloop
endfacet
facet normal -9.73158221829857e-08 -0.999999999999987 -1.28141318726665e-07
outer loop
vertex -100.89381 9.506591 7.629395e-06
vertex -98.071034 9.506591 7.326138
vertex -100.89381 9.506589 15.95071
endloop
endfacet
facet normal -9.73158221829857e-08 -0.999999999999987 -1.28141318726665e-07
outer loop
vertex -98.071034 9.506591 7.326138
vertex -100.89381 9.506591 7.629395e-06
vertex -97.772619 9.506591 6.740455
endloop
endfacet
facet normal -9.73158221829857e-08 -0.999999999999987 -1.28141318726665e-07
outer loop
vertex -97.772619 9.506591 6.740455
vertex -100.89381 9.506591 7.629395e-06
vertex -97.307823 9.506591 6.275663
endloop
endfacet
facet normal -9.73158221829857e-08 -0.999999999999987 -1.28141318726665e-07
outer loop
vertex -97.307823 9.506591 6.275663
vertex -100.89381 9.506591 7.629395e-06
vertex -96.722147 9.506591 5.977238
endloop
endfacet
facet normal -9.73158221829857e-08 -0.999999999999987 -1.28141318726665e-07
outer loop
vertex -96.722147 9.506591 5.977238
vertex -100.89381 9.506591 7.629395e-06
vertex -96.072916 9.506591 5.874413
endloop
endfacet
facet normal -9.73158221829857e-08 -0.999999999999987 -1.28141318726665e-07
outer loop
vertex -100.89381 9.506589 15.95071
vertex -98.071034 9.506591 7.326138
vertex -98.173859 9.506591 7.975361
endloop
endfacet
facet normal -9.73158221829857e-08 -0.999999999999987 -1.28141318726665e-07
outer loop
vertex -100.89381 9.506589 15.95071
vertex -98.173859 9.506591 7.975361
vertex -98.071034 9.506591 8.62458
endloop
endfacet
facet normal -9.73158221829857e-08 -0.999999999999987 -1.28141318726665e-07
outer loop
vertex -100.89381 9.506589 15.95071
vertex -98.071034 9.506591 8.62458
vertex -97.822022 9.506591 9.255459
endloop
endfacet
facet normal -9.73158221829857e-08 -0.999999999999987 -1.28141318726665e-07
outer loop
vertex -100.89381 9.506589 15.95071
vertex -97.822022 9.506591 9.255459
vertex -97.539491 9.506589 9.826221
endloop
endfacet
facet normal -9.73158221829857e-08 -0.999999999999987 -1.28141318726665e-07
outer loop
vertex -100.89381 9.506589 15.95071
vertex -97.539491 9.506589 9.826221
vertex -97.1895 9.506591 10.42515
endloop
endfacet
facet normal -9.73158221829857e-08 -0.999999999999987 -1.28141318726665e-07
outer loop
vertex -100.89381 9.506589 15.95071
vertex -97.1895 9.506591 10.42515
vertex -96.738105 9.506591 11.14059
endloop
endfacet
facet normal -9.73158221829857e-08 -0.999999999999987 -1.28141318726665e-07
outer loop
vertex -100.89381 9.506589 15.95071
vertex -96.738105 9.506591 11.14059
vertex -96.534917 9.506591 11.38614
endloop
endfacet
facet normal -9.73158221829857e-08 -0.999999999999987 -1.28141318726665e-07
outer loop
vertex -100.89381 9.506589 15.95071
vertex -96.534917 9.506591 11.38614
vertex -96.309478 9.506591 11.53347
endloop
endfacet
facet normal -9.73158221829857e-08 -0.999999999999987 -1.28141318726665e-07
outer loop
vertex -100.89381 9.506589 15.95071
vertex -96.309478 9.506591 11.53347
vertex -96.072918 9.506589 11.58256
endloop
endfacet
facet normal -9.73158221829857e-08 -0.999999999999987 -1.28141318726665e-07
outer loop
vertex -100.89381 9.506589 15.95071
vertex -96.072918 9.506589 11.58256
vertex -93.2007347069081 9.50658812745218 15.95071
endloop
endfacet
facet normal 0.987688619837561 6.10353178787288e-07 -0.156432701961583
outer loop
vertex -98.173863 15.97949 7.975361
vertex -98.071034 9.506591 8.62458
vertex -98.173859 9.506591 7.975361
endloop
endfacet
facet normal 0.987687679585793 0.0 -0.156438638431914
outer loop
vertex -98.173863 15.97949 7.975361
vertex -98.071034 17.2794945839344 8.62458
vertex -98.071034 9.506591 8.62458
endloop
endfacet
facet normal 0.987687679585793 0.0 -0.156438638431914
outer loop
vertex -98.071034 17.2794945839344 8.62458
vertex -98.173863 15.97949 7.975361
vertex -98.173863 17.2794945839344 7.975361
endloop
endfacet
facet normal 0.930164880991412 -7.06171459948916e-31 -0.367142062654542
outer loop
vertex -98.071034 17.2794945839344 8.62458
vertex -97.822022 9.506591 9.255459
vertex -98.071034 9.506591 8.62458
endloop
endfacet
facet normal 0.930164880991412 -7.06171459948916e-31 -0.367142062654542
outer loop
vertex -97.822022 9.506591 9.255459
vertex -98.071034 17.2794945839344 8.62458
vertex -97.822022 15.97949 9.255459
endloop
endfacet
facet normal 0.930164880991412 -7.06171459948916e-31 -0.367142062654542
outer loop
vertex -97.822022 15.97949 9.255459
vertex -98.071034 17.2794945839344 8.62458
vertex -97.822022 17.2794945839344 9.255459
endloop
endfacet
facet normal 0.896210053291645 4.34048730269766e-18 -0.44362995883843
outer loop
vertex -97.822022 15.97949 9.255459
vertex -97.539491 9.506589 9.826221
vertex -97.822022 9.506591 9.255459
endloop
endfacet
facet normal 0.896211301867097 2.7691179009759e-07 -0.443627436488779
outer loop
vertex -97.822022 15.97949 9.255459
vertex -97.539493 15.97949 9.826221
vertex -97.539491 9.506589 9.826221
endloop
endfacet
facet normal 0.896211301867097 2.7691179009759e-07 -0.443627436488779
outer loop
vertex -97.539493 15.97949 9.826221
vertex -97.822022 15.97949 9.255459
vertex -97.822022 17.2794945839344 9.255459
endloop
endfacet
facet normal 0.896211301867097 2.7691179009759e-07 -0.443627436488779
outer loop
vertex -97.539493 15.97949 9.826221
vertex -97.822022 17.2794945839344 9.255459
vertex -97.539493 17.2794945839344 9.826221
endloop
endfacet
facet normal 0.845735302348671 -6.42073405903413e-31 -0.533602659627182
outer loop
vertex -97.1895 17.2794945839344 10.42515
vertex -96.738105 9.506591 11.14059
vertex -97.1895 9.506591 10.42515
endloop
endfacet
facet normal 0.845735302348671 -6.42073405903413e-31 -0.533602659627182
outer loop
vertex -96.738105 9.506591 11.14059
vertex -97.1895 17.2794945839344 10.42515
vertex -96.738105 17.2794945839344 11.14059
endloop
endfacet
facet normal 0.203187257183388 4.48950232768113e-20 -0.979139897317177
outer loop
vertex -96.072918 17.2794945839344 11.58256
vertex -96.309478 9.506591 11.53347
vertex -96.309478 17.2794945839344 11.53347
endloop
endfacet
facet normal 0.203187257183388 4.48950232768113e-20 -0.979139897317177
outer loop
vertex -96.309478 9.506591 11.53347
vertex -96.072918 17.2794945839344 11.58256
vertex -96.072918 9.506589 11.58256
endloop
endfacet
facet normal 0.203187257183388 4.48950232768113e-20 -0.979139897317177
outer loop
vertex -96.072918 9.506589 11.58256
vertex -96.072918 17.2794945839344 11.58256
vertex -96.072918 15.97949 11.58256
endloop
endfacet
facet normal -0.770437151914583 -2.38050034184868e-07 -0.637515956623588
outer loop
vertex -95.610918 17.2794945839344 11.38614
vertex -95.40773 9.506589 11.14059
vertex -95.610916 9.506589 11.38614
endloop
endfacet
facet normal -0.770437151914583 -2.38050034184868e-07 -0.637515956623588
outer loop
vertex -95.40773 9.506589 11.14059
vertex -95.610918 17.2794945839344 11.38614
vertex -95.407732 15.97949 11.14059
endloop
endfacet
facet normal -0.770437151914583 -2.38050034184868e-07 -0.637515956623588
outer loop
vertex -95.407732 15.97949 11.14059
vertex -95.610918 17.2794945839344 11.38614
vertex -95.407732 17.2794945839344 11.14059
endloop
endfacet
facet normal -0.86339934494558 5.12662346342457e-07 -0.504521130526047
outer loop
vertex -94.956337 15.97949 10.42517
vertex -94.60634 9.506589 9.826205
vertex -94.956335 9.506589 10.42516
endloop
endfacet
facet normal -0.863396776442927 1.05827980207351e-06 -0.504525526040896
outer loop
vertex -94.956337 15.97949 10.42517
vertex -94.606342 15.97949 9.826222
vertex -94.60634 9.506589 9.826205
endloop
endfacet
facet normal -0.863396776442927 1.05827980207351e-06 -0.504525526040896
outer loop
vertex -94.606342 15.97949 9.826222
vertex -94.956337 15.97949 10.42517
vertex -94.956337 17.2794945839344 10.42517
endloop
endfacet
facet normal -0.863396776442927 1.05827980207351e-06 -0.504525526040896
outer loop
vertex -94.606342 15.97949 9.826222
vertex -94.956337 17.2794945839344 10.42517
vertex -94.606342 17.2794945839344 9.826222
endloop
endfacet
facet normal -0.896200466625689 8.88262865739428e-07 -0.443649325052015
outer loop
vertex -94.606342 15.97949 9.826222
vertex -94.323808 9.506591 9.255472
vertex -94.60634 9.506589 9.826205
endloop
endfacet
facet normal -0.896205102474414 -1.39833833986912e-07 -0.443639960214142
outer loop
vertex -94.606342 15.97949 9.826222
vertex -94.32381 15.97949 9.255474
vertex -94.323808 9.506591 9.255472
endloop
endfacet
facet normal -0.896205102474414 -1.39833833986912e-07 -0.443639960214142
outer loop
vertex -94.32381 15.97949 9.255474
vertex -94.606342 15.97949 9.826222
vertex -94.606342 17.2794945839344 9.826222
endloop
endfacet
facet normal -0.896205102474414 -1.39833833986912e-07 -0.443639960214142
outer loop
vertex -94.32381 15.97949 9.255474
vertex -94.606342 17.2794945839344 9.826222
vertex -94.32381 17.2794945839344 9.255474
endloop
endfacet
facet normal -0.930168868956956 -1.73967463397428e-07 -0.367131958869434
outer loop
vertex -94.32381 15.97949 9.255474
vertex -94.074798 9.506591 8.624578
vertex -94.323808 9.506591 9.255472
endloop
endfacet
facet normal -0.930166497552377 5.02858979007023e-07 -0.36713796702451
outer loop
vertex -94.32381 15.97949 9.255474
vertex -94.074802 15.97949 8.624597
vertex -94.074798 9.506591 8.624578
endloop
endfacet
facet normal -0.930166497552377 5.02858979007023e-07 -0.36713796702451
outer loop
vertex -94.074802 15.97949 8.624597
vertex -94.32381 15.97949 9.255474
vertex -94.32381 17.2794945839344 9.255474
endloop
endfacet
facet normal -0.930166497552377 5.02858979007023e-07 -0.36713796702451
outer loop
vertex -94.074802 15.97949 8.624597
vertex -94.32381 17.2794945839344 9.255474
vertex -94.074802 17.2794945839344 8.624597
endloop
endfacet
facet normal -0.987687567889 -1.51153716932415e-07 -0.156439343636721
outer loop
vertex -94.074802 15.97949 8.624597
vertex -93.971969 9.506591 7.975362
vertex -94.074798 9.506591 8.624578
endloop
endfacet
facet normal -0.987688819839407 -9.63864227924721e-07 -0.156431439178031
outer loop
vertex -94.074802 15.97949 8.624597
vertex -93.971975 17.2794945839344 7.97536
vertex -93.971969 9.506591 7.975362
endloop
endfacet
facet normal -0.987688819839407 -9.63864227924721e-07 -0.156431439178031
outer loop
vertex -93.971975 17.2794945839344 7.97536
vertex -94.074802 15.97949 8.624597
vertex -94.074802 17.2794945839344 8.624597
endloop
endfacet
facet normal -0.99999999999994 1.48597984977883e-07 3.13465850201952e-07
outer loop
vertex -100.89381 6.45239 15.95071
vertex -100.89382 -15.97948 0.0
vertex -100.89381 -15.97948 15.95071
endloop
endfacet
facet normal -0.99999999999994 1.48597984977883e-07 3.13465850201952e-07
outer loop
vertex -100.89382 -15.97948 0.0
vertex -100.89381 6.45239 15.95071
vertex -100.89381 6.452388 7.629395e-06
endloop
endfacet
facet normal 2.72490290074798e-07 0.999999999999953 -1.39802929596274e-07
outer loop
vertex -100.89381 6.452388 7.629395e-06
vertex -96.722147 6.452386 5.977239
vertex -96.072916 6.452386 5.874413
endloop
endfacet
facet normal 2.72490290074798e-07 0.999999999999953 -1.39802929596274e-07
outer loop
vertex -96.722147 6.452386 5.977239
vertex -100.89381 6.452388 7.629395e-06
vertex -97.307823 6.452388 6.275664
endloop
endfacet
facet normal 2.72490290074798e-07 0.999999999999953 -1.39802929596274e-07
outer loop
vertex -97.307823 6.452388 6.275664
vertex -100.89381 6.452388 7.629395e-06
vertex -97.772619 6.452386 6.740456
endloop
endfacet
facet normal 2.72490290074798e-07 0.999999999999953 -1.39802929596274e-07
outer loop
vertex -97.772619 6.452386 6.740456
vertex -100.89381 6.452388 7.629395e-06
vertex -98.071034 6.452388 7.326138
endloop
endfacet
facet normal 2.72490290074798e-07 0.999999999999953 -1.39802929596274e-07
outer loop
vertex -98.071034 6.452388 7.326138
vertex -100.89381 6.452388 7.629395e-06
vertex -100.89381 6.45239 15.95071
endloop
endfacet
facet normal 2.72490290074798e-07 0.999999999999953 -1.39802929596274e-07
outer loop
vertex -98.071034 6.452388 7.326138
vertex -100.89381 6.45239 15.95071
vertex -98.173859 6.452388 7.975359
endloop
endfacet
facet normal 2.72490290074798e-07 0.999999999999953 -1.39802929596274e-07
outer loop
vertex -98.173859 6.452388 7.975359
vertex -100.89381 6.45239 15.95071
vertex -98.071034 6.452388 8.624578
endloop
endfacet
facet normal 2.72490290074798e-07 0.999999999999953 -1.39802929596274e-07
outer loop
vertex -98.071034 6.452388 8.624578
vertex -100.89381 6.45239 15.95071
vertex -97.822022 6.452388 9.255457
endloop
endfacet
facet normal 2.72490290074798e-07 0.999999999999953 -1.39802929596274e-07
outer loop
vertex -97.822022 6.452388 9.255457
vertex -100.89381 6.45239 15.95071
vertex -97.539491 6.452388 9.826221
endloop
endfacet
facet normal 2.72490290074798e-07 0.999999999999953 -1.39802929596274e-07
outer loop
vertex -97.539491 6.452388 9.826221
vertex -100.89381 6.45239 15.95071
vertex -97.1895 6.452388 10.42515
endloop
endfacet
facet normal 2.72490290074798e-07 0.999999999999953 -1.39802929596274e-07
outer loop
vertex -97.1895 6.452388 10.42515
vertex -100.89381 6.45239 15.95071
vertex -96.738105 6.452388 11.14059
endloop
endfacet
facet normal 2.72490290074798e-07 0.999999999999953 -1.39802929596274e-07
outer loop
vertex -96.738105 6.452388 11.14059
vertex -100.89381 6.45239 15.95071
vertex -96.534917 6.452388 11.38614
endloop
endfacet
facet normal 2.72490290074798e-07 0.999999999999953 -1.39802929596274e-07
outer loop
vertex -96.534917 6.452388 11.38614
vertex -100.89381 6.45239 15.95071
vertex -96.309478 6.452388 11.53347
endloop
endfacet
facet normal 2.72490290074798e-07 0.999999999999953 -1.39802929596274e-07
outer loop
vertex -96.309478 6.452388 11.53347
vertex -100.89381 6.45239 15.95071
vertex -96.072918 6.452388 11.58256
endloop
endfacet
facet normal 2.72490290074798e-07 0.999999999999953 -1.39802929596274e-07
outer loop
vertex -93.2007369743349 6.45238825490467 5.72204600119974e-06
vertex -93.971971 6.452386 7.975359
vertex -93.2007369743349 6.45238825490467 15.95071
endloop
endfacet
facet normal 2.72490290074798e-07 0.999999999999953 -1.39802929596274e-07
outer loop
vertex -93.971971 6.452386 7.975359
vertex -93.2007369743349 6.45238825490467 5.72204600119974e-06
vertex -94.0748 6.452386 7.326138
endloop
endfacet
facet normal 2.72490290074798e-07 0.999999999999953 -1.39802929596274e-07
outer loop
vertex -94.0748 6.452386 7.326138
vertex -93.2007369743349 6.45238825490467 5.72204600119974e-06
vertex -94.373218 6.452386 6.740456
endloop
endfacet
facet normal 2.72490290074798e-07 0.999999999999953 -1.39802929596274e-07
outer loop
vertex -94.373218 6.452386 6.740456
vertex -93.2007369743349 6.45238825490467 5.72204600119974e-06
vertex -100.89381 6.452388 7.629395e-06
endloop
endfacet
facet normal 2.72490290074798e-07 0.999999999999953 -1.39802929596274e-07
outer loop
vertex -94.373218 6.452386 6.740456
vertex -100.89381 6.452388 7.629395e-06
vertex -94.838012 6.452386 6.275664
endloop
endfacet
facet normal 2.72490290074798e-07 0.999999999999953 -1.39802929596274e-07
outer loop
vertex -94.838012 6.452386 6.275664
vertex -100.89381 6.452388 7.629395e-06
vertex -95.423689 6.452386 5.977239
endloop
endfacet
facet normal 2.72490290074798e-07 0.999999999999953 -1.39802929596274e-07
outer loop
vertex -95.423689 6.452386 5.977239
vertex -100.89381 6.452388 7.629395e-06
vertex -96.072916 6.452386 5.874413
endloop
endfacet
facet normal 2.72490290074798e-07 0.999999999999953 -1.39802929596274e-07
outer loop
vertex -93.2007369743349 6.45238825490467 15.95071
vertex -93.971971 6.452386 7.975359
vertex -94.0748 6.452386 8.624578
endloop
endfacet
facet normal 2.72490290074798e-07 0.999999999999953 -1.39802929596274e-07
outer loop
vertex -93.2007369743349 6.45238825490467 15.95071
vertex -94.0748 6.452386 8.624578
vertex -94.323808 6.452386 9.255472
endloop
endfacet
facet normal 2.72490290074798e-07 0.999999999999953 -1.39802929596274e-07
outer loop
vertex -93.2007369743349 6.45238825490467 15.95071
vertex -94.323808 6.452386 9.255472
vertex -94.606342 6.452388 9.826204
endloop
endfacet
facet normal 2.72490290074798e-07 0.999999999999953 -1.39802929596274e-07
outer loop
vertex -93.2007369743349 6.45238825490467 15.95071
vertex -94.606342 6.452388 9.826204
vertex -94.956337 6.452388 10.42516
endloop
endfacet
facet normal 2.72490290074798e-07 0.999999999999953 -1.39802929596274e-07
outer loop
vertex -93.2007369743349 6.45238825490467 15.95071
vertex -94.956337 6.452388 10.42516
vertex -95.40773 6.452388 11.14059
endloop
endfacet
facet normal 2.72490290074798e-07 0.999999999999953 -1.39802929596274e-07
outer loop
vertex -93.2007369743349 6.45238825490467 15.95071
vertex -95.40773 6.452388 11.14059
vertex -95.610916 6.452388 11.38614
endloop
endfacet
facet normal 2.72490290074798e-07 0.999999999999953 -1.39802929596274e-07
outer loop
vertex -93.2007369743349 6.45238825490467 15.95071
vertex -95.610916 6.452388 11.38614
vertex -95.836353 6.452388 11.53347
endloop
endfacet
facet normal 2.72490290074798e-07 0.999999999999953 -1.39802929596274e-07
outer loop
vertex -93.2007369743349 6.45238825490467 15.95071
vertex -95.836353 6.452388 11.53347
vertex -96.072918 6.452388 11.58256
endloop
endfacet
facet normal 2.72490290074798e-07 0.999999999999953 -1.39802929596274e-07
outer loop
vertex -93.2007369743349 6.45238825490467 15.95071
vertex -96.072918 6.452388 11.58256
vertex -100.89381 6.45239 15.95071
endloop
endfacet
facet normal -8.84398305058543e-08 -0.999999999999877 4.87358985983915e-07
outer loop
vertex -86.519405 -15.97948 1.907349e-06
vertex -95.423694 -15.97949 5.97724
vertex -96.072921 -15.97949 5.874413
endloop
endfacet
facet normal -8.84398305058543e-08 -0.999999999999877 4.87358985983915e-07
outer loop
vertex -95.423694 -15.97949 5.97724
vertex -86.519405 -15.97948 1.907349e-06
vertex -94.838016 -15.97949 6.275651
endloop
endfacet
facet normal -8.84398305058543e-08 -0.999999999999877 4.87358985983915e-07
outer loop
vertex -94.838016 -15.97949 6.275651
vertex -86.519405 -15.97948 1.907349e-06
vertex -94.37322 -15.97949 6.740457
endloop
endfacet
facet normal -8.84398305058543e-08 -0.999999999999877 4.87358985983915e-07
outer loop
vertex -94.37322 -15.97949 6.740457
vertex -86.519405 -15.97948 1.907349e-06
vertex -86.519405 -15.97948 15.95071
endloop
endfacet
facet normal -8.84398305058543e-08 -0.999999999999877 4.87358985983915e-07
outer loop
vertex -94.37322 -15.97949 6.740457
vertex -86.519405 -15.97948 15.95071
vertex -94.074804 -15.97949 7.326124
endloop
endfacet
facet normal -8.84398305058543e-08 -0.999999999999877 4.87358985983915e-07
outer loop
vertex -94.074804 -15.97949 7.326124
vertex -86.519405 -15.97948 15.95071
vertex -93.971977 -15.97949 7.975359
endloop
endfacet
facet normal -8.84398305058543e-08 -0.999999999999877 4.87358985983915e-07
outer loop
vertex -93.971977 -15.97949 7.975359
vertex -86.519405 -15.97948 15.95071
vertex -94.074804 -15.97949 8.62459
endloop
endfacet
facet normal -8.84398305058543e-08 -0.999999999999877 4.87358985983915e-07
outer loop
vertex -94.074804 -15.97949 8.62459
vertex -86.519405 -15.97948 15.95071
vertex -94.323812 -15.97948 9.255468
endloop
endfacet
facet normal -8.84398305058543e-08 -0.999999999999877 4.87358985983915e-07
outer loop
vertex -94.323812 -15.97948 9.255468
vertex -86.519405 -15.97948 15.95071
vertex -94.606346 -15.97949 9.826217
endloop
endfacet
facet normal -8.84398305058543e-08 -0.999999999999877 4.87358985983915e-07
outer loop
vertex -94.606346 -15.97949 9.826217
vertex -86.519405 -15.97948 15.95071
vertex -94.95634 -15.97948 10.42516
endloop
endfacet
facet normal -8.84398305058543e-08 -0.999999999999877 4.87358985983915e-07
outer loop
vertex -94.95634 -15.97948 10.42516
vertex -86.519405 -15.97948 15.95071
vertex -95.407735 -15.97948 11.14059
endloop
endfacet
facet normal -8.84398305058543e-08 -0.999999999999877 4.87358985983915e-07
outer loop
vertex -95.407735 -15.97948 11.14059
vertex -86.519405 -15.97948 15.95071
vertex -95.610921 -15.97948 11.38614
endloop
endfacet
facet normal -8.84398305058543e-08 -0.999999999999877 4.87358985983915e-07
outer loop
vertex -95.610921 -15.97948 11.38614
vertex -86.519405 -15.97948 15.95071
vertex -95.836361 -15.97948 11.53347
endloop
endfacet
facet normal -8.84398305058543e-08 -0.999999999999877 4.87358985983915e-07
outer loop
vertex -95.836361 -15.97948 11.53347
vertex -86.519405 -15.97948 15.95071
vertex -96.072923 -15.97948 11.58256
endloop
endfacet
facet normal -8.84398305058543e-08 -0.999999999999877 4.87358985983915e-07
outer loop
vertex -100.89382 -15.97948 0.0
vertex -98.071038 -15.97948 7.326138
vertex -100.89381 -15.97948 15.95071
endloop
endfacet
facet normal -8.84398305058543e-08 -0.999999999999877 4.87358985983915e-07
outer loop
vertex -98.071038 -15.97948 7.326138
vertex -100.89382 -15.97948 0.0
vertex -97.772623 -15.97948 6.740456
endloop
endfacet
facet normal -8.84398305058543e-08 -0.999999999999877 4.87358985983915e-07
outer loop
vertex -97.772623 -15.97948 6.740456
vertex -100.89382 -15.97948 0.0
vertex -97.307829 -15.97949 6.275665
endloop
endfacet
facet normal -8.84398305058543e-08 -0.999999999999877 4.87358985983915e-07
outer loop
vertex -97.307829 -15.97949 6.275665
vertex -100.89382 -15.97948 0.0
vertex -86.519405 -15.97948 1.907349e-06
endloop
endfacet
facet normal -8.84398305058543e-08 -0.999999999999877 4.87358985983915e-07
outer loop
vertex -97.307829 -15.97949 6.275665
vertex -86.519405 -15.97948 1.907349e-06
vertex -96.722152 -15.97949 5.97724
endloop
endfacet
facet normal -8.84398305058543e-08 -0.999999999999877 4.87358985983915e-07
outer loop
vertex -96.722152 -15.97949 5.97724
vertex -86.519405 -15.97948 1.907349e-06
vertex -96.072921 -15.97949 5.874413
endloop
endfacet
facet normal -8.84398305058543e-08 -0.999999999999877 4.87358985983915e-07
outer loop
vertex -100.89381 -15.97948 15.95071
vertex -98.071038 -15.97948 7.326138
vertex -98.173867 -15.97948 7.975357
endloop
endfacet
facet normal -8.84398305058543e-08 -0.999999999999877 4.87358985983915e-07
outer loop
vertex -100.89381 -15.97948 15.95071
vertex -98.173867 -15.97948 7.975357
vertex -98.071038 -15.97949 8.624576
endloop
endfacet
facet normal -8.84398305058543e-08 -0.999999999999877 4.87358985983915e-07
outer loop
vertex -100.89381 -15.97948 15.95071
vertex -98.071038 -15.97949 8.624576
vertex -97.822026 -15.97948 9.255453
endloop
endfacet
facet normal -8.84398305058543e-08 -0.999999999999877 4.87358985983915e-07
outer loop
vertex -100.89381 -15.97948 15.95071
vertex -97.822026 -15.97948 9.255453
vertex -97.539497 -15.97948 9.826217
endloop
endfacet
facet normal -8.84398305058543e-08 -0.999999999999877 4.87358985983915e-07
outer loop
vertex -100.89381 -15.97948 15.95071
vertex -97.539497 -15.97948 9.826217
vertex -97.189506 -15.97948 10.42514
endloop
endfacet
facet normal -8.84398305058543e-08 -0.999999999999877 4.87358985983915e-07
outer loop
vertex -100.89381 -15.97948 15.95071
vertex -97.189506 -15.97948 10.42514
vertex -96.738113 -15.97948 11.14059
endloop
endfacet
facet normal -8.84398305058543e-08 -0.999999999999877 4.87358985983915e-07
outer loop
vertex -100.89381 -15.97948 15.95071
vertex -96.738113 -15.97948 11.14059
vertex -96.534923 -15.97948 11.38614
endloop
endfacet
facet normal -8.84398305058543e-08 -0.999999999999877 4.87358985983915e-07
outer loop
vertex -100.89381 -15.97948 15.95071
vertex -96.534923 -15.97948 11.38614
vertex -96.309486 -15.97948 11.53347
endloop
endfacet
facet normal -8.84398305058543e-08 -0.999999999999877 4.87358985983915e-07
outer loop
vertex -100.89381 -15.97948 15.95071
vertex -96.309486 -15.97948 11.53347
vertex -96.072923 -15.97948 11.58256
endloop
endfacet
facet normal -8.84398305058543e-08 -0.999999999999877 4.87358985983915e-07
outer loop
vertex -100.89381 -15.97948 15.95071
vertex -96.072923 -15.97948 11.58256
vertex -86.519405 -15.97948 15.95071
endloop
endfacet
facet normal -0.999999999999996 7.90648583960379e-08 3.78813967097846e-08
outer loop
vertex -100.893808187295 17.2794958506839 15.9507192847422
vertex -100.89381 9.506591 7.629395e-06
vertex -100.89381 9.506589 15.95071
endloop
endfacet
facet normal -0.999999999999996 7.90648583960379e-08 3.78813967097846e-08
outer loop
vertex -100.89381 9.506591 7.629395e-06
vertex -100.893808187295 17.2794958506839 15.9507192847422
vertex -100.89381 17.27949 8.583069e-06
endloop
endfacet
facet normal 0.987687828512486 0.0 0.156437698168598
outer loop
vertex -98.071034 15.97949 7.326138
vertex -98.173863 15.97949 7.975361
vertex -98.071034 9.506591 7.326138
endloop
endfacet
facet normal 0.987687828512486 0.0 0.156437698168598
outer loop
vertex -98.173863 15.97949 7.975361
vertex -98.071034 15.97949 7.326138
vertex -98.071034 17.2794945839344 7.326138
endloop
endfacet
facet normal 0.987687828512486 0.0 0.156437698168598
outer loop
vertex -98.173863 15.97949 7.975361
vertex -98.071034 17.2794945839344 7.326138
vertex -98.173863 17.2794945839344 7.975361
endloop
endfacet
facet normal 0.987688768753093 6.10353270810122e-07 0.156431761732157
outer loop
vertex -98.173863 15.97949 7.975361
vertex -98.173859 9.506591 7.975361
vertex -98.071034 9.506591 7.326138
endloop
endfacet
facet normal 0.891008299145618 -3.4544083187049e-07 0.453987016172835
outer loop
vertex -97.772617 15.97949 6.740456
vertex -98.071034 15.97949 7.326138
vertex -97.772619 9.506591 6.740455
endloop
endfacet
facet normal 0.891008299145618 -3.4544083187049e-07 0.453987016172835
outer loop
vertex -98.071034 15.97949 7.326138
vertex -97.772617 15.97949 6.740456
vertex -97.772617 17.2794945839344 6.740456
endloop
endfacet
facet normal 0.891008299145618 -3.4544083187049e-07 0.453987016172835
outer loop
vertex -98.071034 15.97949 7.326138
vertex -97.772617 17.2794945839344 6.740456
vertex -98.071034 17.2794945839344 7.326138
endloop
endfacet
facet normal 0.891009843455258 4.09822733859987e-18 0.453983985252603
outer loop
vertex -98.071034 15.97949 7.326138
vertex -98.071034 9.506591 7.326138
vertex -97.772619 9.506591 6.740455
endloop
endfacet
facet normal 0.707105259847922 -1.09241361982666e-07 0.707108302521891
outer loop
vertex -97.307823 9.506591 6.275663
vertex -97.772617 17.2794945839344 6.740456
vertex -97.772617 15.97949 6.740456
endloop
endfacet
facet normal 0.707105259847922 -1.09241361982666e-07 0.707108302521891
outer loop
vertex -97.772617 17.2794945839344 6.740456
vertex -97.307823 9.506591 6.275663
vertex -97.307823 17.2794945839344 6.275664
endloop
endfacet
facet normal 0.707105259847922 -1.09241361982666e-07 0.707108302521891
outer loop
vertex -97.307823 17.2794945839344 6.275664
vertex -97.307823 9.506591 6.275663
vertex -97.307823 15.97949 6.275664
endloop
endfacet
facet normal 0.70710373851254 -3.27722910780874e-07 0.707109823847387
outer loop
vertex -97.307823 9.506591 6.275663
vertex -97.772617 15.97949 6.740456
vertex -97.772619 9.506591 6.740455
endloop
endfacet
facet normal 0.453999139799776 -2.77928081672224e-07 0.891002121804986
outer loop
vertex -96.722147 9.506591 5.977238
vertex -97.307823 17.2794945839344 6.275664
vertex -97.307823 15.97949 6.275664
endloop
endfacet
facet normal 0.453999139799776 -2.77928081672224e-07 0.891002121804986
outer loop
vertex -97.307823 17.2794945839344 6.275664
vertex -96.722147 9.506591 5.977238
vertex -96.722145 17.2794945839344 5.977239
endloop
endfacet
facet normal 0.453999139799776 -2.77928081672224e-07 0.891002121804986
outer loop
vertex -96.722145 17.2794945839344 5.977239
vertex -96.722147 9.506591 5.977238
vertex -96.722145 15.97949 5.977239
endloop
endfacet
facet normal 0.454000370591651 -1.37651073337179e-07 0.891001494669131
outer loop
vertex -96.722147 9.506591 5.977238
vertex -97.307823 15.97949 6.275664
vertex -97.307823 9.506591 6.275663
endloop
endfacet
facet normal 0.156432305616142 4.83345424092248e-08 0.987688682611892
outer loop
vertex -96.072916 9.506591 5.874413
vertex -96.722145 17.2794945839344 5.977239
vertex -96.722145 15.97949 5.977239
endloop
endfacet
facet normal 0.156432305616142 4.83345424092248e-08 0.987688682611892
outer loop
vertex -96.722145 17.2794945839344 5.977239
vertex -96.072916 9.506591 5.874413
vertex -96.072918 15.97949 5.874413
endloop
endfacet
facet normal 0.156432305616142 4.83345424092248e-08 0.987688682611892
outer loop
vertex -96.072918 17.2794945839344 5.874413
vertex -96.722145 17.2794945839344 5.977239
vertex -96.072918 15.97949 5.874413
endloop
endfacet
facet normal 0.156429881306815 -2.00922157075532e-07 0.987689066576266
outer loop
vertex -96.072916 9.506591 5.874413
vertex -96.722145 15.97949 5.977239
vertex -96.722147 9.506591 5.977238
endloop
endfacet
facet normal -0.156430586461099 1.28421340837966e-07 0.987688954893908
outer loop
vertex -95.423689 9.506591 5.977239
vertex -96.072918 17.2794945839344 5.874413
vertex -96.072918 15.97949 5.874413
endloop
endfacet
facet normal -0.156430586461099 1.28421340837966e-07 0.987688954893908
outer loop
vertex -96.072918 17.2794945839344 5.874413
vertex -95.423689 9.506591 5.977239
vertex -95.42369 15.97949 5.977238
endloop
endfacet
facet normal -0.156430586461099 1.28421340837966e-07 0.987688954893908
outer loop
vertex -95.42369 17.2794945839344 5.977238
vertex -96.072918 17.2794945839344 5.874413
vertex -95.42369 15.97949 5.977238
endloop
endfacet
facet normal -0.156432305616142 -4.83345424092247e-08 0.987688682611892
outer loop
vertex -95.423689 9.506591 5.977239
vertex -96.072918 15.97949 5.874413
vertex -96.072916 9.506591 5.874413
endloop
endfacet
facet normal -0.453981023256408 2.20244154006378e-06 0.8910113526315
outer loop
vertex -94.838012 9.506591 6.275664
vertex -95.42369 17.2794945839344 5.977238
vertex -95.42369 15.97949 5.977238
endloop
endfacet
facet normal -0.453981023256408 2.20244154006378e-06 0.8910113526315
outer loop
vertex -95.42369 17.2794945839344 5.977238
vertex -94.838012 9.506591 6.275664
vertex -94.838012 17.2794945839344 6.275648
endloop
endfacet
facet normal -0.453981023256408 2.20244154006378e-06 0.8910113526315
outer loop
vertex -94.838012 17.2794945839344 6.275648
vertex -94.838012 9.506591 6.275664
vertex -94.838012 15.97949 6.275648
endloop
endfacet
facet normal -0.453999755194998 6.75125709844872e-08 0.891001808237715
outer loop
vertex -94.838012 9.506591 6.275664
vertex -95.42369 15.97949 5.977238
vertex -95.423689 9.506591 5.977239
endloop
endfacet
facet normal -0.707116669648241 -6.11065609492023e-12 0.707096892586568
outer loop
vertex -94.373218 15.97949 6.740455
vertex -94.838012 15.97949 6.275648
vertex -94.373216 9.506591 6.740457
endloop
endfacet
facet normal -0.707116669648241 -6.11065609492023e-12 0.707096892586568
outer loop
vertex -94.838012 15.97949 6.275648
vertex -94.373218 15.97949 6.740455
vertex -94.373218 17.2794945839344 6.740455
endloop
endfacet
facet normal -0.707116669648241 -6.11065609492023e-12 0.707096892586568
outer loop
vertex -94.838012 15.97949 6.275648
vertex -94.373218 17.2794945839344 6.740455
vertex -94.838012 17.2794945839344 6.275648
endloop
endfacet
facet normal -0.707104499183672 1.74786367142931e-06 0.707109063179898
outer loop
vertex -94.373216 9.506591 6.740457
vertex -94.838012 15.97949 6.275648
vertex -94.838012 9.506591 6.275664
endloop
endfacet
facet normal -0.891003584018419 1.05731944282636e-06 0.453996270100553
outer loop
vertex -94.074802 15.97949 7.32612
vertex -94.373218 15.97949 6.740455
vertex -94.0748 9.506591 7.326139
endloop
endfacet
facet normal -0.891003584018419 1.05731944282636e-06 0.453996270100553
outer loop
vertex -94.373218 15.97949 6.740455
vertex -94.074802 15.97949 7.32612
vertex -94.074802 17.2794945839344 7.32612
endloop
endfacet
facet normal -0.891003584018419 1.05731944282636e-06 0.453996270100553
outer loop
vertex -94.373218 15.97949 6.740455
vertex -94.074802 17.2794945839344 7.32612
vertex -94.373218 17.2794945839344 6.740455
endloop
endfacet
facet normal -0.891008914527645 -1.35031646857491e-07 0.453985808404018
outer loop
vertex -94.373218 15.97949 6.740455
vertex -94.373216 9.506591 6.740457
vertex -94.0748 9.506591 7.326139
endloop
endfacet
facet normal -0.987688931521519 -8.67195999966131e-07 0.156430734029887
outer loop
vertex -93.971975 17.2794945839344 7.97536
vertex -94.074802 15.97949 7.32612
vertex -93.971969 9.506591 7.975362
endloop
endfacet
facet normal -0.987688931521519 -8.67195999966131e-07 0.156430734029887
outer loop
vertex -94.074802 15.97949 7.32612
vertex -93.971975 17.2794945839344 7.97536
vertex -94.074802 17.2794945839344 7.32612
endloop
endfacet
facet normal -0.987687358379371 1.54026494868528e-07 0.156440666380442
outer loop
vertex -94.074802 15.97949 7.32612
vertex -94.0748 9.506591 7.326139
vertex -93.971969 9.506591 7.975362
endloop
endfacet
endsolid Adapto Imports
