solid Default
  facet normal 1.000000e+00 -6.809960e-08 -1.224647e-16
    outer loop
      vertex 1.000000e+01 1.400411e+01 1.430511e-06
      vertex 9.999999e+00 -1.400411e+01 2.834471e+01
      vertex 9.999999e+00 -1.400411e+01 2.820001e+01
    endloop
  endfacet
  facet normal 1.000000e+00 0.000000e+00 6.763646e-08
    outer loop
      vertex 9.999999e+00 -1.400411e+01 2.820001e+01
      vertex 1.000000e+01 1.400240e+01 1.430511e-06
      vertex 1.000000e+01 1.400411e+01 1.430511e-06
    endloop
  endfacet
  facet normal 1.000000e+00 -6.811545e-08 -1.224647e-16
    outer loop
      vertex 1.000000e+01 1.399759e+01 1.430511e-06
      vertex 9.999999e+00 -1.400411e+01 2.780000e+01
      vertex 9.999999e+00 -1.400411e+01 2.330000e+01
    endloop
  endfacet
  facet normal 1.000000e+00 0.000000e+00 8.186045e-08
    outer loop
      vertex 9.999999e+00 -1.400411e+01 2.330000e+01
      vertex 1.000000e+01 1.393219e+01 1.430511e-06
      vertex 1.000000e+01 1.399759e+01 1.430511e-06
    endloop
  endfacet
  facet normal 1.000000e+00 2.770025e-08 1.156373e-07
    outer loop
      vertex 9.999999e+00 -1.400411e+01 2.294189e+01
      vertex 1.000000e+01 -1.400411e+01 6.447649e+00
      vertex 1.000000e+01 1.291219e+01 1.430511e-06
    endloop
  endfacet
  facet normal 1.000000e+00 0.000000e+00 8.313826e-08
    outer loop
      vertex 1.000000e+01 1.291219e+01 1.430511e-06
      vertex 1.000000e+01 1.392589e+01 1.430511e-06
      vertex 9.999999e+00 -1.400411e+01 2.294189e+01
    endloop
  endfacet
  facet normal 1.000000e+00 0.000000e+00 -1.224647e-16
    outer loop
      vertex 1.000000e+01 -1.400411e+01 6.447649e+00
      vertex 1.000000e+01 -1.400411e+01 6.000001e+00
      vertex 1.000000e+01 1.281070e+01 1.430511e-06
    endloop
  endfacet
  facet normal 1.000000e+00 0.000000e+00 -1.224647e-16
    outer loop
      vertex 1.000000e+01 1.281070e+01 1.430511e-06
      vertex 1.000000e+01 1.291219e+01 1.430511e-06
      vertex 1.000000e+01 -1.400411e+01 6.447649e+00
    endloop
  endfacet
  facet normal 1.000000e+00 0.000000e+00 -1.224647e-16
    outer loop
      vertex 1.000000e+01 1.281070e+01 1.430511e-06
      vertex 1.000000e+01 -1.400411e+01 6.000001e+00
      vertex 1.000000e+01 1.267373e+01 1.430511e-06
    endloop
  endfacet
  facet normal 1.000000e+00 -6.827492e-08 -1.224647e-16
    outer loop
      vertex 1.000000e+01 1.393219e+01 1.430511e-06
      vertex 9.999999e+00 -1.400411e+01 2.330000e+01
      vertex 9.999999e+00 -1.400411e+01 2.294189e+01
    endloop
  endfacet
  facet normal 1.000000e+00 0.000000e+00 8.313826e-08
    outer loop
      vertex 9.999999e+00 -1.400411e+01 2.294189e+01
      vertex 1.000000e+01 1.392589e+01 1.430511e-06
      vertex 1.000000e+01 1.393219e+01 1.430511e-06
    endloop
  endfacet
  facet normal 1.000000e+00 -6.810375e-08 -1.224647e-16
    outer loop
      vertex 1.000000e+01 1.400240e+01 1.430511e-06
      vertex 9.999999e+00 -1.400411e+01 2.820001e+01
      vertex 9.999999e+00 -1.400411e+01 2.780000e+01
    endloop
  endfacet
  facet normal 1.000000e+00 0.000000e+00 6.860966e-08
    outer loop
      vertex 9.999999e+00 -1.400411e+01 2.780000e+01
      vertex 1.000000e+01 1.399759e+01 1.430511e-06
      vertex 1.000000e+01 1.400240e+01 1.430511e-06
    endloop
  endfacet
  facet normal 1.000000e+00 0.000000e+00 -1.224647e-16
    outer loop
      vertex 1.000000e+01 1.267373e+01 1.430511e-06
      vertex 1.000000e+01 -1.400411e+01 6.000001e+00
      vertex 1.000000e+01 -1.400411e+01 1.430511e-06
    endloop
  endfacet
  facet normal -0.000000e+00 -1.000000e+00 0.000000e+00
    outer loop
      vertex -2.750001e+00 -1.400411e+01 4.768372e-07
      vertex -2.750001e+00 -1.400411e+01 2.820000e+01
      vertex -9.914403e+00 -1.400411e+01 4.440892e-16
    endloop
  endfacet
  facet normal 0.000000e+00 -1.000000e+00 0.000000e+00
    outer loop
      vertex -9.914403e+00 -1.400411e+01 4.440892e-16
      vertex -2.750001e+00 -1.400411e+01 2.820000e+01
      vertex -1.000000e+01 -1.400411e+01 2.834470e+01
    endloop
  endfacet
  facet normal -0.000000e+00 -1.000000e+00 0.000000e+00
    outer loop
      vertex -1.000000e+01 -1.400411e+01 2.834470e+01
      vertex -9.999997e+00 -1.400411e+01 4.440892e-16
      vertex -9.914403e+00 -1.400411e+01 4.440892e-16
    endloop
  endfacet
  facet normal -0.000000e+00 -1.000000e+00 0.000000e+00
    outer loop
      vertex 9.999999e+00 -1.400411e+01 2.820001e+01
      vertex 9.999999e+00 -1.400411e+01 2.834471e+01
      vertex -2.750001e+00 -1.400411e+01 2.820000e+01
    endloop
  endfacet
  facet normal -0.000000e+00 -1.000000e+00 0.000000e+00
    outer loop
      vertex 9.999999e+00 -1.400411e+01 2.834471e+01
      vertex -1.000000e+01 -1.400411e+01 2.834470e+01
      vertex -2.750001e+00 -1.400411e+01 2.820000e+01
    endloop
  endfacet
  facet normal -6.537889e-03 7.070917e-01 7.070916e-01
    outer loop
      vertex -9.945386e+00 1.400411e+01 4.440892e-16
      vertex -6.000001e+00 -1.030411e+01 2.434470e+01
      vertex -6.000001e+00 1.034059e+01 3.700001e+00
    endloop
  endfacet
  facet normal 8.616554e-17 7.106012e-01 7.035950e-01
    outer loop
      vertex -6.000001e+00 1.034059e+01 3.700001e+00
      vertex -9.663522e+00 1.400411e+01 4.440892e-16
      vertex -9.945386e+00 1.400411e+01 4.440892e-16
    endloop
  endfacet
  facet normal 8.616555e-17 7.106012e-01 7.035951e-01
    outer loop
      vertex 1.000000e+01 1.400411e+01 1.430511e-06
      vertex 9.663522e+00 1.400411e+01 1.430511e-06
      vertex 5.999999e+00 1.034059e+01 3.700002e+00
    endloop
  endfacet
  facet normal -1.323669e-03 7.113156e-01 7.028716e-01
    outer loop
      vertex 5.999999e+00 1.034059e+01 3.700002e+00
      vertex 9.999999e+00 -1.400411e+01 2.834471e+01
      vertex 1.000000e+01 1.400411e+01 1.430511e-06
    endloop
  endfacet
  facet normal -5.494718e-08 7.106012e-01 7.035950e-01
    outer loop
      vertex -8.654084e+00 1.400411e+01 0.000000e+00
      vertex 5.999999e+00 1.034059e+01 3.700002e+00
      vertex 9.663522e+00 1.400411e+01 1.430511e-06
    endloop
  endfacet
  facet normal -6.475849e-08 7.340994e-01 6.790420e-01
    outer loop
      vertex -1.000000e+01 -1.400411e+01 2.834470e+01
      vertex 9.999999e+00 -1.400411e+01 2.834471e+01
      vertex 5.999999e+00 -1.030411e+01 2.434471e+01
    endloop
  endfacet
  facet normal -1.079308e-07 7.340995e-01 6.790419e-01
    outer loop
      vertex -1.000000e+01 -1.400411e+01 2.834470e+01
      vertex 5.999999e+00 -1.030411e+01 2.434471e+01
      vertex -6.000001e+00 -1.030411e+01 2.434470e+01
    endloop
  endfacet
  facet normal 4.485948e-02 7.106001e-01 7.021646e-01
    outer loop
      vertex -9.999997e+00 1.400411e+01 4.440892e-16
      vertex -1.000000e+01 -1.400411e+01 2.834470e+01
      vertex -6.000001e+00 -1.030411e+01 2.434470e+01
    endloop
  endfacet
  facet normal 8.653065e-17 7.076368e-01 7.065763e-01
    outer loop
      vertex -6.000001e+00 -1.030411e+01 2.434470e+01
      vertex -9.945386e+00 1.400411e+01 4.440892e-16
      vertex -9.999997e+00 1.400411e+01 4.440892e-16
    endloop
  endfacet
  facet normal -5.591671e-08 7.106012e-01 7.035950e-01
    outer loop
      vertex -6.000001e+00 1.034059e+01 3.700001e+00
      vertex 5.999999e+00 1.034059e+01 3.700002e+00
      vertex -8.654084e+00 1.400411e+01 0.000000e+00
    endloop
  endfacet
  facet normal 8.616554e-17 7.106012e-01 7.035950e-01
    outer loop
      vertex -8.654084e+00 1.400411e+01 0.000000e+00
      vertex -9.663522e+00 1.400411e+01 4.440892e-16
      vertex -6.000001e+00 1.034059e+01 3.700001e+00
    endloop
  endfacet
  facet normal -5.295854e-02 7.061145e-01 7.061145e-01
    outer loop
      vertex 5.999999e+00 -1.030411e+01 2.434471e+01
      vertex 9.999999e+00 -1.400411e+01 2.834471e+01
      vertex 5.999999e+00 1.034059e+01 3.700002e+00
    endloop
  endfacet
  facet normal 0.000000e+00 -1.000000e+00 0.000000e+00
    outer loop
      vertex 3.137218e+00 -1.400411e+01 9.536743e-07
      vertex 1.000000e+01 -1.400411e+01 6.000001e+00
      vertex 2.749999e+00 -1.400411e+01 6.000000e+00
    endloop
  endfacet
  facet normal -0.000000e+00 -1.000000e+00 0.000000e+00
    outer loop
      vertex 2.749999e+00 -1.400411e+01 6.000000e+00
      vertex 2.750003e+00 -1.400411e+01 9.536743e-07
      vertex 3.137218e+00 -1.400411e+01 9.536743e-07
    endloop
  endfacet
  facet normal -0.000000e+00 -1.000000e+00 0.000000e+00
    outer loop
      vertex 1.000000e+01 -1.400411e+01 1.430511e-06
      vertex 1.000000e+01 -1.400411e+01 6.000001e+00
      vertex 3.137218e+00 -1.400411e+01 9.536743e-07
    endloop
  endfacet
  facet normal -0.000000e+00 -1.000000e+00 0.000000e+00
    outer loop
      vertex 9.999999e+00 -1.400411e+01 2.780000e+01
      vertex 2.749999e+00 -1.400411e+01 2.780000e+01
      vertex 2.749999e+00 -1.400411e+01 2.330000e+01
    endloop
  endfacet
  facet normal -0.000000e+00 -1.000000e+00 0.000000e+00
    outer loop
      vertex 9.999999e+00 -1.400411e+01 2.330000e+01
      vertex 9.999999e+00 -1.400411e+01 2.780000e+01
      vertex 2.749999e+00 -1.400411e+01 2.330000e+01
    endloop
  endfacet
  facet normal -3.826686e-01 -5.763127e-07 9.238856e-01
    outer loop
      vertex 1.767768e+00 -1.030411e+01 1.293220e+01
      vertex -9.536743e-07 -1.030411e+01 1.220000e+01
      vertex 1.763362e+00 -1.400411e+01 1.293037e+01
    endloop
  endfacet
  facet normal -3.830816e-01 0.000000e+00 9.237145e-01
    outer loop
      vertex 1.763362e+00 -1.400411e+01 1.293037e+01
      vertex 1.767768e+00 -1.400411e+01 1.293220e+01
      vertex 1.767768e+00 -1.030411e+01 1.293220e+01
    endloop
  endfacet
  facet normal -3.826676e-01 0.000000e+00 9.238861e-01
    outer loop
      vertex 1.763362e+00 -1.400411e+01 1.293037e+01
      vertex -9.536743e-07 -1.030411e+01 1.220000e+01
      vertex -9.536743e-07 -1.400411e+01 1.220000e+01
    endloop
  endfacet
  facet normal 3.826630e-01 -1.896555e-07 9.238880e-01
    outer loop
      vertex -1.763391e+00 -1.400411e+01 1.293037e+01
      vertex -9.536743e-07 -1.030411e+01 1.220000e+01
      vertex -1.767800e+00 -1.030411e+01 1.293220e+01
    endloop
  endfacet
  facet normal 3.827988e-01 -0.000000e+00 9.238318e-01
    outer loop
      vertex -1.767800e+00 -1.030411e+01 1.293220e+01
      vertex -1.767800e+00 -1.400411e+01 1.293220e+01
      vertex -1.763391e+00 -1.400411e+01 1.293037e+01
    endloop
  endfacet
  facet normal 3.826626e-01 0.000000e+00 9.238881e-01
    outer loop
      vertex -9.536743e-07 -1.400411e+01 1.220000e+01
      vertex -9.536743e-07 -1.030411e+01 1.220000e+01
      vertex -1.763391e+00 -1.400411e+01 1.293037e+01
    endloop
  endfacet
  facet normal -9.238824e-01 -7.816304e-07 3.826764e-01
    outer loop
      vertex 2.499999e+00 -1.030411e+01 1.470000e+01
      vertex 1.767768e+00 -1.030411e+01 1.293220e+01
      vertex 2.498176e+00 -1.400411e+01 1.469559e+01
    endloop
  endfacet
  facet normal -9.241142e-01 0.000000e+00 3.821164e-01
    outer loop
      vertex 2.498176e+00 -1.400411e+01 1.469559e+01
      vertex 2.499999e+00 -1.400411e+01 1.470000e+01
      vertex 2.499999e+00 -1.030411e+01 1.470000e+01
    endloop
  endfacet
  facet normal -9.238818e-01 0.000000e+00 3.826778e-01
    outer loop
      vertex 2.498176e+00 -1.400411e+01 1.469559e+01
      vertex 1.767768e+00 -1.030411e+01 1.293220e+01
      vertex 1.767768e+00 -1.400411e+01 1.293220e+01
    endloop
  endfacet
  facet normal -9.238824e-01 -5.651850e-07 -3.826766e-01
    outer loop
      vertex 1.767768e+00 -1.030411e+01 1.646780e+01
      vertex 2.499999e+00 -1.030411e+01 1.470000e+01
      vertex 1.769595e+00 -1.400411e+01 1.646340e+01
    endloop
  endfacet
  facet normal -9.237145e-01 0.000000e+00 -3.830816e-01
    outer loop
      vertex 1.769595e+00 -1.400411e+01 1.646340e+01
      vertex 1.767768e+00 -1.400411e+01 1.646780e+01
      vertex 1.767768e+00 -1.030411e+01 1.646780e+01
    endloop
  endfacet
  facet normal -9.238828e-01 0.000000e+00 -3.826756e-01
    outer loop
      vertex 1.769595e+00 -1.400411e+01 1.646340e+01
      vertex 2.499999e+00 -1.030411e+01 1.470000e+01
      vertex 2.499999e+00 -1.400411e+01 1.470000e+01
    endloop
  endfacet
  facet normal -3.826686e-01 1.817817e-07 -9.238856e-01
    outer loop
      vertex -9.536743e-07 -1.030411e+01 1.720000e+01
      vertex 1.767768e+00 -1.030411e+01 1.646780e+01
      vertex 4.408836e-03 -1.400411e+01 1.719817e+01
    endloop
  endfacet
  facet normal -3.827988e-01 0.000000e+00 -9.238318e-01
    outer loop
      vertex 4.408836e-03 -1.400411e+01 1.719817e+01
      vertex -9.536743e-07 -1.400411e+01 1.720000e+01
      vertex -9.536743e-07 -1.030411e+01 1.720000e+01
    endloop
  endfacet
  facet normal -3.826683e-01 0.000000e+00 -9.238858e-01
    outer loop
      vertex 4.408836e-03 -1.400411e+01 1.719817e+01
      vertex 1.767768e+00 -1.030411e+01 1.646780e+01
      vertex 1.767768e+00 -1.400411e+01 1.646780e+01
    endloop
  endfacet
  facet normal 3.826630e-01 1.896555e-07 -9.238880e-01
    outer loop
      vertex -4.410744e-03 -1.400411e+01 1.719817e+01
      vertex -1.767800e+00 -1.030411e+01 1.646780e+01
      vertex -9.536743e-07 -1.030411e+01 1.720000e+01
    endloop
  endfacet
  facet normal 3.827988e-01 0.000000e+00 -9.238318e-01
    outer loop
      vertex -9.536743e-07 -1.030411e+01 1.720000e+01
      vertex -9.536743e-07 -1.400411e+01 1.720000e+01
      vertex -4.410744e-03 -1.400411e+01 1.719817e+01
    endloop
  endfacet
  facet normal 3.826626e-01 0.000000e+00 -9.238881e-01
    outer loop
      vertex -1.767800e+00 -1.400411e+01 1.646780e+01
      vertex -1.767800e+00 -1.030411e+01 1.646780e+01
      vertex -4.410744e-03 -1.400411e+01 1.719817e+01
    endloop
  endfacet
  facet normal 9.238880e-01 -5.841807e-07 -3.826630e-01
    outer loop
      vertex -1.769628e+00 -1.400411e+01 1.646340e+01
      vertex -2.500001e+00 -1.030411e+01 1.470000e+01
      vertex -1.767800e+00 -1.030411e+01 1.646780e+01
    endloop
  endfacet
  facet normal 9.237145e-01 0.000000e+00 -3.830816e-01
    outer loop
      vertex -1.767800e+00 -1.030411e+01 1.646780e+01
      vertex -1.767800e+00 -1.400411e+01 1.646780e+01
      vertex -1.769628e+00 -1.400411e+01 1.646340e+01
    endloop
  endfacet
  facet normal 9.238884e-01 0.000000e+00 -3.826619e-01
    outer loop
      vertex -2.500001e+00 -1.400411e+01 1.470000e+01
      vertex -2.500001e+00 -1.030411e+01 1.470000e+01
      vertex -1.769628e+00 -1.400411e+01 1.646340e+01
    endloop
  endfacet
  facet normal 9.238881e-01 1.899015e-07 3.826628e-01
    outer loop
      vertex -2.498174e+00 -1.400411e+01 1.469559e+01
      vertex -1.767800e+00 -1.030411e+01 1.293220e+01
      vertex -2.500001e+00 -1.030411e+01 1.470000e+01
    endloop
  endfacet
  facet normal 9.238318e-01 -0.000000e+00 3.827988e-01
    outer loop
      vertex -2.500001e+00 -1.030411e+01 1.470000e+01
      vertex -2.500001e+00 -1.400411e+01 1.470000e+01
      vertex -2.498174e+00 -1.400411e+01 1.469559e+01
    endloop
  endfacet
  facet normal 9.238882e-01 0.000000e+00 3.826625e-01
    outer loop
      vertex -1.767800e+00 -1.400411e+01 1.293220e+01
      vertex -1.767800e+00 -1.030411e+01 1.293220e+01
      vertex -2.498174e+00 -1.400411e+01 1.469559e+01
    endloop
  endfacet
  facet normal -1.000000e+00 0.000000e+00 -1.345824e-07
    outer loop
      vertex -9.999997e+00 -1.400411e+01 4.440892e-16
      vertex -1.000000e+01 -1.400411e+01 2.834470e+01
      vertex -9.999997e+00 1.400411e+01 4.440892e-16
    endloop
  endfacet
  facet normal -1.362392e-07 0.000000e+00 1.000000e+00
    outer loop
      vertex -2.500001e+00 6.958909e-01 3.700001e+00
      vertex -6.000001e+00 1.034059e+01 3.700001e+00
      vertex -6.000001e+00 -1.030411e+01 3.700001e+00
    endloop
  endfacet
  facet normal -6.362312e-08 2.635191e-08 1.000000e+00
    outer loop
      vertex -2.500001e+00 6.958909e-01 3.700001e+00
      vertex -1.767800e+00 2.463690e+00 3.700001e+00
      vertex -6.000001e+00 1.034059e+01 3.700001e+00
    endloop
  endfacet
  facet normal -7.947286e-08 0.000000e+00 1.000000e+00
    outer loop
      vertex 5.999999e+00 -1.030411e+01 3.700002e+00
      vertex -9.536743e-07 -1.804109e+00 3.700001e+00
      vertex -6.000001e+00 -1.030411e+01 3.700001e+00
    endloop
  endfacet
  facet normal -5.918991e-08 -2.451567e-08 1.000000e+00
    outer loop
      vertex -1.767800e+00 -1.071912e+00 3.700001e+00
      vertex -2.500001e+00 6.958909e-01 3.700001e+00
      vertex -6.000001e+00 -1.030411e+01 3.700001e+00
    endloop
  endfacet
  facet normal -2.206373e-07 1.185475e-07 1.000000e+00
    outer loop
      vertex -9.536743e-07 3.195891e+00 3.700001e+00
      vertex 1.767772e+00 2.463690e+00 3.700002e+00
      vertex 5.999999e+00 1.034059e+01 3.700002e+00
    endloop
  endfacet
  facet normal -7.947286e-08 1.783596e-08 1.000000e+00
    outer loop
      vertex 5.999999e+00 1.034059e+01 3.700002e+00
      vertex -6.000001e+00 1.034059e+01 3.700001e+00
      vertex -1.767800e+00 2.463690e+00 3.700001e+00
    endloop
  endfacet
  facet normal 1.224647e-16 0.000000e+00 1.000000e+00
    outer loop
      vertex 1.767772e+00 2.463690e+00 3.700002e+00
      vertex 2.499999e+00 6.958909e-01 3.700002e+00
      vertex 5.999999e+00 1.034059e+01 3.700002e+00
    endloop
  endfacet
  facet normal 4.238586e-08 -1.023349e-07 1.000000e+00
    outer loop
      vertex 5.999999e+00 1.034059e+01 3.700002e+00
      vertex -1.767800e+00 2.463690e+00 3.700001e+00
      vertex -9.536743e-07 3.195891e+00 3.700001e+00
    endloop
  endfacet
  facet normal 1.224647e-16 0.000000e+00 1.000000e+00
    outer loop
      vertex 5.999999e+00 -1.030411e+01 3.700002e+00
      vertex 5.999999e+00 1.034059e+01 3.700002e+00
      vertex 2.499999e+00 6.958909e-01 3.700002e+00
    endloop
  endfacet
  facet normal -2.266954e-07 -1.039218e-07 1.000000e+00
    outer loop
      vertex 5.999999e+00 -1.030411e+01 3.700002e+00
      vertex 1.767772e+00 -1.071912e+00 3.700002e+00
      vertex -9.536743e-07 -1.804109e+00 3.700001e+00
    endloop
  endfacet
  facet normal 1.224647e-16 0.000000e+00 1.000000e+00
    outer loop
      vertex 5.999999e+00 -1.030411e+01 3.700002e+00
      vertex 2.499999e+00 6.958909e-01 3.700002e+00
      vertex 1.767772e+00 -1.071912e+00 3.700002e+00
    endloop
  endfacet
  facet normal -1.797878e-08 -4.340757e-08 1.000000e+00
    outer loop
      vertex -9.536743e-07 -1.804109e+00 3.700001e+00
      vertex -1.767800e+00 -1.071912e+00 3.700001e+00
      vertex -6.000001e+00 -1.030411e+01 3.700001e+00
    endloop
  endfacet
  facet normal -1.000000e+00 0.000000e+00 1.224647e-16
    outer loop
      vertex 5.999999e+00 -1.030411e+01 2.434471e+01
      vertex 5.999999e+00 1.034059e+01 3.700002e+00
      vertex 5.999999e+00 -1.030411e+01 3.700002e+00
    endloop
  endfacet
  facet normal 1.000000e+00 0.000000e+00 -1.224647e-16
    outer loop
      vertex -6.000001e+00 1.034059e+01 3.700001e+00
      vertex -6.000001e+00 -1.030411e+01 2.434470e+01
      vertex -6.000001e+00 -1.030411e+01 3.700001e+00
    endloop
  endfacet
  facet normal 0.000000e+00 1.000000e+00 0.000000e+00
    outer loop
      vertex 2.499999e+00 -1.030411e+01 1.470000e+01
      vertex 5.999999e+00 -1.030411e+01 2.434471e+01
      vertex 5.999999e+00 -1.030411e+01 3.700002e+00
    endloop
  endfacet
  facet normal 0.000000e+00 1.000000e+00 0.000000e+00
    outer loop
      vertex -9.536743e-07 -1.030411e+01 1.720000e+01
      vertex 5.999999e+00 -1.030411e+01 2.434471e+01
      vertex 1.767768e+00 -1.030411e+01 1.646780e+01
    endloop
  endfacet
  facet normal 0.000000e+00 1.000000e+00 0.000000e+00
    outer loop
      vertex -6.000001e+00 -1.030411e+01 3.700001e+00
      vertex 1.767768e+00 -1.030411e+01 1.293220e+01
      vertex 5.999999e+00 -1.030411e+01 3.700002e+00
    endloop
  endfacet
  facet normal 0.000000e+00 1.000000e+00 0.000000e+00
    outer loop
      vertex 1.767768e+00 -1.030411e+01 1.293220e+01
      vertex 2.499999e+00 -1.030411e+01 1.470000e+01
      vertex 5.999999e+00 -1.030411e+01 3.700002e+00
    endloop
  endfacet
  facet normal 0.000000e+00 1.000000e+00 0.000000e+00
    outer loop
      vertex -6.000001e+00 -1.030411e+01 2.434470e+01
      vertex 5.999999e+00 -1.030411e+01 2.434471e+01
      vertex -9.536743e-07 -1.030411e+01 1.720000e+01
    endloop
  endfacet
  facet normal 0.000000e+00 1.000000e+00 0.000000e+00
    outer loop
      vertex -6.000001e+00 -1.030411e+01 2.434470e+01
      vertex -9.536743e-07 -1.030411e+01 1.720000e+01
      vertex -1.767800e+00 -1.030411e+01 1.646780e+01
    endloop
  endfacet
  facet normal 0.000000e+00 1.000000e+00 0.000000e+00
    outer loop
      vertex -6.000001e+00 -1.030411e+01 2.434470e+01
      vertex -1.767800e+00 -1.030411e+01 1.646780e+01
      vertex -2.500001e+00 -1.030411e+01 1.470000e+01
    endloop
  endfacet
  facet normal 0.000000e+00 1.000000e+00 0.000000e+00
    outer loop
      vertex -6.000001e+00 -1.030411e+01 2.434470e+01
      vertex -2.500001e+00 -1.030411e+01 1.470000e+01
      vertex -6.000001e+00 -1.030411e+01 3.700001e+00
    endloop
  endfacet
  facet normal 0.000000e+00 1.000000e+00 0.000000e+00
    outer loop
      vertex -1.767800e+00 -1.030411e+01 1.293220e+01
      vertex -6.000001e+00 -1.030411e+01 3.700001e+00
      vertex -2.500001e+00 -1.030411e+01 1.470000e+01
    endloop
  endfacet
  facet normal 0.000000e+00 1.000000e+00 0.000000e+00
    outer loop
      vertex -9.536743e-07 -1.030411e+01 1.220000e+01
      vertex -6.000001e+00 -1.030411e+01 3.700001e+00
      vertex -1.767800e+00 -1.030411e+01 1.293220e+01
    endloop
  endfacet
  facet normal 0.000000e+00 1.000000e+00 0.000000e+00
    outer loop
      vertex -6.000001e+00 -1.030411e+01 3.700001e+00
      vertex -9.536743e-07 -1.030411e+01 1.220000e+01
      vertex 1.767768e+00 -1.030411e+01 1.293220e+01
    endloop
  endfacet
  facet normal 0.000000e+00 1.000000e+00 0.000000e+00
    outer loop
      vertex 1.767768e+00 -1.030411e+01 1.646780e+01
      vertex 5.999999e+00 -1.030411e+01 2.434471e+01
      vertex 2.499999e+00 -1.030411e+01 1.470000e+01
    endloop
  endfacet
  facet normal -9.238834e-01 3.826742e-01 -1.005541e-06
    outer loop
      vertex 2.436736e+00 5.431466e-01 9.536743e-07
      vertex 1.767772e+00 -1.071912e+00 3.700002e+00
      vertex 2.499999e+00 6.958909e-01 3.700002e+00
    endloop
  endfacet
  facet normal -9.238838e-01 3.826731e-01 -9.525234e-07
    outer loop
      vertex 2.499999e+00 6.958909e-01 3.700002e+00
      vertex 2.500003e+00 6.958909e-01 9.536743e-07
      vertex 2.436736e+00 5.431466e-01 9.536743e-07
    endloop
  endfacet
  facet normal -9.238825e-01 3.826762e-01 1.131430e-16
    outer loop
      vertex 1.767772e+00 -1.071912e+00 7.152557e-07
      vertex 1.767772e+00 -1.071912e+00 3.700002e+00
      vertex 2.436736e+00 5.431466e-01 9.536743e-07
    endloop
  endfacet
  facet normal -3.826662e-01 9.238867e-01 -3.326856e-07
    outer loop
      vertex 1.615027e+00 -1.135179e+00 7.152557e-07
      vertex -9.536743e-07 -1.804109e+00 3.700001e+00
      vertex 1.767772e+00 -1.071912e+00 3.700002e+00
    endloop
  endfacet
  facet normal -3.826731e-01 9.238838e-01 4.686394e-17
    outer loop
      vertex 1.767772e+00 -1.071912e+00 3.700002e+00
      vertex 1.767772e+00 -1.071912e+00 7.152557e-07
      vertex 1.615027e+00 -1.135179e+00 7.152557e-07
    endloop
  endfacet
  facet normal -3.826655e-01 9.238870e-01 4.686301e-17
    outer loop
      vertex -9.536743e-07 -1.804109e+00 7.152557e-07
      vertex -9.536743e-07 -1.804109e+00 3.700001e+00
      vertex 1.615027e+00 -1.135179e+00 7.152557e-07
    endloop
  endfacet
  facet normal 3.826613e-01 9.238887e-01 -5.713078e-07
    outer loop
      vertex -1.767800e+00 -1.071912e+00 3.700001e+00
      vertex -9.536743e-07 -1.804109e+00 3.700001e+00
      vertex -1.615056e+00 -1.135179e+00 4.768372e-07
    endloop
  endfacet
  facet normal 3.826731e-01 9.238838e-01 -4.686394e-17
    outer loop
      vertex -1.615056e+00 -1.135179e+00 4.768372e-07
      vertex -1.767800e+00 -1.071912e+00 4.768372e-07
      vertex -1.767800e+00 -1.071912e+00 3.700001e+00
    endloop
  endfacet
  facet normal 3.826602e-01 9.238892e-01 -4.686235e-17
    outer loop
      vertex -1.615056e+00 -1.135179e+00 4.768372e-07
      vertex -9.536743e-07 -1.804109e+00 3.700001e+00
      vertex -9.536743e-07 -1.804109e+00 7.152557e-07
    endloop
  endfacet
  facet normal 9.238883e-01 3.826623e-01 5.230940e-07
    outer loop
      vertex -2.500001e+00 6.958909e-01 3.700001e+00
      vertex -1.767800e+00 -1.071912e+00 3.700001e+00
      vertex -2.436734e+00 5.431466e-01 4.768372e-07
    endloop
  endfacet
  facet normal 9.238838e-01 3.826731e-01 -1.131431e-16
    outer loop
      vertex -2.436734e+00 5.431466e-01 4.768372e-07
      vertex -2.500001e+00 6.958909e-01 4.768372e-07
      vertex -2.500001e+00 6.958909e-01 3.700001e+00
    endloop
  endfacet
  facet normal 9.238887e-01 3.826613e-01 -1.131437e-16
    outer loop
      vertex -2.436734e+00 5.431466e-01 4.768372e-07
      vertex -1.767800e+00 -1.071912e+00 3.700001e+00
      vertex -1.767800e+00 -1.071912e+00 4.768372e-07
    endloop
  endfacet
  facet normal 9.238880e-01 -3.826630e-01 4.635222e-07
    outer loop
      vertex -1.767800e+00 2.463690e+00 3.700001e+00
      vertex -2.500001e+00 6.958909e-01 3.700001e+00
      vertex -1.831063e+00 2.310946e+00 4.768372e-07
    endloop
  endfacet
  facet normal 9.238920e-01 -3.826534e-01 -1.131441e-16
    outer loop
      vertex -1.831063e+00 2.310946e+00 4.768372e-07
      vertex -1.767800e+00 2.463690e+00 4.768372e-07
      vertex -1.767800e+00 2.463690e+00 3.700001e+00
    endloop
  endfacet
  facet normal 9.238876e-01 -3.826639e-01 -1.131436e-16
    outer loop
      vertex -1.831063e+00 2.310946e+00 4.768372e-07
      vertex -2.500001e+00 6.958909e-01 3.700001e+00
      vertex -2.500001e+00 6.958909e-01 4.768372e-07
    endloop
  endfacet
  facet normal 3.826630e-01 -9.238880e-01 4.890055e-07
    outer loop
      vertex -9.536743e-07 3.195891e+00 3.700001e+00
      vertex -1.767800e+00 2.463690e+00 3.700001e+00
      vertex -1.527452e-01 3.132624e+00 7.152557e-07
    endloop
  endfacet
  facet normal 3.826731e-01 -9.238838e-01 -4.686394e-17
    outer loop
      vertex -1.527452e-01 3.132624e+00 7.152557e-07
      vertex -9.536743e-07 3.195891e+00 7.152557e-07
      vertex -9.536743e-07 3.195891e+00 3.700001e+00
    endloop
  endfacet
  facet normal 3.826620e-01 -9.238884e-01 -4.686258e-17
    outer loop
      vertex -1.527452e-01 3.132624e+00 7.152557e-07
      vertex -1.767800e+00 2.463690e+00 3.700001e+00
      vertex -1.767800e+00 2.463690e+00 4.768372e-07
    endloop
  endfacet
  facet normal -3.826679e-01 -9.238859e-01 2.503825e-07
    outer loop
      vertex 1.527433e-01 3.132624e+00 7.152557e-07
      vertex 1.767772e+00 2.463690e+00 3.700002e+00
      vertex -9.536743e-07 3.195891e+00 3.700001e+00
    endloop
  endfacet
  facet normal -3.826731e-01 -9.238838e-01 4.686394e-17
    outer loop
      vertex -9.536743e-07 3.195891e+00 3.700001e+00
      vertex -9.536743e-07 3.195891e+00 7.152557e-07
      vertex 1.527433e-01 3.132624e+00 7.152557e-07
    endloop
  endfacet
  facet normal -3.826674e-01 -9.238862e-01 4.686324e-17
    outer loop
      vertex 1.767772e+00 2.463690e+00 7.152557e-07
      vertex 1.767772e+00 2.463690e+00 3.700002e+00
      vertex 1.527433e-01 3.132624e+00 7.152557e-07
    endloop
  endfacet
  facet normal -9.238831e-01 -3.826749e-01 8.710700e-08
    outer loop
      vertex 1.831038e+00 2.310946e+00 7.152557e-07
      vertex 2.499999e+00 6.958909e-01 3.700002e+00
      vertex 1.767772e+00 2.463690e+00 3.700002e+00
    endloop
  endfacet
  facet normal -9.238838e-01 -3.826731e-01 1.131431e-16
    outer loop
      vertex 1.767772e+00 2.463690e+00 3.700002e+00
      vertex 1.767772e+00 2.463690e+00 7.152557e-07
      vertex 1.831038e+00 2.310946e+00 7.152557e-07
    endloop
  endfacet
  facet normal -9.238822e-01 -3.826769e-01 -9.525217e-07
    outer loop
      vertex 2.500003e+00 6.958909e-01 9.536743e-07
      vertex 2.499999e+00 6.958909e-01 3.700002e+00
      vertex 1.831038e+00 2.310946e+00 7.152557e-07
    endloop
  endfacet
  facet normal -0.000000e+00 -1.000000e+00 0.000000e+00
    outer loop
      vertex 1.769595e+00 -1.400411e+01 1.646340e+01
      vertex 2.499999e+00 -1.400411e+01 1.470000e+01
      vertex 1.000000e+01 -1.400411e+01 6.447649e+00
    endloop
  endfacet
  facet normal -0.000000e+00 -1.000000e+00 0.000000e+00
    outer loop
      vertex 1.000000e+01 -1.400411e+01 6.447649e+00
      vertex 1.767768e+00 -1.400411e+01 1.646780e+01
      vertex 1.769595e+00 -1.400411e+01 1.646340e+01
    endloop
  endfacet
  facet normal -0.000000e+00 -1.000000e+00 0.000000e+00
    outer loop
      vertex 2.749999e+00 -1.400411e+01 2.330000e+01
      vertex -2.750001e+00 -1.400411e+01 2.820000e+01
      vertex 1.767768e+00 -1.400411e+01 1.646780e+01
    endloop
  endfacet
  facet normal 0.000000e+00 -1.000000e+00 -0.000000e+00
    outer loop
      vertex 1.767768e+00 -1.400411e+01 1.646780e+01
      vertex 1.000000e+01 -1.400411e+01 6.447649e+00
      vertex 2.749999e+00 -1.400411e+01 2.330000e+01
    endloop
  endfacet
  facet normal 0.000000e+00 -1.000000e+00 0.000000e+00
    outer loop
      vertex -4.410744e-03 -1.400411e+01 1.719817e+01
      vertex -9.536743e-07 -1.400411e+01 1.720000e+01
      vertex -2.750001e+00 -1.400411e+01 2.820000e+01
    endloop
  endfacet
  facet normal -0.000000e+00 -1.000000e+00 0.000000e+00
    outer loop
      vertex -2.750001e+00 -1.400411e+01 2.820000e+01
      vertex -1.767800e+00 -1.400411e+01 1.646780e+01
      vertex -4.410744e-03 -1.400411e+01 1.719817e+01
    endloop
  endfacet
  facet normal -0.000000e+00 -1.000000e+00 0.000000e+00
    outer loop
      vertex -2.500001e+00 -1.400411e+01 1.470000e+01
      vertex -2.750001e+00 -1.400411e+01 2.820000e+01
      vertex -2.750001e+00 -1.400411e+01 4.768372e-07
    endloop
  endfacet
  facet normal 0.000000e+00 -1.000000e+00 -0.000000e+00
    outer loop
      vertex -2.750001e+00 -1.400411e+01 4.768372e-07
      vertex -2.744393e+00 -1.400411e+01 4.768372e-07
      vertex -2.500001e+00 -1.400411e+01 1.470000e+01
    endloop
  endfacet
  facet normal -0.000000e+00 -1.000000e+00 0.000000e+00
    outer loop
      vertex -2.498174e+00 -1.400411e+01 1.469559e+01
      vertex -2.500001e+00 -1.400411e+01 1.470000e+01
      vertex -2.744393e+00 -1.400411e+01 4.768372e-07
    endloop
  endfacet
  facet normal 0.000000e+00 -1.000000e+00 -0.000000e+00
    outer loop
      vertex -2.744393e+00 -1.400411e+01 4.768372e-07
      vertex -2.725022e+00 -1.400411e+01 4.768372e-07
      vertex -2.498174e+00 -1.400411e+01 1.469559e+01
    endloop
  endfacet
  facet normal -0.000000e+00 -1.000000e+00 0.000000e+00
    outer loop
      vertex -2.725022e+00 -1.400411e+01 4.768372e-07
      vertex -1.767800e+00 -1.400411e+01 1.293220e+01
      vertex -2.498174e+00 -1.400411e+01 1.469559e+01
    endloop
  endfacet
  facet normal -0.000000e+00 -1.000000e+00 0.000000e+00
    outer loop
      vertex 2.498176e+00 -1.400411e+01 1.469559e+01
      vertex 1.767768e+00 -1.400411e+01 1.293220e+01
      vertex 1.000000e+01 -1.400411e+01 6.447649e+00
    endloop
  endfacet
  facet normal -0.000000e+00 -1.000000e+00 0.000000e+00
    outer loop
      vertex 1.000000e+01 -1.400411e+01 6.447649e+00
      vertex 2.499999e+00 -1.400411e+01 1.470000e+01
      vertex 2.498176e+00 -1.400411e+01 1.469559e+01
    endloop
  endfacet
  facet normal -0.000000e+00 -1.000000e+00 0.000000e+00
    outer loop
      vertex 1.995250e+00 -1.400411e+01 7.152557e-07
      vertex -1.767800e+00 -1.400411e+01 1.293220e+01
      vertex -2.725022e+00 -1.400411e+01 4.768372e-07
    endloop
  endfacet
  facet normal 0.000000e+00 -1.000000e+00 0.000000e+00
    outer loop
      vertex -1.769628e+00 -1.400411e+01 1.646340e+01
      vertex -1.767800e+00 -1.400411e+01 1.646780e+01
      vertex -2.750001e+00 -1.400411e+01 2.820000e+01
    endloop
  endfacet
  facet normal -0.000000e+00 -1.000000e+00 0.000000e+00
    outer loop
      vertex -2.750001e+00 -1.400411e+01 2.820000e+01
      vertex -2.500001e+00 -1.400411e+01 1.470000e+01
      vertex -1.769628e+00 -1.400411e+01 1.646340e+01
    endloop
  endfacet
  facet normal -0.000000e+00 -1.000000e+00 0.000000e+00
    outer loop
      vertex -2.750001e+00 -1.400411e+01 2.820000e+01
      vertex -9.536743e-07 -1.400411e+01 1.720000e+01
      vertex 4.408836e-03 -1.400411e+01 1.719817e+01
    endloop
  endfacet
  facet normal 0.000000e+00 -1.000000e+00 0.000000e+00
    outer loop
      vertex 4.408836e-03 -1.400411e+01 1.719817e+01
      vertex 1.767768e+00 -1.400411e+01 1.646780e+01
      vertex -2.750001e+00 -1.400411e+01 2.820000e+01
    endloop
  endfacet
  facet normal -0.000000e+00 -1.000000e+00 0.000000e+00
    outer loop
      vertex -1.763391e+00 -1.400411e+01 1.293037e+01
      vertex -1.767800e+00 -1.400411e+01 1.293220e+01
      vertex 1.995250e+00 -1.400411e+01 7.152557e-07
    endloop
  endfacet
  facet normal 0.000000e+00 -1.000000e+00 0.000000e+00
    outer loop
      vertex 1.995250e+00 -1.400411e+01 7.152557e-07
      vertex 2.635215e+00 -1.400411e+01 9.536743e-07
      vertex -1.763391e+00 -1.400411e+01 1.293037e+01
    endloop
  endfacet
  facet normal -0.000000e+00 -1.000000e+00 0.000000e+00
    outer loop
      vertex 2.749999e+00 -1.400411e+01 2.330000e+01
      vertex 2.749999e+00 -1.400411e+01 2.780000e+01
      vertex -2.750001e+00 -1.400411e+01 2.820000e+01
    endloop
  endfacet
  facet normal -0.000000e+00 -1.000000e+00 0.000000e+00
    outer loop
      vertex 2.749999e+00 -1.400411e+01 6.000000e+00
      vertex -1.763391e+00 -1.400411e+01 1.293037e+01
      vertex 2.635215e+00 -1.400411e+01 9.536743e-07
    endloop
  endfacet
  facet normal 0.000000e+00 -1.000000e+00 -0.000000e+00
    outer loop
      vertex 2.635215e+00 -1.400411e+01 9.536743e-07
      vertex 2.750003e+00 -1.400411e+01 9.536743e-07
      vertex 2.749999e+00 -1.400411e+01 6.000000e+00
    endloop
  endfacet
  facet normal -0.000000e+00 -1.000000e+00 0.000000e+00
    outer loop
      vertex 2.749999e+00 -1.400411e+01 6.000000e+00
      vertex -9.536743e-07 -1.400411e+01 1.220000e+01
      vertex -1.763391e+00 -1.400411e+01 1.293037e+01
    endloop
  endfacet
  facet normal -0.000000e+00 -1.000000e+00 0.000000e+00
    outer loop
      vertex 1.763362e+00 -1.400411e+01 1.293037e+01
      vertex 1.000000e+01 -1.400411e+01 6.000001e+00
      vertex 1.000000e+01 -1.400411e+01 6.447649e+00
    endloop
  endfacet
  facet normal -0.000000e+00 -1.000000e+00 0.000000e+00
    outer loop
      vertex 1.000000e+01 -1.400411e+01 6.447649e+00
      vertex 1.767768e+00 -1.400411e+01 1.293220e+01
      vertex 1.763362e+00 -1.400411e+01 1.293037e+01
    endloop
  endfacet
  facet normal -0.000000e+00 -1.000000e+00 0.000000e+00
    outer loop
      vertex 9.999999e+00 -1.400411e+01 2.820001e+01
      vertex -2.750001e+00 -1.400411e+01 2.820000e+01
      vertex 2.749999e+00 -1.400411e+01 2.780000e+01
    endloop
  endfacet
  facet normal 0.000000e+00 -1.000000e+00 -0.000000e+00
    outer loop
      vertex 2.749999e+00 -1.400411e+01 2.780000e+01
      vertex 9.999999e+00 -1.400411e+01 2.780000e+01
      vertex 9.999999e+00 -1.400411e+01 2.820001e+01
    endloop
  endfacet
  facet normal -0.000000e+00 -1.000000e+00 0.000000e+00
    outer loop
      vertex 9.999999e+00 -1.400411e+01 2.294189e+01
      vertex 9.999999e+00 -1.400411e+01 2.330000e+01
      vertex 2.749999e+00 -1.400411e+01 2.330000e+01
    endloop
  endfacet
  facet normal -0.000000e+00 -1.000000e+00 0.000000e+00
    outer loop
      vertex 2.749999e+00 -1.400411e+01 2.330000e+01
      vertex 1.000000e+01 -1.400411e+01 6.447649e+00
      vertex 9.999999e+00 -1.400411e+01 2.294189e+01
    endloop
  endfacet
  facet normal -0.000000e+00 -1.000000e+00 0.000000e+00
    outer loop
      vertex 1.763362e+00 -1.400411e+01 1.293037e+01
      vertex -9.536743e-07 -1.400411e+01 1.220000e+01
      vertex 2.749999e+00 -1.400411e+01 6.000000e+00
    endloop
  endfacet
  facet normal 0.000000e+00 -1.000000e+00 0.000000e+00
    outer loop
      vertex 2.749999e+00 -1.400411e+01 6.000000e+00
      vertex 1.000000e+01 -1.400411e+01 6.000001e+00
      vertex 1.763362e+00 -1.400411e+01 1.293037e+01
    endloop
  endfacet
  facet normal 1.532377e-07 1.355703e-08 -1.000000e+00
    outer loop
      vertex -1.615056e+00 -1.135179e+00 4.768372e-07
      vertex -9.536743e-07 -1.804109e+00 7.152557e-07
      vertex 2.635215e+00 -1.400411e+01 9.536743e-07
    endloop
  endfacet
  facet normal -1.777978e-08 -4.292556e-08 -1.000000e+00
    outer loop
      vertex 2.635215e+00 -1.400411e+01 9.536743e-07
      vertex -1.767800e+00 -1.071912e+00 4.768372e-07
      vertex -1.615056e+00 -1.135179e+00 4.768372e-07
    endloop
  endfacet
  facet normal -5.000749e-07 -2.071313e-07 -1.000000e+00
    outer loop
      vertex 2.635215e+00 -1.400411e+01 9.536743e-07
      vertex -2.500001e+00 6.958909e-01 4.768372e-07
      vertex -2.436734e+00 5.431466e-01 4.768372e-07
    endloop
  endfacet
  facet normal -5.001895e-07 -2.071712e-07 -1.000000e+00
    outer loop
      vertex -2.436734e+00 5.431466e-01 4.768372e-07
      vertex -1.767800e+00 -1.071912e+00 4.768372e-07
      vertex 2.635215e+00 -1.400411e+01 9.536743e-07
    endloop
  endfacet
  facet normal 7.429795e-09 -1.793768e-08 -1.000000e+00
    outer loop
      vertex 1.615027e+00 -1.135179e+00 7.152557e-07
      vertex 1.767772e+00 -1.071912e+00 7.152557e-07
      vertex 2.635215e+00 -1.400411e+01 9.536743e-07
    endloop
  endfacet
  facet normal 7.429630e-09 -1.793769e-08 -1.000000e+00
    outer loop
      vertex 2.635215e+00 -1.400411e+01 9.536743e-07
      vertex -9.536743e-07 -1.804109e+00 7.152557e-07
      vertex 1.615027e+00 -1.135179e+00 7.152557e-07
    endloop
  endfacet
  facet normal -1.224647e-16 0.000000e+00 -1.000000e+00
    outer loop
      vertex -1.767800e+00 2.463690e+00 4.768372e-07
      vertex -1.831063e+00 2.310946e+00 4.768372e-07
      vertex -2.500001e+00 6.958909e-01 4.768372e-07
    endloop
  endfacet
  facet normal 4.087345e-08 -1.692928e-08 -1.000000e+00
    outer loop
      vertex -2.500001e+00 6.958909e-01 4.768372e-07
      vertex -8.654084e+00 1.400411e+01 0.000000e+00
      vertex -1.767800e+00 2.463690e+00 4.768372e-07
    endloop
  endfacet
  facet normal 3.725494e-07 1.161140e-07 -1.000000e+00
    outer loop
      vertex 2.635215e+00 -1.400411e+01 9.536743e-07
      vertex 1.995250e+00 -1.400411e+01 7.152557e-07
      vertex -8.654084e+00 1.400411e+01 0.000000e+00
    endloop
  endfacet
  facet normal 2.999637e-08 -2.195913e-08 -1.000000e+00
    outer loop
      vertex -8.654084e+00 1.400411e+01 0.000000e+00
      vertex -2.500001e+00 6.958909e-01 4.768372e-07
      vertex 2.635215e+00 -1.400411e+01 9.536743e-07
    endloop
  endfacet
  facet normal 3.387861e-07 7.295561e-09 -1.000000e+00
    outer loop
      vertex 1.767772e+00 -1.071912e+00 7.152557e-07
      vertex 2.436736e+00 5.431466e-01 9.536743e-07
      vertex 2.750003e+00 -1.400411e+01 9.536743e-07
    endloop
  endfacet
  facet normal -1.224647e-16 -1.843604e-08 -1.000000e+00
    outer loop
      vertex 2.750003e+00 -1.400411e+01 9.536743e-07
      vertex 2.635215e+00 -1.400411e+01 9.536743e-07
      vertex 1.767772e+00 -1.071912e+00 7.152557e-07
    endloop
  endfacet
  facet normal 1.819314e-07 -1.136295e-07 -1.000000e+00
    outer loop
      vertex 1.000000e+01 1.291219e+01 1.430511e-06
      vertex -9.536743e-07 3.195891e+00 7.152557e-07
      vertex -1.767800e+00 2.463690e+00 4.768372e-07
    endloop
  endfacet
  facet normal 7.695557e-08 4.601282e-09 -1.000000e+00
    outer loop
      vertex -1.767800e+00 2.463690e+00 4.768372e-07
      vertex -8.654084e+00 1.400411e+01 0.000000e+00
      vertex 1.000000e+01 1.291219e+01 1.430511e-06
    endloop
  endfacet
  facet normal -1.224647e-16 -1.702490e-08 -1.000000e+00
    outer loop
      vertex -2.725022e+00 -1.400411e+01 4.768372e-07
      vertex -2.744393e+00 -1.400411e+01 4.768372e-07
      vertex -8.654084e+00 1.400411e+01 0.000000e+00
    endloop
  endfacet
  facet normal 5.050950e-08 -6.332541e-09 -1.000000e+00
    outer loop
      vertex -8.654084e+00 1.400411e+01 0.000000e+00
      vertex 1.995250e+00 -1.400411e+01 7.152557e-07
      vertex -2.725022e+00 -1.400411e+01 4.768372e-07
    endloop
  endfacet
  facet normal 8.688482e-08 0.000000e+00 -1.000000e+00
    outer loop
      vertex 1.000000e+01 1.291219e+01 1.430511e-06
      vertex 1.000000e+01 1.281070e+01 1.430511e-06
      vertex 1.767772e+00 2.463690e+00 7.152557e-07
    endloop
  endfacet
  facet normal 2.137750e-08 5.161230e-08 -1.000000e+00
    outer loop
      vertex 1.767772e+00 2.463690e+00 7.152557e-07
      vertex -9.536743e-07 3.195891e+00 7.152557e-07
      vertex 1.000000e+01 1.291219e+01 1.430511e-06
    endloop
  endfacet
  facet normal -1.224647e-16 -1.702490e-08 -1.000000e+00
    outer loop
      vertex -2.750001e+00 -1.400411e+01 4.768372e-07
      vertex -9.663522e+00 1.400411e+01 4.440892e-16
      vertex -8.654084e+00 1.400411e+01 0.000000e+00
    endloop
  endfacet
  facet normal -1.224647e-16 -1.702490e-08 -1.000000e+00
    outer loop
      vertex -8.654084e+00 1.400411e+01 0.000000e+00
      vertex -2.744393e+00 -1.400411e+01 4.768372e-07
      vertex -2.750001e+00 -1.400411e+01 4.768372e-07
    endloop
  endfacet
  facet normal 4.356707e-03 -1.051835e-02 -9.999352e-01
    outer loop
      vertex -9.536743e-07 3.195891e+00 7.152557e-07
      vertex -1.527452e-01 3.132624e+00 7.152557e-07
      vertex -1.767800e+00 2.463690e+00 4.768372e-07
    endloop
  endfacet
  facet normal 7.668623e-08 0.000000e+00 -1.000000e+00
    outer loop
      vertex -8.654084e+00 1.400411e+01 0.000000e+00
      vertex 1.000000e+01 1.393219e+01 1.430511e-06
      vertex 1.000000e+01 1.392589e+01 1.430511e-06
    endloop
  endfacet
  facet normal 7.668623e-08 0.000000e+00 -1.000000e+00
    outer loop
      vertex 1.000000e+01 1.392589e+01 1.430511e-06
      vertex 1.000000e+01 1.291219e+01 1.430511e-06
      vertex -8.654084e+00 1.400411e+01 0.000000e+00
    endloop
  endfacet
  facet normal 7.809489e-08 4.030684e-06 -1.000000e+00
    outer loop
      vertex -8.654084e+00 1.400411e+01 0.000000e+00
      vertex 9.663522e+00 1.400411e+01 1.430511e-06
      vertex 1.000000e+01 1.399759e+01 1.430511e-06
    endloop
  endfacet
  facet normal 7.668623e-08 0.000000e+00 -1.000000e+00
    outer loop
      vertex 1.000000e+01 1.399759e+01 1.430511e-06
      vertex 1.000000e+01 1.393219e+01 1.430511e-06
      vertex -8.654084e+00 1.400411e+01 0.000000e+00
    endloop
  endfacet
  facet normal -1.224647e-16 0.000000e+00 -1.000000e+00
    outer loop
      vertex 1.767772e+00 2.463690e+00 7.152557e-07
      vertex 1.527433e-01 3.132624e+00 7.152557e-07
      vertex -9.536743e-07 3.195891e+00 7.152557e-07
    endloop
  endfacet
  facet normal -1.224647e-16 -1.702490e-08 -1.000000e+00
    outer loop
      vertex -2.750001e+00 -1.400411e+01 4.768372e-07
      vertex -9.999997e+00 1.400411e+01 4.440892e-16
      vertex -9.945386e+00 1.400411e+01 4.440892e-16
    endloop
  endfacet
  facet normal -1.224647e-16 -1.702490e-08 -1.000000e+00
    outer loop
      vertex -9.945386e+00 1.400411e+01 4.440892e-16
      vertex -9.663522e+00 1.400411e+01 4.440892e-16
      vertex -2.750001e+00 -1.400411e+01 4.768372e-07
    endloop
  endfacet
  facet normal -1.224647e-16 0.000000e+00 -1.000000e+00
    outer loop
      vertex 9.663522e+00 1.400411e+01 1.430511e-06
      vertex 1.000000e+01 1.400411e+01 1.430511e-06
      vertex 1.000000e+01 1.400240e+01 1.430511e-06
    endloop
  endfacet
  facet normal -1.224647e-16 0.000000e+00 -1.000000e+00
    outer loop
      vertex 1.000000e+01 1.400240e+01 1.430511e-06
      vertex 1.000000e+01 1.399759e+01 1.430511e-06
      vertex 9.663522e+00 1.400411e+01 1.430511e-06
    endloop
  endfacet
  facet normal 8.755772e-08 0.000000e+00 -1.000000e+00
    outer loop
      vertex 1.000000e+01 1.281070e+01 1.430511e-06
      vertex 1.000000e+01 1.267373e+01 1.430511e-06
      vertex 1.831038e+00 2.310946e+00 7.152557e-07
    endloop
  endfacet
  facet normal 5.713834e-08 2.366673e-08 -1.000000e+00
    outer loop
      vertex 1.831038e+00 2.310946e+00 7.152557e-07
      vertex 1.767772e+00 2.463690e+00 7.152557e-07
      vertex 1.000000e+01 1.281070e+01 1.430511e-06
    endloop
  endfacet
  facet normal -1.224647e-16 0.000000e+00 -1.000000e+00
    outer loop
      vertex 2.500003e+00 6.958909e-01 9.536743e-07
      vertex 3.137218e+00 -1.400411e+01 9.536743e-07
      vertex 2.750003e+00 -1.400411e+01 9.536743e-07
    endloop
  endfacet
  facet normal -1.224647e-16 0.000000e+00 -1.000000e+00
    outer loop
      vertex 2.750003e+00 -1.400411e+01 9.536743e-07
      vertex 2.436736e+00 5.431466e-01 9.536743e-07
      vertex 2.500003e+00 6.958909e-01 9.536743e-07
    endloop
  endfacet
  facet normal -1.224647e-16 0.000000e+00 -1.000000e+00
    outer loop
      vertex -9.914403e+00 -1.400411e+01 4.440892e-16
      vertex -9.999997e+00 -1.400411e+01 4.440892e-16
      vertex -9.999997e+00 1.400411e+01 4.440892e-16
    endloop
  endfacet
  facet normal 6.655645e-08 2.033990e-10 -1.000000e+00
    outer loop
      vertex -9.999997e+00 1.400411e+01 4.440892e-16
      vertex -2.750001e+00 -1.400411e+01 4.768372e-07
      vertex -9.914403e+00 -1.400411e+01 4.440892e-16
    endloop
  endfacet
  facet normal 1.801609e-07 -7.299895e-08 -1.000000e+00
    outer loop
      vertex 1.000000e+01 1.267373e+01 1.430511e-06
      vertex 2.500003e+00 6.958909e-01 9.536743e-07
      vertex 1.831038e+00 2.310946e+00 7.152557e-07
    endloop
  endfacet
  facet normal 6.948160e-08 0.000000e+00 -1.000000e+00
    outer loop
      vertex 1.000000e+01 1.267373e+01 1.430511e-06
      vertex 1.000000e+01 -1.400411e+01 1.430511e-06
      vertex 3.137218e+00 -1.400411e+01 9.536743e-07
    endloop
  endfacet
  facet normal 5.946184e-08 2.577548e-09 -1.000000e+00
    outer loop
      vertex 3.137218e+00 -1.400411e+01 9.536743e-07
      vertex 2.500003e+00 6.958909e-01 9.536743e-07
      vertex 1.000000e+01 1.267373e+01 1.430511e-06
    endloop
  endfacet
endsolid Default
