solid Default
  facet normal -8.601410e-01 5.099167e-01 -1.193313e-02
    outer loop
      vertex 9.049733e+00 -5.689046e-02 0.000000e+00
      vertex 7.311971e+00 -2.988194e+00 5.960464e-08
      vertex 7.269582e+00 -2.914770e+00 6.192926e+00
    endloop
  endfacet
  facet normal 0.000000e+00 9.999297e-01 -1.185541e-02
    outer loop
      vertex 3.969579e+00 -2.914770e+00 6.192925e+00
      vertex 7.311971e+00 -2.988194e+00 5.960464e-08
      vertex 3.927190e+00 -2.988194e+00 5.960464e-08
    endloop
  endfacet
  facet normal 3.426117e-09 9.999297e-01 -1.185541e-02
    outer loop
      vertex 7.269582e+00 -2.914770e+00 6.192926e+00
      vertex 7.311971e+00 -2.988194e+00 5.960464e-08
      vertex 3.969579e+00 -2.914770e+00 6.192925e+00
    endloop
  endfacet
  facet normal -8.658825e-01 4.999164e-01 -1.819836e-02
    outer loop
      vertex 8.919576e+00 -5.689046e-02 6.192926e+00
      vertex 9.049733e+00 -5.689046e-02 0.000000e+00
      vertex 7.269582e+00 -2.914770e+00 6.192926e+00
    endloop
  endfacet
  facet normal -8.600630e-01 -5.098676e-01 -1.807605e-02
    outer loop
      vertex 9.049733e+00 -5.689046e-02 0.000000e+00
      vertex 8.919576e+00 -5.689046e-02 6.192926e+00
      vertex 7.311971e+00 2.874430e+00 5.960464e-08
    endloop
  endfacet
  facet normal -8.659652e-01 -4.999638e-01 -1.185611e-02
    outer loop
      vertex 8.919576e+00 -5.689046e-02 6.192926e+00
      vertex 7.269582e+00 2.800991e+00 6.192926e+00
      vertex 7.311971e+00 2.874430e+00 5.960464e-08
    endloop
  endfacet
  facet normal 3.426763e-09 -9.999297e-01 -1.185764e-02
    outer loop
      vertex 7.269582e+00 2.800991e+00 6.192926e+00
      vertex 3.969579e+00 2.800991e+00 6.192925e+00
      vertex 3.927190e+00 2.874430e+00 5.960464e-08
    endloop
  endfacet
  facet normal 0.000000e+00 -9.999297e-01 -1.185764e-02
    outer loop
      vertex 7.269582e+00 2.800991e+00 6.192926e+00
      vertex 3.927190e+00 2.874430e+00 5.960464e-08
      vertex 7.311971e+00 2.874430e+00 5.960464e-08
    endloop
  endfacet
  facet normal 8.601403e-01 -5.099179e-01 -1.193428e-02
    outer loop
      vertex 3.927190e+00 2.874430e+00 5.960464e-08
      vertex 3.969579e+00 2.800991e+00 6.192925e+00
      vertex 2.189412e+00 -5.689046e-02 0.000000e+00
    endloop
  endfacet
  facet normal 8.658806e-01 -4.999196e-01 -1.819832e-02
    outer loop
      vertex 2.319570e+00 -5.689046e-02 6.192925e+00
      vertex 2.189412e+00 -5.689046e-02 0.000000e+00
      vertex 3.969579e+00 2.800991e+00 6.192925e+00
    endloop
  endfacet
  facet normal 8.600597e-01 5.098730e-01 -1.807598e-02
    outer loop
      vertex 2.319570e+00 -5.689046e-02 6.192925e+00
      vertex 3.927190e+00 -2.988194e+00 5.960464e-08
      vertex 2.189412e+00 -5.689046e-02 0.000000e+00
    endloop
  endfacet
  facet normal 8.659630e-01 4.999675e-01 -1.185502e-02
    outer loop
      vertex 3.927190e+00 -2.988194e+00 5.960464e-08
      vertex 2.319570e+00 -5.689046e-02 6.192925e+00
      vertex 3.969579e+00 -2.914770e+00 6.192925e+00
    endloop
  endfacet
  facet normal 7.138298e-07 4.121329e-07 -1.000000e+00
    outer loop
      vertex 5.932134e+00 1.715769e+00 6.192926e+00
      vertex 4.719579e+00 1.501963e+00 6.192925e+00
      vertex 3.969579e+00 2.800991e+00 6.192925e+00
    endloop
  endfacet
  facet normal 0.000000e+00 0.000000e+00 -1.000000e+00
    outer loop
      vertex 5.932134e+00 -1.829535e+00 6.192926e+00
      vertex 6.998464e+00 -1.213902e+00 6.192926e+00
      vertex 7.269582e+00 -2.914770e+00 6.192926e+00
    endloop
  endfacet
  facet normal 0.000000e+00 0.000000e+00 -1.000000e+00
    outer loop
      vertex 3.928121e+00 -6.725216e-01 6.192925e+00
      vertex 4.719579e+00 -1.615727e+00 6.192925e+00
      vertex 3.969579e+00 -2.914770e+00 6.192925e+00
    endloop
  endfacet
  facet normal 0.000000e+00 0.000000e+00 -1.000000e+00
    outer loop
      vertex 2.319570e+00 -5.689046e-02 6.192925e+00
      vertex 3.969579e+00 2.800991e+00 6.192925e+00
      vertex 3.928121e+00 5.587411e-01 6.192925e+00
    endloop
  endfacet
  facet normal 0.000000e+00 0.000000e+00 -1.000000e+00
    outer loop
      vertex 2.319570e+00 -5.689046e-02 6.192925e+00
      vertex 3.928121e+00 5.587411e-01 6.192925e+00
      vertex 3.928121e+00 -6.725216e-01 6.192925e+00
    endloop
  endfacet
  facet normal 0.000000e+00 0.000000e+00 -1.000000e+00
    outer loop
      vertex 7.419576e+00 -5.689046e-02 6.192926e+00
      vertex 6.998464e+00 1.100138e+00 6.192926e+00
      vertex 8.919576e+00 -5.689046e-02 6.192926e+00
    endloop
  endfacet
  facet normal 2.889919e-07 -3.561591e-07 -1.000000e+00
    outer loop
      vertex 3.969579e+00 2.800991e+00 6.192925e+00
      vertex 7.269582e+00 2.800991e+00 6.192926e+00
      vertex 5.932134e+00 1.715769e+00 6.192926e+00
    endloop
  endfacet
  facet normal 0.000000e+00 0.000000e+00 -1.000000e+00
    outer loop
      vertex 4.719579e+00 1.501963e+00 6.192925e+00
      vertex 3.928121e+00 5.587411e-01 6.192925e+00
      vertex 3.969579e+00 2.800991e+00 6.192925e+00
    endloop
  endfacet
  facet normal 0.000000e+00 0.000000e+00 -1.000000e+00
    outer loop
      vertex 5.932134e+00 1.715769e+00 6.192926e+00
      vertex 7.269582e+00 2.800991e+00 6.192926e+00
      vertex 6.998464e+00 1.100138e+00 6.192926e+00
    endloop
  endfacet
  facet normal 0.000000e+00 0.000000e+00 -1.000000e+00
    outer loop
      vertex 6.998464e+00 -1.213902e+00 6.192926e+00
      vertex 7.419576e+00 -5.689046e-02 6.192926e+00
      vertex 8.919576e+00 -5.689046e-02 6.192926e+00
    endloop
  endfacet
  facet normal 0.000000e+00 0.000000e+00 -1.000000e+00
    outer loop
      vertex 7.269582e+00 -2.914770e+00 6.192926e+00
      vertex 6.998464e+00 -1.213902e+00 6.192926e+00
      vertex 8.919576e+00 -5.689046e-02 6.192926e+00
    endloop
  endfacet
  facet normal 1.004864e-06 1.238398e-06 -1.000000e+00
    outer loop
      vertex 4.719579e+00 -1.615727e+00 6.192925e+00
      vertex 5.932134e+00 -1.829535e+00 6.192926e+00
      vertex 7.269582e+00 -2.914770e+00 6.192926e+00
    endloop
  endfacet
  facet normal 2.889919e-07 -1.668490e-07 -1.000000e+00
    outer loop
      vertex 3.969579e+00 -2.914770e+00 6.192925e+00
      vertex 4.719579e+00 -1.615727e+00 6.192925e+00
      vertex 7.269582e+00 -2.914770e+00 6.192926e+00
    endloop
  endfacet
  facet normal 0.000000e+00 0.000000e+00 -1.000000e+00
    outer loop
      vertex 2.319570e+00 -5.689046e-02 6.192925e+00
      vertex 3.928121e+00 -6.725216e-01 6.192925e+00
      vertex 3.969579e+00 -2.914770e+00 6.192925e+00
    endloop
  endfacet
  facet normal 0.000000e+00 0.000000e+00 -1.000000e+00
    outer loop
      vertex 6.998464e+00 1.100138e+00 6.192926e+00
      vertex 7.269582e+00 2.800991e+00 6.192926e+00
      vertex 8.919576e+00 -5.689046e-02 6.192926e+00
    endloop
  endfacet
  facet normal 7.660440e-01 -6.427882e-01 0.000000e+00
    outer loop
      vertex 3.928121e+00 5.587411e-01 2.902583e+01
      vertex 3.928121e+00 5.587411e-01 6.192925e+00
      vertex 4.719579e+00 1.501963e+00 2.902583e+01
    endloop
  endfacet
  facet normal 7.660440e-01 -6.427882e-01 0.000000e+00
    outer loop
      vertex 3.928121e+00 5.587411e-01 6.192925e+00
      vertex 4.719579e+00 1.501963e+00 6.192925e+00
      vertex 4.719579e+00 1.501963e+00 2.902583e+01
    endloop
  endfacet
  facet normal 1.736482e-01 -9.848077e-01 0.000000e+00
    outer loop
      vertex 4.719579e+00 1.501963e+00 6.192925e+00
      vertex 5.932134e+00 1.715769e+00 2.902583e+01
      vertex 4.719579e+00 1.501963e+00 2.902583e+01
    endloop
  endfacet
  facet normal 1.736482e-01 -9.848077e-01 0.000000e+00
    outer loop
      vertex 5.932134e+00 1.715769e+00 6.192926e+00
      vertex 5.932134e+00 1.715769e+00 2.902583e+01
      vertex 4.719579e+00 1.501963e+00 6.192925e+00
    endloop
  endfacet
  facet normal -4.999910e-01 -8.660306e-01 0.000000e+00
    outer loop
      vertex 5.932134e+00 1.715769e+00 6.192926e+00
      vertex 6.998464e+00 1.100138e+00 2.902583e+01
      vertex 5.932134e+00 1.715769e+00 2.902583e+01
    endloop
  endfacet
  facet normal -4.999910e-01 -8.660306e-01 0.000000e+00
    outer loop
      vertex 6.998464e+00 1.100138e+00 6.192926e+00
      vertex 6.998464e+00 1.100138e+00 2.902583e+01
      vertex 5.932134e+00 1.715769e+00 6.192926e+00
    endloop
  endfacet
  facet normal -9.396957e-01 -3.420117e-01 0.000000e+00
    outer loop
      vertex 6.998464e+00 1.100138e+00 6.192926e+00
      vertex 7.419576e+00 -5.689046e-02 2.902583e+01
      vertex 6.998464e+00 1.100138e+00 2.902583e+01
    endloop
  endfacet
  facet normal -9.396957e-01 -3.420117e-01 0.000000e+00
    outer loop
      vertex 7.419576e+00 -5.689046e-02 6.192926e+00
      vertex 7.419576e+00 -5.689046e-02 2.902583e+01
      vertex 6.998464e+00 1.100138e+00 6.192926e+00
    endloop
  endfacet
  facet normal -9.396942e-01 3.420160e-01 0.000000e+00
    outer loop
      vertex 7.419576e+00 -5.689046e-02 2.902583e+01
      vertex 6.998464e+00 -1.213902e+00 6.192926e+00
      vertex 6.998464e+00 -1.213902e+00 2.902583e+01
    endloop
  endfacet
  facet normal -9.396942e-01 3.420160e-01 0.000000e+00
    outer loop
      vertex 7.419576e+00 -5.689046e-02 6.192926e+00
      vertex 6.998464e+00 -1.213902e+00 6.192926e+00
      vertex 7.419576e+00 -5.689046e-02 2.902583e+01
    endloop
  endfacet
  facet normal -4.999916e-01 8.660303e-01 0.000000e+00
    outer loop
      vertex 5.932134e+00 -1.829535e+00 2.902583e+01
      vertex 6.998464e+00 -1.213902e+00 2.902583e+01
      vertex 5.932134e+00 -1.829535e+00 6.192926e+00
    endloop
  endfacet
  facet normal -4.999916e-01 8.660303e-01 0.000000e+00
    outer loop
      vertex 6.998464e+00 -1.213902e+00 2.902583e+01
      vertex 6.998464e+00 -1.213902e+00 6.192926e+00
      vertex 5.932134e+00 -1.829535e+00 6.192926e+00
    endloop
  endfacet
  facet normal 1.736489e-01 9.848076e-01 0.000000e+00
    outer loop
      vertex 4.719579e+00 -1.615727e+00 2.902583e+01
      vertex 5.932134e+00 -1.829535e+00 2.902583e+01
      vertex 4.719579e+00 -1.615727e+00 6.192925e+00
    endloop
  endfacet
  facet normal 1.736489e-01 9.848076e-01 0.000000e+00
    outer loop
      vertex 5.932134e+00 -1.829535e+00 2.902583e+01
      vertex 5.932134e+00 -1.829535e+00 6.192926e+00
      vertex 4.719579e+00 -1.615727e+00 6.192925e+00
    endloop
  endfacet
  facet normal 7.660387e-01 6.427945e-01 0.000000e+00
    outer loop
      vertex 3.928121e+00 -6.725216e-01 2.902583e+01
      vertex 4.719579e+00 -1.615727e+00 2.902583e+01
      vertex 3.928121e+00 -6.725216e-01 6.192925e+00
    endloop
  endfacet
  facet normal 7.660387e-01 6.427945e-01 0.000000e+00
    outer loop
      vertex 4.719579e+00 -1.615727e+00 2.902583e+01
      vertex 4.719579e+00 -1.615727e+00 6.192925e+00
      vertex 3.928121e+00 -6.725216e-01 6.192925e+00
    endloop
  endfacet
  facet normal 1.000000e+00 0.000000e+00 0.000000e+00
    outer loop
      vertex 3.928121e+00 5.587411e-01 2.902583e+01
      vertex 3.928121e+00 -6.725216e-01 2.902583e+01
      vertex 3.928121e+00 5.587411e-01 6.192925e+00
    endloop
  endfacet
  facet normal 1.000000e+00 0.000000e+00 0.000000e+00
    outer loop
      vertex 3.928121e+00 -6.725216e-01 2.902583e+01
      vertex 3.928121e+00 -6.725216e-01 6.192925e+00
      vertex 3.928121e+00 5.587411e-01 6.192925e+00
    endloop
  endfacet
  facet normal 1.000000e+00 0.000000e+00 0.000000e+00
    outer loop
      vertex -7.394292e+00 -6.725216e-01 2.902583e+01
      vertex -7.394292e+00 -6.725216e-01 6.192925e+00
      vertex -7.394292e+00 5.587411e-01 6.192925e+00
    endloop
  endfacet
  facet normal 1.000000e+00 0.000000e+00 0.000000e+00
    outer loop
      vertex -7.394292e+00 5.587411e-01 2.902583e+01
      vertex -7.394292e+00 -6.725216e-01 2.902583e+01
      vertex -7.394292e+00 5.587411e-01 6.192925e+00
    endloop
  endfacet
  facet normal 7.660385e-01 6.427946e-01 0.000000e+00
    outer loop
      vertex -6.602834e+00 -1.615727e+00 2.902583e+01
      vertex -6.602834e+00 -1.615727e+00 6.192925e+00
      vertex -7.394292e+00 -6.725216e-01 6.192925e+00
    endloop
  endfacet
  facet normal 7.660385e-01 6.427946e-01 0.000000e+00
    outer loop
      vertex -7.394292e+00 -6.725216e-01 2.902583e+01
      vertex -6.602834e+00 -1.615727e+00 2.902583e+01
      vertex -7.394292e+00 -6.725216e-01 6.192925e+00
    endloop
  endfacet
  facet normal 1.736489e-01 9.848076e-01 0.000000e+00
    outer loop
      vertex -5.390279e+00 -1.829535e+00 2.902583e+01
      vertex -5.390279e+00 -1.829535e+00 6.192926e+00
      vertex -6.602834e+00 -1.615727e+00 6.192925e+00
    endloop
  endfacet
  facet normal 1.736489e-01 9.848076e-01 0.000000e+00
    outer loop
      vertex -6.602834e+00 -1.615727e+00 2.902583e+01
      vertex -5.390279e+00 -1.829535e+00 2.902583e+01
      vertex -6.602834e+00 -1.615727e+00 6.192925e+00
    endloop
  endfacet
  facet normal -4.999916e-01 8.660303e-01 0.000000e+00
    outer loop
      vertex -4.323949e+00 -1.213902e+00 2.902583e+01
      vertex -4.323949e+00 -1.213902e+00 6.192926e+00
      vertex -5.390279e+00 -1.829535e+00 6.192926e+00
    endloop
  endfacet
  facet normal -4.999916e-01 8.660303e-01 0.000000e+00
    outer loop
      vertex -5.390279e+00 -1.829535e+00 2.902583e+01
      vertex -4.323949e+00 -1.213902e+00 2.902583e+01
      vertex -5.390279e+00 -1.829535e+00 6.192926e+00
    endloop
  endfacet
  facet normal -9.396942e-01 3.420160e-01 0.000000e+00
    outer loop
      vertex -3.902837e+00 -5.689046e-02 6.192926e+00
      vertex -4.323949e+00 -1.213902e+00 6.192926e+00
      vertex -3.902837e+00 -5.689046e-02 2.902583e+01
    endloop
  endfacet
  facet normal -9.396942e-01 3.420160e-01 0.000000e+00
    outer loop
      vertex -3.902837e+00 -5.689046e-02 2.902583e+01
      vertex -4.323949e+00 -1.213902e+00 6.192926e+00
      vertex -4.323949e+00 -1.213902e+00 2.902583e+01
    endloop
  endfacet
  facet normal -9.396957e-01 -3.420117e-01 0.000000e+00
    outer loop
      vertex -3.902837e+00 -5.689046e-02 6.192926e+00
      vertex -3.902837e+00 -5.689046e-02 2.902583e+01
      vertex -4.323949e+00 1.100138e+00 6.192926e+00
    endloop
  endfacet
  facet normal -9.396957e-01 -3.420117e-01 0.000000e+00
    outer loop
      vertex -4.323949e+00 1.100138e+00 6.192926e+00
      vertex -3.902837e+00 -5.689046e-02 2.902583e+01
      vertex -4.323949e+00 1.100138e+00 2.902583e+01
    endloop
  endfacet
  facet normal -4.999910e-01 -8.660306e-01 0.000000e+00
    outer loop
      vertex -4.323949e+00 1.100138e+00 6.192926e+00
      vertex -4.323949e+00 1.100138e+00 2.902583e+01
      vertex -5.390279e+00 1.715769e+00 6.192926e+00
    endloop
  endfacet
  facet normal -4.999910e-01 -8.660306e-01 0.000000e+00
    outer loop
      vertex -5.390279e+00 1.715769e+00 6.192926e+00
      vertex -4.323949e+00 1.100138e+00 2.902583e+01
      vertex -5.390279e+00 1.715769e+00 2.902583e+01
    endloop
  endfacet
  facet normal 1.736482e-01 -9.848077e-01 0.000000e+00
    outer loop
      vertex -5.390279e+00 1.715769e+00 6.192926e+00
      vertex -5.390279e+00 1.715769e+00 2.902583e+01
      vertex -6.602834e+00 1.501963e+00 6.192925e+00
    endloop
  endfacet
  facet normal 1.736482e-01 -9.848077e-01 0.000000e+00
    outer loop
      vertex -6.602834e+00 1.501963e+00 6.192925e+00
      vertex -5.390279e+00 1.715769e+00 2.902583e+01
      vertex -6.602834e+00 1.501963e+00 2.902583e+01
    endloop
  endfacet
  facet normal 7.660438e-01 -6.427884e-01 0.000000e+00
    outer loop
      vertex -7.394292e+00 5.587411e-01 6.192925e+00
      vertex -6.602834e+00 1.501963e+00 6.192925e+00
      vertex -6.602834e+00 1.501963e+00 2.902583e+01
    endloop
  endfacet
  facet normal 7.660438e-01 -6.427884e-01 0.000000e+00
    outer loop
      vertex -7.394292e+00 5.587411e-01 2.902583e+01
      vertex -7.394292e+00 5.587411e-01 6.192925e+00
      vertex -6.602834e+00 1.501963e+00 2.902583e+01
    endloop
  endfacet
  facet normal 0.000000e+00 0.000000e+00 -1.000000e+00
    outer loop
      vertex -4.323949e+00 1.100138e+00 6.192926e+00
      vertex -4.052830e+00 2.800991e+00 6.192926e+00
      vertex -2.402837e+00 -5.689046e-02 6.192926e+00
    endloop
  endfacet
  facet normal 0.000000e+00 0.000000e+00 -1.000000e+00
    outer loop
      vertex -9.002843e+00 -5.689046e-02 6.192925e+00
      vertex -7.394292e+00 -6.725216e-01 6.192925e+00
      vertex -7.352834e+00 -2.914770e+00 6.192925e+00
    endloop
  endfacet
  facet normal 2.889919e-07 -1.668491e-07 -1.000000e+00
    outer loop
      vertex -7.352834e+00 -2.914770e+00 6.192925e+00
      vertex -6.602834e+00 -1.615727e+00 6.192925e+00
      vertex -4.052830e+00 -2.914770e+00 6.192926e+00
    endloop
  endfacet
  facet normal 1.004864e-06 1.238398e-06 -1.000000e+00
    outer loop
      vertex -6.602834e+00 -1.615727e+00 6.192925e+00
      vertex -5.390279e+00 -1.829535e+00 6.192926e+00
      vertex -4.052830e+00 -2.914770e+00 6.192926e+00
    endloop
  endfacet
  facet normal 0.000000e+00 0.000000e+00 -1.000000e+00
    outer loop
      vertex -4.052830e+00 -2.914770e+00 6.192926e+00
      vertex -4.323949e+00 -1.213902e+00 6.192926e+00
      vertex -2.402837e+00 -5.689046e-02 6.192926e+00
    endloop
  endfacet
  facet normal 0.000000e+00 0.000000e+00 -1.000000e+00
    outer loop
      vertex -4.323949e+00 -1.213902e+00 6.192926e+00
      vertex -3.902837e+00 -5.689046e-02 6.192926e+00
      vertex -2.402837e+00 -5.689046e-02 6.192926e+00
    endloop
  endfacet
  facet normal 0.000000e+00 0.000000e+00 -1.000000e+00
    outer loop
      vertex -5.390279e+00 1.715769e+00 6.192926e+00
      vertex -4.052830e+00 2.800991e+00 6.192926e+00
      vertex -4.323949e+00 1.100138e+00 6.192926e+00
    endloop
  endfacet
  facet normal 0.000000e+00 0.000000e+00 -1.000000e+00
    outer loop
      vertex -6.602834e+00 1.501963e+00 6.192925e+00
      vertex -7.394292e+00 5.587411e-01 6.192925e+00
      vertex -7.352834e+00 2.800991e+00 6.192925e+00
    endloop
  endfacet
  facet normal 2.889919e-07 -3.561590e-07 -1.000000e+00
    outer loop
      vertex -7.352834e+00 2.800991e+00 6.192925e+00
      vertex -4.052830e+00 2.800991e+00 6.192926e+00
      vertex -5.390279e+00 1.715769e+00 6.192926e+00
    endloop
  endfacet
  facet normal 0.000000e+00 0.000000e+00 -1.000000e+00
    outer loop
      vertex -3.902837e+00 -5.689046e-02 6.192926e+00
      vertex -4.323949e+00 1.100138e+00 6.192926e+00
      vertex -2.402837e+00 -5.689046e-02 6.192926e+00
    endloop
  endfacet
  facet normal 0.000000e+00 0.000000e+00 -1.000000e+00
    outer loop
      vertex -9.002843e+00 -5.689046e-02 6.192925e+00
      vertex -7.394292e+00 5.587411e-01 6.192925e+00
      vertex -7.394292e+00 -6.725216e-01 6.192925e+00
    endloop
  endfacet
  facet normal 0.000000e+00 0.000000e+00 -1.000000e+00
    outer loop
      vertex -9.002843e+00 -5.689046e-02 6.192925e+00
      vertex -7.352834e+00 2.800991e+00 6.192925e+00
      vertex -7.394292e+00 5.587411e-01 6.192925e+00
    endloop
  endfacet
  facet normal 0.000000e+00 0.000000e+00 -1.000000e+00
    outer loop
      vertex -7.394292e+00 -6.725216e-01 6.192925e+00
      vertex -6.602834e+00 -1.615727e+00 6.192925e+00
      vertex -7.352834e+00 -2.914770e+00 6.192925e+00
    endloop
  endfacet
  facet normal 0.000000e+00 0.000000e+00 -1.000000e+00
    outer loop
      vertex -5.390279e+00 -1.829535e+00 6.192926e+00
      vertex -4.323949e+00 -1.213902e+00 6.192926e+00
      vertex -4.052830e+00 -2.914770e+00 6.192926e+00
    endloop
  endfacet
  facet normal 7.138297e-07 4.121330e-07 -1.000000e+00
    outer loop
      vertex -5.390279e+00 1.715769e+00 6.192926e+00
      vertex -6.602834e+00 1.501963e+00 6.192925e+00
      vertex -7.352834e+00 2.800991e+00 6.192925e+00
    endloop
  endfacet
  facet normal 8.601391e-01 5.099200e-01 -1.193316e-02
    outer loop
      vertex -7.352834e+00 -2.914770e+00 6.192925e+00
      vertex -7.395223e+00 -2.988194e+00 5.960464e-08
      vertex -9.133000e+00 -5.689046e-02 0.000000e+00
    endloop
  endfacet
  facet normal 8.658804e-01 4.999199e-01 -1.819832e-02
    outer loop
      vertex -9.133000e+00 -5.689046e-02 0.000000e+00
      vertex -9.002843e+00 -5.689046e-02 6.192925e+00
      vertex -7.352834e+00 -2.914770e+00 6.192925e+00
    endloop
  endfacet
  facet normal 8.600610e-01 -5.098709e-01 -1.807601e-02
    outer loop
      vertex -9.133000e+00 -5.689046e-02 0.000000e+00
      vertex -7.395223e+00 2.874430e+00 5.960464e-08
      vertex -9.002843e+00 -5.689046e-02 6.192925e+00
    endloop
  endfacet
  facet normal 8.659632e-01 -4.999672e-01 -1.185613e-02
    outer loop
      vertex -9.002843e+00 -5.689046e-02 6.192925e+00
      vertex -7.395223e+00 2.874430e+00 5.960464e-08
      vertex -7.352834e+00 2.800991e+00 6.192925e+00
    endloop
  endfacet
  facet normal 3.426762e-09 -9.999297e-01 -1.185764e-02
    outer loop
      vertex -4.052830e+00 2.800991e+00 6.192926e+00
      vertex -7.352834e+00 2.800991e+00 6.192925e+00
      vertex -4.010442e+00 2.874430e+00 5.960464e-08
    endloop
  endfacet
  facet normal 0.000000e+00 -9.999297e-01 -1.185764e-02
    outer loop
      vertex -7.352834e+00 2.800991e+00 6.192925e+00
      vertex -7.395223e+00 2.874430e+00 5.960464e-08
      vertex -4.010442e+00 2.874430e+00 5.960464e-08
    endloop
  endfacet
  facet normal -8.659652e-01 -4.999638e-01 -1.185611e-02
    outer loop
      vertex -2.402837e+00 -5.689046e-02 6.192926e+00
      vertex -4.052830e+00 2.800991e+00 6.192926e+00
      vertex -4.010442e+00 2.874430e+00 5.960464e-08
    endloop
  endfacet
  facet normal -8.600628e-01 -5.098678e-01 -1.807618e-02
    outer loop
      vertex -2.272678e+00 -5.689046e-02 0.000000e+00
      vertex -2.402837e+00 -5.689046e-02 6.192926e+00
      vertex -4.010442e+00 2.874430e+00 5.960464e-08
    endloop
  endfacet
  facet normal -8.600616e-01 5.098699e-01 -1.807615e-02
    outer loop
      vertex -2.272678e+00 -5.689046e-02 0.000000e+00
      vertex -4.010442e+00 -2.988194e+00 5.960464e-08
      vertex -2.402837e+00 -5.689046e-02 6.192926e+00
    endloop
  endfacet
  facet normal -8.659650e-01 4.999641e-01 -1.185499e-02
    outer loop
      vertex -2.402837e+00 -5.689046e-02 6.192926e+00
      vertex -4.010442e+00 -2.988194e+00 5.960464e-08
      vertex -4.052830e+00 -2.914770e+00 6.192926e+00
    endloop
  endfacet
  facet normal 3.426117e-09 9.999297e-01 -1.185541e-02
    outer loop
      vertex -7.352834e+00 -2.914770e+00 6.192925e+00
      vertex -4.052830e+00 -2.914770e+00 6.192926e+00
      vertex -4.010442e+00 -2.988194e+00 5.960464e-08
    endloop
  endfacet
  facet normal 0.000000e+00 9.999297e-01 -1.185541e-02
    outer loop
      vertex -7.395223e+00 -2.988194e+00 5.960464e-08
      vertex -7.352834e+00 -2.914770e+00 6.192925e+00
      vertex -4.010442e+00 -2.988194e+00 5.960464e-08
    endloop
  endfacet
  facet normal 0.000000e+00 1.000000e+00 0.000000e+00
    outer loop
      vertex -1.807206e+00 7.249998e+00 4.057787e+00
      vertex -5.596976e+00 7.249998e+00 2.902583e+01
      vertex -1.807206e+00 7.249998e+00 2.902583e+01
    endloop
  endfacet
  facet normal 0.000000e+00 1.000000e+00 0.000000e+00
    outer loop
      vertex 5.596972e+00 7.249998e+00 0.000000e+00
      vertex 1.596972e+00 7.249998e+00 4.057787e+00
      vertex 5.596972e+00 7.249998e+00 2.902583e+01
    endloop
  endfacet
  facet normal 0.000000e+00 1.000000e+00 0.000000e+00
    outer loop
      vertex 5.596972e+00 7.249998e+00 0.000000e+00
      vertex -1.807206e+00 7.249998e+00 4.057787e+00
      vertex 1.596972e+00 7.249998e+00 4.057787e+00
    endloop
  endfacet
  facet normal 0.000000e+00 1.000000e+00 0.000000e+00
    outer loop
      vertex 5.596972e+00 7.249998e+00 2.902583e+01
      vertex 1.596972e+00 7.249998e+00 4.057787e+00
      vertex 1.596972e+00 7.249998e+00 2.902583e+01
    endloop
  endfacet
  facet normal -1.305256e-01 -9.914449e-01 -0.000000e+00
    outer loop
      vertex -5.596976e+00 -7.249998e+00 2.902583e+01
      vertex -7.473414e+00 -7.002961e+00 0.000000e+00
      vertex -5.596976e+00 -7.249998e+00 0.000000e+00
    endloop
  endfacet
  facet normal -1.305256e-01 -9.914449e-01 0.000000e+00
    outer loop
      vertex -7.473414e+00 -7.002961e+00 0.000000e+00
      vertex -5.596976e+00 -7.249998e+00 2.902583e+01
      vertex -7.473414e+00 -7.002961e+00 2.902583e+01
    endloop
  endfacet
  facet normal -9.914449e-01 -1.305262e-01 0.000000e+00
    outer loop
      vertex -1.284697e+01 1.460314e-06 2.902583e+01
      vertex -1.259993e+01 -1.876438e+00 0.000000e+00
      vertex -1.259993e+01 -1.876438e+00 2.902583e+01
    endloop
  endfacet
  facet normal -9.914449e-01 -1.305262e-01 0.000000e+00
    outer loop
      vertex -1.259993e+01 -1.876438e+00 0.000000e+00
      vertex -1.284697e+01 1.460314e-06 2.902583e+01
      vertex -1.284697e+01 1.460314e-06 0.000000e+00
    endloop
  endfacet
  facet normal 0.000000e+00 -1.000000e+00 0.000000e+00
    outer loop
      vertex 5.596972e+00 -7.249998e+00 2.902583e+01
      vertex 1.596972e+00 -7.249998e+00 4.057787e+00
      vertex 5.596972e+00 -7.249998e+00 0.000000e+00
    endloop
  endfacet
  facet normal 0.000000e+00 -1.000000e+00 0.000000e+00
    outer loop
      vertex 1.596972e+00 -7.249998e+00 4.057787e+00
      vertex 5.596972e+00 -7.249998e+00 2.902583e+01
      vertex 1.596972e+00 -7.249998e+00 2.902583e+01
    endloop
  endfacet
  facet normal 0.000000e+00 -1.000000e+00 0.000000e+00
    outer loop
      vertex -1.807206e+00 -7.249998e+00 4.057787e+00
      vertex 5.596972e+00 -7.249998e+00 0.000000e+00
      vertex 1.596972e+00 -7.249998e+00 4.057787e+00
    endloop
  endfacet
  facet normal 0.000000e+00 -1.000000e+00 0.000000e+00
    outer loop
      vertex -5.596976e+00 -7.249998e+00 2.902583e+01
      vertex -1.807206e+00 -7.249998e+00 4.057787e+00
      vertex -1.807206e+00 -7.249998e+00 2.902583e+01
    endloop
  endfacet
  facet normal -7.933542e-01 -6.087604e-01 0.000000e+00
    outer loop
      vertex -1.187566e+01 -3.624998e+00 2.902583e+01
      vertex -1.072350e+01 -5.126522e+00 0.000000e+00
      vertex -1.072350e+01 -5.126522e+00 2.902583e+01
    endloop
  endfacet
  facet normal -7.933542e-01 -6.087604e-01 0.000000e+00
    outer loop
      vertex -1.072350e+01 -5.126522e+00 0.000000e+00
      vertex -1.187566e+01 -3.624998e+00 2.902583e+01
      vertex -1.187566e+01 -3.624998e+00 0.000000e+00
    endloop
  endfacet
  facet normal -9.238799e-01 -3.826825e-01 0.000000e+00
    outer loop
      vertex -1.259993e+01 -1.876438e+00 2.902583e+01
      vertex -1.187566e+01 -3.624998e+00 0.000000e+00
      vertex -1.187566e+01 -3.624998e+00 2.902583e+01
    endloop
  endfacet
  facet normal -9.238799e-01 -3.826825e-01 0.000000e+00
    outer loop
      vertex -1.187566e+01 -3.624998e+00 0.000000e+00
      vertex -1.259993e+01 -1.876438e+00 2.902583e+01
      vertex -1.259993e+01 -1.876438e+00 0.000000e+00
    endloop
  endfacet
  facet normal 0.000000e+00 0.000000e+00 -1.000000e+00
    outer loop
      vertex -1.259993e+01 1.876438e+00 0.000000e+00
      vertex -1.259993e+01 -1.876438e+00 0.000000e+00
      vertex -1.284697e+01 1.460314e-06 0.000000e+00
    endloop
  endfacet
  facet normal 0.000000e+00 0.000000e+00 -1.000000e+00
    outer loop
      vertex -1.259993e+01 -1.876438e+00 0.000000e+00
      vertex -1.259993e+01 1.876438e+00 0.000000e+00
      vertex -1.187566e+01 3.625001e+00 0.000000e+00
    endloop
  endfacet
  facet normal 0.000000e+00 0.000000e+00 -1.000000e+00
    outer loop
      vertex -1.259993e+01 -1.876438e+00 0.000000e+00
      vertex -1.187566e+01 3.625001e+00 0.000000e+00
      vertex -1.187566e+01 -3.624998e+00 0.000000e+00
    endloop
  endfacet
  facet normal 0.000000e+00 0.000000e+00 -1.000000e+00
    outer loop
      vertex -1.187566e+01 -3.624998e+00 0.000000e+00
      vertex -1.187566e+01 3.625001e+00 0.000000e+00
      vertex -1.072350e+01 5.126531e+00 0.000000e+00
    endloop
  endfacet
  facet normal 0.000000e+00 0.000000e+00 -1.000000e+00
    outer loop
      vertex -1.187566e+01 -3.624998e+00 0.000000e+00
      vertex -1.072350e+01 5.126531e+00 0.000000e+00
      vertex -1.072350e+01 -5.126522e+00 0.000000e+00
    endloop
  endfacet
  facet normal 0.000000e+00 0.000000e+00 -1.000000e+00
    outer loop
      vertex -1.072350e+01 -5.126522e+00 0.000000e+00
      vertex -1.072350e+01 5.126531e+00 0.000000e+00
      vertex -9.221971e+00 6.278687e+00 0.000000e+00
    endloop
  endfacet
  facet normal 0.000000e+00 0.000000e+00 -1.000000e+00
    outer loop
      vertex -1.072350e+01 -5.126522e+00 0.000000e+00
      vertex -9.221971e+00 6.278687e+00 0.000000e+00
      vertex -9.221971e+00 -6.278684e+00 0.000000e+00
    endloop
  endfacet
  facet normal 0.000000e+00 0.000000e+00 -1.000000e+00
    outer loop
      vertex 9.221971e+00 -6.278684e+00 0.000000e+00
      vertex 9.221971e+00 6.278687e+00 0.000000e+00
      vertex 1.072349e+01 5.126531e+00 0.000000e+00
    endloop
  endfacet
  facet normal 0.000000e+00 0.000000e+00 -1.000000e+00
    outer loop
      vertex 9.221971e+00 -6.278684e+00 0.000000e+00
      vertex 1.072349e+01 5.126531e+00 0.000000e+00
      vertex 1.072349e+01 -5.126522e+00 0.000000e+00
    endloop
  endfacet
  facet normal 0.000000e+00 0.000000e+00 -1.000000e+00
    outer loop
      vertex 1.072349e+01 -5.126522e+00 0.000000e+00
      vertex 1.072349e+01 5.126531e+00 0.000000e+00
      vertex 1.187566e+01 3.625001e+00 0.000000e+00
    endloop
  endfacet
  facet normal 0.000000e+00 0.000000e+00 -1.000000e+00
    outer loop
      vertex 1.072349e+01 -5.126522e+00 0.000000e+00
      vertex 1.187566e+01 3.625001e+00 0.000000e+00
      vertex 1.187566e+01 -3.624998e+00 0.000000e+00
    endloop
  endfacet
  facet normal 0.000000e+00 0.000000e+00 -1.000000e+00
    outer loop
      vertex 1.187566e+01 -3.624998e+00 0.000000e+00
      vertex 1.187566e+01 3.625001e+00 0.000000e+00
      vertex 1.259993e+01 1.876438e+00 0.000000e+00
    endloop
  endfacet
  facet normal 0.000000e+00 0.000000e+00 -1.000000e+00
    outer loop
      vertex 1.187566e+01 -3.624998e+00 0.000000e+00
      vertex 1.259993e+01 1.876438e+00 0.000000e+00
      vertex 1.259993e+01 -1.876438e+00 0.000000e+00
    endloop
  endfacet
  facet normal 0.000000e+00 0.000000e+00 -1.000000e+00
    outer loop
      vertex 1.259993e+01 -1.876438e+00 0.000000e+00
      vertex 1.259993e+01 1.876438e+00 0.000000e+00
      vertex 1.284697e+01 1.460314e-06 0.000000e+00
    endloop
  endfacet
  facet normal -6.087604e-01 -7.933541e-01 -0.000000e+00
    outer loop
      vertex -9.221971e+00 -6.278684e+00 2.902583e+01
      vertex -1.072350e+01 -5.126522e+00 0.000000e+00
      vertex -9.221971e+00 -6.278684e+00 0.000000e+00
    endloop
  endfacet
  facet normal -6.087604e-01 -7.933541e-01 0.000000e+00
    outer loop
      vertex -1.072350e+01 -5.126522e+00 0.000000e+00
      vertex -9.221971e+00 -6.278684e+00 2.902583e+01
      vertex -1.072350e+01 -5.126522e+00 2.902583e+01
    endloop
  endfacet
  facet normal -3.826844e-01 -9.238791e-01 -0.000000e+00
    outer loop
      vertex -7.473414e+00 -7.002961e+00 2.902583e+01
      vertex -9.221971e+00 -6.278684e+00 0.000000e+00
      vertex -7.473414e+00 -7.002961e+00 0.000000e+00
    endloop
  endfacet
  facet normal -3.826844e-01 -9.238791e-01 0.000000e+00
    outer loop
      vertex -9.221971e+00 -6.278684e+00 0.000000e+00
      vertex -7.473414e+00 -7.002961e+00 2.902583e+01
      vertex -9.221971e+00 -6.278684e+00 2.902583e+01
    endloop
  endfacet
  facet normal -9.238800e-01 3.826821e-01 0.000000e+00
    outer loop
      vertex -1.187566e+01 3.625001e+00 2.902583e+01
      vertex -1.259993e+01 1.876438e+00 0.000000e+00
      vertex -1.259993e+01 1.876438e+00 2.902583e+01
    endloop
  endfacet
  facet normal -9.238800e-01 3.826821e-01 0.000000e+00
    outer loop
      vertex -1.259993e+01 1.876438e+00 0.000000e+00
      vertex -1.187566e+01 3.625001e+00 2.902583e+01
      vertex -1.187566e+01 3.625001e+00 0.000000e+00
    endloop
  endfacet
  facet normal 6.087611e-01 7.933536e-01 0.000000e+00
    outer loop
      vertex 9.221971e+00 6.278687e+00 2.902583e+01
      vertex 1.072349e+01 5.126531e+00 0.000000e+00
      vertex 9.221971e+00 6.278687e+00 0.000000e+00
    endloop
  endfacet
  facet normal 6.087611e-01 7.933536e-01 0.000000e+00
    outer loop
      vertex 1.072349e+01 5.126531e+00 0.000000e+00
      vertex 9.221971e+00 6.278687e+00 2.902583e+01
      vertex 1.072349e+01 5.126531e+00 2.902583e+01
    endloop
  endfacet
  facet normal 9.238800e-01 3.826821e-01 0.000000e+00
    outer loop
      vertex 1.187566e+01 3.625001e+00 0.000000e+00
      vertex 1.259993e+01 1.876438e+00 2.902583e+01
      vertex 1.259993e+01 1.876438e+00 0.000000e+00
    endloop
  endfacet
  facet normal 9.238800e-01 3.826821e-01 0.000000e+00
    outer loop
      vertex 1.259993e+01 1.876438e+00 2.902583e+01
      vertex 1.187566e+01 3.625001e+00 0.000000e+00
      vertex 1.187566e+01 3.625001e+00 2.902583e+01
    endloop
  endfacet
  facet normal -7.933552e-01 6.087590e-01 0.000000e+00
    outer loop
      vertex -1.072350e+01 5.126531e+00 2.902583e+01
      vertex -1.187566e+01 3.625001e+00 0.000000e+00
      vertex -1.187566e+01 3.625001e+00 2.902583e+01
    endloop
  endfacet
  facet normal -7.933552e-01 6.087590e-01 0.000000e+00
    outer loop
      vertex -1.187566e+01 3.625001e+00 0.000000e+00
      vertex -1.072350e+01 5.126531e+00 2.902583e+01
      vertex -1.072350e+01 5.126531e+00 0.000000e+00
    endloop
  endfacet
  facet normal 1.305248e-01 9.914451e-01 0.000000e+00
    outer loop
      vertex 5.596972e+00 7.249998e+00 2.902583e+01
      vertex 7.473416e+00 7.002962e+00 0.000000e+00
      vertex 5.596972e+00 7.249998e+00 0.000000e+00
    endloop
  endfacet
  facet normal 1.305248e-01 9.914451e-01 0.000000e+00
    outer loop
      vertex 7.473416e+00 7.002962e+00 0.000000e+00
      vertex 5.596972e+00 7.249998e+00 2.902583e+01
      vertex 7.473416e+00 7.002962e+00 2.902583e+01
    endloop
  endfacet
  facet normal -9.914448e-01 1.305263e-01 0.000000e+00
    outer loop
      vertex -1.259993e+01 1.876438e+00 2.902583e+01
      vertex -1.284697e+01 1.460314e-06 0.000000e+00
      vertex -1.284697e+01 1.460314e-06 2.902583e+01
    endloop
  endfacet
  facet normal -9.914448e-01 1.305263e-01 0.000000e+00
    outer loop
      vertex -1.284697e+01 1.460314e-06 0.000000e+00
      vertex -1.259993e+01 1.876438e+00 2.902583e+01
      vertex -1.259993e+01 1.876438e+00 0.000000e+00
    endloop
  endfacet
  facet normal 6.087629e-01 -7.933522e-01 0.000000e+00
    outer loop
      vertex 1.072349e+01 -5.126522e+00 2.902583e+01
      vertex 9.221971e+00 -6.278684e+00 0.000000e+00
      vertex 1.072349e+01 -5.126522e+00 0.000000e+00
    endloop
  endfacet
  facet normal 6.087629e-01 -7.933522e-01 0.000000e+00
    outer loop
      vertex 9.221971e+00 -6.278684e+00 0.000000e+00
      vertex 1.072349e+01 -5.126522e+00 2.902583e+01
      vertex 9.221971e+00 -6.278684e+00 2.902583e+01
    endloop
  endfacet
  facet normal 7.933512e-01 -6.087642e-01 0.000000e+00
    outer loop
      vertex 1.187566e+01 -3.624998e+00 0.000000e+00
      vertex 1.072349e+01 -5.126522e+00 2.902583e+01
      vertex 1.072349e+01 -5.126522e+00 0.000000e+00
    endloop
  endfacet
  facet normal 7.933512e-01 -6.087642e-01 0.000000e+00
    outer loop
      vertex 1.072349e+01 -5.126522e+00 2.902583e+01
      vertex 1.187566e+01 -3.624998e+00 0.000000e+00
      vertex 1.187566e+01 -3.624998e+00 2.902583e+01
    endloop
  endfacet
  facet normal 9.914449e-01 1.305254e-01 0.000000e+00
    outer loop
      vertex 1.259993e+01 1.876438e+00 0.000000e+00
      vertex 1.284697e+01 1.460314e-06 2.902583e+01
      vertex 1.284697e+01 1.460314e-06 0.000000e+00
    endloop
  endfacet
  facet normal 9.914449e-01 1.305254e-01 0.000000e+00
    outer loop
      vertex 1.284697e+01 1.460314e-06 2.902583e+01
      vertex 1.259993e+01 1.876438e+00 0.000000e+00
      vertex 1.259993e+01 1.876438e+00 2.902583e+01
    endloop
  endfacet
  facet normal 9.914450e-01 -1.305252e-01 0.000000e+00
    outer loop
      vertex 1.284697e+01 1.460314e-06 0.000000e+00
      vertex 1.259993e+01 -1.876438e+00 2.902583e+01
      vertex 1.259993e+01 -1.876438e+00 0.000000e+00
    endloop
  endfacet
  facet normal 9.914450e-01 -1.305252e-01 0.000000e+00
    outer loop
      vertex 1.259993e+01 -1.876438e+00 2.902583e+01
      vertex 1.284697e+01 1.460314e-06 0.000000e+00
      vertex 1.284697e+01 1.460314e-06 2.902583e+01
    endloop
  endfacet
  facet normal 3.826838e-01 9.238794e-01 0.000000e+00
    outer loop
      vertex 7.473416e+00 7.002962e+00 2.902583e+01
      vertex 9.221971e+00 6.278687e+00 0.000000e+00
      vertex 7.473416e+00 7.002962e+00 0.000000e+00
    endloop
  endfacet
  facet normal 3.826838e-01 9.238794e-01 0.000000e+00
    outer loop
      vertex 9.221971e+00 6.278687e+00 0.000000e+00
      vertex 7.473416e+00 7.002962e+00 2.902583e+01
      vertex 9.221971e+00 6.278687e+00 2.902583e+01
    endloop
  endfacet
  facet normal 7.933523e-01 6.087627e-01 0.000000e+00
    outer loop
      vertex 1.072349e+01 5.126531e+00 0.000000e+00
      vertex 1.187566e+01 3.625001e+00 2.902583e+01
      vertex 1.187566e+01 3.625001e+00 0.000000e+00
    endloop
  endfacet
  facet normal 7.933523e-01 6.087627e-01 0.000000e+00
    outer loop
      vertex 1.187566e+01 3.625001e+00 2.902583e+01
      vertex 1.072349e+01 5.126531e+00 0.000000e+00
      vertex 1.072349e+01 5.126531e+00 2.902583e+01
    endloop
  endfacet
  facet normal 9.238799e-01 -3.826825e-01 0.000000e+00
    outer loop
      vertex 1.259993e+01 -1.876438e+00 0.000000e+00
      vertex 1.187566e+01 -3.624998e+00 2.902583e+01
      vertex 1.187566e+01 -3.624998e+00 0.000000e+00
    endloop
  endfacet
  facet normal 9.238799e-01 -3.826825e-01 0.000000e+00
    outer loop
      vertex 1.187566e+01 -3.624998e+00 2.902583e+01
      vertex 1.259993e+01 -1.876438e+00 0.000000e+00
      vertex 1.259993e+01 -1.876438e+00 2.902583e+01
    endloop
  endfacet
  facet normal 1.305259e-01 -9.914449e-01 0.000000e+00
    outer loop
      vertex 7.473416e+00 -7.002960e+00 0.000000e+00
      vertex 5.596972e+00 -7.249998e+00 2.902583e+01
      vertex 5.596972e+00 -7.249998e+00 0.000000e+00
    endloop
  endfacet
  facet normal 1.305259e-01 -9.914449e-01 0.000000e+00
    outer loop
      vertex 5.596972e+00 -7.249998e+00 2.902583e+01
      vertex 7.473416e+00 -7.002960e+00 0.000000e+00
      vertex 7.473416e+00 -7.002960e+00 2.902583e+01
    endloop
  endfacet
  facet normal -3.826834e-01 9.238796e-01 0.000000e+00
    outer loop
      vertex -9.221971e+00 6.278687e+00 2.902583e+01
      vertex -7.473414e+00 7.002962e+00 0.000000e+00
      vertex -9.221971e+00 6.278687e+00 0.000000e+00
    endloop
  endfacet
  facet normal -3.826834e-01 9.238796e-01 0.000000e+00
    outer loop
      vertex -7.473414e+00 7.002962e+00 0.000000e+00
      vertex -9.221971e+00 6.278687e+00 2.902583e+01
      vertex -7.473414e+00 7.002962e+00 2.902583e+01
    endloop
  endfacet
  facet normal 0.000000e+00 0.000000e+00 1.000000e+00
    outer loop
      vertex 1.596972e+00 -7.249998e+00 2.902583e+01
      vertex 5.596972e+00 -7.249998e+00 2.902583e+01
      vertex 1.596972e+00 7.249998e+00 2.902583e+01
    endloop
  endfacet
  facet normal 0.000000e+00 0.000000e+00 1.000000e+00
    outer loop
      vertex 9.221971e+00 6.278687e+00 2.902583e+01
      vertex 9.221971e+00 -6.278684e+00 2.902583e+01
      vertex 1.072349e+01 5.126531e+00 2.902583e+01
    endloop
  endfacet
  facet normal 0.000000e+00 0.000000e+00 1.000000e+00
    outer loop
      vertex 1.072349e+01 5.126531e+00 2.902583e+01
      vertex 9.221971e+00 -6.278684e+00 2.902583e+01
      vertex 1.072349e+01 -5.126522e+00 2.902583e+01
    endloop
  endfacet
  facet normal 0.000000e+00 0.000000e+00 1.000000e+00
    outer loop
      vertex 1.072349e+01 5.126531e+00 2.902583e+01
      vertex 1.072349e+01 -5.126522e+00 2.902583e+01
      vertex 1.187566e+01 3.625001e+00 2.902583e+01
    endloop
  endfacet
  facet normal 0.000000e+00 0.000000e+00 1.000000e+00
    outer loop
      vertex 1.187566e+01 3.625001e+00 2.902583e+01
      vertex 1.072349e+01 -5.126522e+00 2.902583e+01
      vertex 1.187566e+01 -3.624998e+00 2.902583e+01
    endloop
  endfacet
  facet normal 0.000000e+00 0.000000e+00 1.000000e+00
    outer loop
      vertex 1.187566e+01 3.625001e+00 2.902583e+01
      vertex 1.187566e+01 -3.624998e+00 2.902583e+01
      vertex 1.259993e+01 1.876438e+00 2.902583e+01
    endloop
  endfacet
  facet normal 0.000000e+00 0.000000e+00 1.000000e+00
    outer loop
      vertex 1.259993e+01 1.876438e+00 2.902583e+01
      vertex 1.187566e+01 -3.624998e+00 2.902583e+01
      vertex 1.259993e+01 -1.876438e+00 2.902583e+01
    endloop
  endfacet
  facet normal 0.000000e+00 0.000000e+00 1.000000e+00
    outer loop
      vertex 1.259993e+01 1.876438e+00 2.902583e+01
      vertex 1.259993e+01 -1.876438e+00 2.902583e+01
      vertex 1.284697e+01 1.460314e-06 2.902583e+01
    endloop
  endfacet
  facet normal 0.000000e+00 0.000000e+00 1.000000e+00
    outer loop
      vertex -1.259993e+01 -1.876438e+00 2.902583e+01
      vertex -1.259993e+01 1.876438e+00 2.902583e+01
      vertex -1.284697e+01 1.460314e-06 2.902583e+01
    endloop
  endfacet
  facet normal 0.000000e+00 0.000000e+00 1.000000e+00
    outer loop
      vertex -1.259993e+01 1.876438e+00 2.902583e+01
      vertex -1.259993e+01 -1.876438e+00 2.902583e+01
      vertex -1.187566e+01 3.625001e+00 2.902583e+01
    endloop
  endfacet
  facet normal 0.000000e+00 0.000000e+00 1.000000e+00
    outer loop
      vertex -1.187566e+01 3.625001e+00 2.902583e+01
      vertex -1.259993e+01 -1.876438e+00 2.902583e+01
      vertex -1.187566e+01 -3.624998e+00 2.902583e+01
    endloop
  endfacet
  facet normal 0.000000e+00 0.000000e+00 1.000000e+00
    outer loop
      vertex -1.187566e+01 3.625001e+00 2.902583e+01
      vertex -1.187566e+01 -3.624998e+00 2.902583e+01
      vertex -1.072350e+01 5.126531e+00 2.902583e+01
    endloop
  endfacet
  facet normal 0.000000e+00 0.000000e+00 1.000000e+00
    outer loop
      vertex -1.072350e+01 5.126531e+00 2.902583e+01
      vertex -1.187566e+01 -3.624998e+00 2.902583e+01
      vertex -1.072350e+01 -5.126522e+00 2.902583e+01
    endloop
  endfacet
  facet normal 0.000000e+00 0.000000e+00 1.000000e+00
    outer loop
      vertex -1.072350e+01 5.126531e+00 2.902583e+01
      vertex -1.072350e+01 -5.126522e+00 2.902583e+01
      vertex -9.221971e+00 6.278687e+00 2.902583e+01
    endloop
  endfacet
  facet normal 0.000000e+00 0.000000e+00 1.000000e+00
    outer loop
      vertex -9.221971e+00 6.278687e+00 2.902583e+01
      vertex -1.072350e+01 -5.126522e+00 2.902583e+01
      vertex -9.221971e+00 -6.278684e+00 2.902583e+01
    endloop
  endfacet
  facet normal -6.087586e-01 7.933555e-01 0.000000e+00
    outer loop
      vertex -1.072350e+01 5.126531e+00 2.902583e+01
      vertex -9.221971e+00 6.278687e+00 0.000000e+00
      vertex -1.072350e+01 5.126531e+00 0.000000e+00
    endloop
  endfacet
  facet normal -6.087586e-01 7.933555e-01 0.000000e+00
    outer loop
      vertex -9.221971e+00 6.278687e+00 0.000000e+00
      vertex -1.072350e+01 5.126531e+00 2.902583e+01
      vertex -9.221971e+00 6.278687e+00 2.902583e+01
    endloop
  endfacet
  facet normal 3.826841e-01 -9.238793e-01 0.000000e+00
    outer loop
      vertex 9.221971e+00 -6.278684e+00 2.902583e+01
      vertex 7.473416e+00 -7.002960e+00 0.000000e+00
      vertex 9.221971e+00 -6.278684e+00 0.000000e+00
    endloop
  endfacet
  facet normal 3.826841e-01 -9.238793e-01 0.000000e+00
    outer loop
      vertex 7.473416e+00 -7.002960e+00 0.000000e+00
      vertex 9.221971e+00 -6.278684e+00 2.902583e+01
      vertex 7.473416e+00 -7.002960e+00 2.902583e+01
    endloop
  endfacet
  facet normal -1.305252e-01 9.914450e-01 0.000000e+00
    outer loop
      vertex -7.473414e+00 7.002962e+00 2.902583e+01
      vertex -5.596976e+00 7.249998e+00 0.000000e+00
      vertex -7.473414e+00 7.002962e+00 0.000000e+00
    endloop
  endfacet
  facet normal -1.305252e-01 9.914450e-01 0.000000e+00
    outer loop
      vertex -5.596976e+00 7.249998e+00 0.000000e+00
      vertex -7.473414e+00 7.002962e+00 2.902583e+01
      vertex -5.596976e+00 7.249998e+00 2.902583e+01
    endloop
  endfacet
  facet normal 1.000000e+00 0.000000e+00 0.000000e+00
    outer loop
      vertex -1.807206e+00 7.249998e+00 4.057787e+00
      vertex -1.807206e+00 -7.249998e+00 2.902583e+01
      vertex -1.807206e+00 -7.249998e+00 4.057787e+00
    endloop
  endfacet
  facet normal 0.000000e+00 0.000000e+00 1.000000e+00
    outer loop
      vertex 1.596972e+00 -7.249998e+00 4.057787e+00
      vertex -1.807206e+00 7.249998e+00 4.057787e+00
      vertex -1.807206e+00 -7.249998e+00 4.057787e+00
    endloop
  endfacet
  facet normal 0.000000e+00 0.000000e+00 1.000000e+00
    outer loop
      vertex -1.807206e+00 7.249998e+00 4.057787e+00
      vertex 1.596972e+00 -7.249998e+00 4.057787e+00
      vertex 1.596972e+00 7.249998e+00 4.057787e+00
    endloop
  endfacet
  facet normal -1.000000e+00 0.000000e+00 0.000000e+00
    outer loop
      vertex 1.596972e+00 7.249998e+00 2.902583e+01
      vertex 1.596972e+00 -7.249998e+00 4.057787e+00
      vertex 1.596972e+00 -7.249998e+00 2.902583e+01
    endloop
  endfacet
  facet normal -1.000000e+00 0.000000e+00 0.000000e+00
    outer loop
      vertex 1.596972e+00 -7.249998e+00 4.057787e+00
      vertex 1.596972e+00 7.249998e+00 2.902583e+01
      vertex 1.596972e+00 7.249998e+00 4.057787e+00
    endloop
  endfacet
  facet normal 0.000000e+00 -1.000000e+00 0.000000e+00
    outer loop
      vertex 5.596972e+00 -7.249998e+00 0.000000e+00
      vertex -1.807206e+00 -7.249998e+00 4.057787e+00
      vertex -5.596976e+00 -7.249998e+00 0.000000e+00
    endloop
  endfacet
  facet normal 0.000000e+00 -1.000000e+00 0.000000e+00
    outer loop
      vertex -5.596976e+00 -7.249998e+00 2.902583e+01
      vertex -5.596976e+00 -7.249998e+00 0.000000e+00
      vertex -1.807206e+00 -7.249998e+00 4.057787e+00
    endloop
  endfacet
  facet normal 0.000000e+00 1.000000e+00 0.000000e+00
    outer loop
      vertex -5.596976e+00 7.249998e+00 2.902583e+01
      vertex -1.807206e+00 7.249998e+00 4.057787e+00
      vertex -5.596976e+00 7.249998e+00 0.000000e+00
    endloop
  endfacet
  facet normal 0.000000e+00 1.000000e+00 0.000000e+00
    outer loop
      vertex -5.596976e+00 7.249998e+00 0.000000e+00
      vertex -1.807206e+00 7.249998e+00 4.057787e+00
      vertex 5.596972e+00 7.249998e+00 0.000000e+00
    endloop
  endfacet
  facet normal 0.000000e+00 0.000000e+00 1.000000e+00
    outer loop
      vertex 4.719579e+00 -1.615727e+00 2.902583e+01
      vertex 3.928121e+00 -6.725216e-01 2.902583e+01
      vertex 5.596972e+00 -7.249998e+00 2.902583e+01
    endloop
  endfacet
  facet normal 0.000000e+00 0.000000e+00 1.000000e+00
    outer loop
      vertex 3.928121e+00 -6.725216e-01 2.902583e+01
      vertex 1.596972e+00 7.249998e+00 2.902583e+01
      vertex 5.596972e+00 -7.249998e+00 2.902583e+01
    endloop
  endfacet
  facet normal 0.000000e+00 0.000000e+00 1.000000e+00
    outer loop
      vertex 3.928121e+00 -6.725216e-01 2.902583e+01
      vertex 3.928121e+00 5.587411e-01 2.902583e+01
      vertex 1.596972e+00 7.249998e+00 2.902583e+01
    endloop
  endfacet
  facet normal 0.000000e+00 0.000000e+00 1.000000e+00
    outer loop
      vertex 4.719579e+00 1.501963e+00 2.902583e+01
      vertex 1.596972e+00 7.249998e+00 2.902583e+01
      vertex 3.928121e+00 5.587411e-01 2.902583e+01
    endloop
  endfacet
  facet normal 0.000000e+00 0.000000e+00 1.000000e+00
    outer loop
      vertex 4.719579e+00 1.501963e+00 2.902583e+01
      vertex 5.596972e+00 7.249998e+00 2.902583e+01
      vertex 1.596972e+00 7.249998e+00 2.902583e+01
    endloop
  endfacet
  facet normal 0.000000e+00 0.000000e+00 1.000000e+00
    outer loop
      vertex 4.719579e+00 1.501963e+00 2.902583e+01
      vertex 5.932134e+00 1.715769e+00 2.902583e+01
      vertex 5.596972e+00 7.249998e+00 2.902583e+01
    endloop
  endfacet
  facet normal 0.000000e+00 0.000000e+00 1.000000e+00
    outer loop
      vertex 5.932134e+00 1.715769e+00 2.902583e+01
      vertex 7.473416e+00 7.002962e+00 2.902583e+01
      vertex 5.596972e+00 7.249998e+00 2.902583e+01
    endloop
  endfacet
  facet normal 0.000000e+00 0.000000e+00 1.000000e+00
    outer loop
      vertex 6.998464e+00 1.100138e+00 2.902583e+01
      vertex 7.473416e+00 7.002962e+00 2.902583e+01
      vertex 5.932134e+00 1.715769e+00 2.902583e+01
    endloop
  endfacet
  facet normal 0.000000e+00 0.000000e+00 1.000000e+00
    outer loop
      vertex 6.998464e+00 1.100138e+00 2.902583e+01
      vertex 9.221971e+00 6.278687e+00 2.902583e+01
      vertex 7.473416e+00 7.002962e+00 2.902583e+01
    endloop
  endfacet
  facet normal 0.000000e+00 0.000000e+00 1.000000e+00
    outer loop
      vertex 6.998464e+00 1.100138e+00 2.902583e+01
      vertex 7.419576e+00 -5.689046e-02 2.902583e+01
      vertex 9.221971e+00 6.278687e+00 2.902583e+01
    endloop
  endfacet
  facet normal 0.000000e+00 0.000000e+00 1.000000e+00
    outer loop
      vertex 7.419576e+00 -5.689046e-02 2.902583e+01
      vertex 9.221971e+00 -6.278684e+00 2.902583e+01
      vertex 9.221971e+00 6.278687e+00 2.902583e+01
    endloop
  endfacet
  facet normal 0.000000e+00 0.000000e+00 1.000000e+00
    outer loop
      vertex 6.998464e+00 -1.213902e+00 2.902583e+01
      vertex 9.221971e+00 -6.278684e+00 2.902583e+01
      vertex 7.419576e+00 -5.689046e-02 2.902583e+01
    endloop
  endfacet
  facet normal 0.000000e+00 0.000000e+00 1.000000e+00
    outer loop
      vertex 5.932134e+00 -1.829535e+00 2.902583e+01
      vertex 9.221971e+00 -6.278684e+00 2.902583e+01
      vertex 6.998464e+00 -1.213902e+00 2.902583e+01
    endloop
  endfacet
  facet normal 0.000000e+00 0.000000e+00 1.000000e+00
    outer loop
      vertex 5.932134e+00 -1.829535e+00 2.902583e+01
      vertex 7.473416e+00 -7.002960e+00 2.902583e+01
      vertex 9.221971e+00 -6.278684e+00 2.902583e+01
    endloop
  endfacet
  facet normal 0.000000e+00 0.000000e+00 1.000000e+00
    outer loop
      vertex 4.719579e+00 -1.615727e+00 2.902583e+01
      vertex 7.473416e+00 -7.002960e+00 2.902583e+01
      vertex 5.932134e+00 -1.829535e+00 2.902583e+01
    endloop
  endfacet
  facet normal 0.000000e+00 0.000000e+00 1.000000e+00
    outer loop
      vertex 4.719579e+00 -1.615727e+00 2.902583e+01
      vertex 5.596972e+00 -7.249998e+00 2.902583e+01
      vertex 7.473416e+00 -7.002960e+00 2.902583e+01
    endloop
  endfacet
  facet normal 0.000000e+00 0.000000e+00 1.000000e+00
    outer loop
      vertex -3.902837e+00 -5.689046e-02 2.902583e+01
      vertex -1.807206e+00 7.249998e+00 2.902583e+01
      vertex -4.323949e+00 1.100138e+00 2.902583e+01
    endloop
  endfacet
  facet normal 0.000000e+00 0.000000e+00 1.000000e+00
    outer loop
      vertex -5.390279e+00 1.715769e+00 2.902583e+01
      vertex -4.323949e+00 1.100138e+00 2.902583e+01
      vertex -1.807206e+00 7.249998e+00 2.902583e+01
    endloop
  endfacet
  facet normal 0.000000e+00 0.000000e+00 1.000000e+00
    outer loop
      vertex -5.390279e+00 1.715769e+00 2.902583e+01
      vertex -1.807206e+00 7.249998e+00 2.902583e+01
      vertex -5.596976e+00 7.249998e+00 2.902583e+01
    endloop
  endfacet
  facet normal 0.000000e+00 0.000000e+00 1.000000e+00
    outer loop
      vertex -5.390279e+00 1.715769e+00 2.902583e+01
      vertex -5.596976e+00 7.249998e+00 2.902583e+01
      vertex -7.473414e+00 7.002962e+00 2.902583e+01
    endloop
  endfacet
  facet normal 0.000000e+00 0.000000e+00 1.000000e+00
    outer loop
      vertex -5.390279e+00 1.715769e+00 2.902583e+01
      vertex -7.473414e+00 7.002962e+00 2.902583e+01
      vertex -9.221971e+00 6.278687e+00 2.902583e+01
    endloop
  endfacet
  facet normal 0.000000e+00 0.000000e+00 1.000000e+00
    outer loop
      vertex -5.390279e+00 1.715769e+00 2.902583e+01
      vertex -9.221971e+00 6.278687e+00 2.902583e+01
      vertex -6.602834e+00 1.501963e+00 2.902583e+01
    endloop
  endfacet
  facet normal 0.000000e+00 0.000000e+00 1.000000e+00
    outer loop
      vertex -7.394292e+00 5.587411e-01 2.902583e+01
      vertex -6.602834e+00 1.501963e+00 2.902583e+01
      vertex -9.221971e+00 6.278687e+00 2.902583e+01
    endloop
  endfacet
  facet normal 0.000000e+00 0.000000e+00 1.000000e+00
    outer loop
      vertex -7.394292e+00 5.587411e-01 2.902583e+01
      vertex -9.221971e+00 6.278687e+00 2.902583e+01
      vertex -9.221971e+00 -6.278684e+00 2.902583e+01
    endloop
  endfacet
  facet normal 0.000000e+00 0.000000e+00 1.000000e+00
    outer loop
      vertex -7.394292e+00 5.587411e-01 2.902583e+01
      vertex -9.221971e+00 -6.278684e+00 2.902583e+01
      vertex -7.394292e+00 -6.725216e-01 2.902583e+01
    endloop
  endfacet
  facet normal 0.000000e+00 0.000000e+00 1.000000e+00
    outer loop
      vertex -7.394292e+00 -6.725216e-01 2.902583e+01
      vertex -9.221971e+00 -6.278684e+00 2.902583e+01
      vertex -6.602834e+00 -1.615727e+00 2.902583e+01
    endloop
  endfacet
  facet normal 0.000000e+00 0.000000e+00 1.000000e+00
    outer loop
      vertex -6.602834e+00 -1.615727e+00 2.902583e+01
      vertex -9.221971e+00 -6.278684e+00 2.902583e+01
      vertex -7.473414e+00 -7.002961e+00 2.902583e+01
    endloop
  endfacet
  facet normal 0.000000e+00 0.000000e+00 1.000000e+00
    outer loop
      vertex -5.390279e+00 -1.829535e+00 2.902583e+01
      vertex -6.602834e+00 -1.615727e+00 2.902583e+01
      vertex -7.473414e+00 -7.002961e+00 2.902583e+01
    endloop
  endfacet
  facet normal 0.000000e+00 0.000000e+00 1.000000e+00
    outer loop
      vertex -5.390279e+00 -1.829535e+00 2.902583e+01
      vertex -7.473414e+00 -7.002961e+00 2.902583e+01
      vertex -5.596976e+00 -7.249998e+00 2.902583e+01
    endloop
  endfacet
  facet normal 0.000000e+00 0.000000e+00 1.000000e+00
    outer loop
      vertex -4.323949e+00 -1.213902e+00 2.902583e+01
      vertex -5.390279e+00 -1.829535e+00 2.902583e+01
      vertex -5.596976e+00 -7.249998e+00 2.902583e+01
    endloop
  endfacet
  facet normal 0.000000e+00 0.000000e+00 1.000000e+00
    outer loop
      vertex -4.323949e+00 -1.213902e+00 2.902583e+01
      vertex -5.596976e+00 -7.249998e+00 2.902583e+01
      vertex -1.807206e+00 -7.249998e+00 2.902583e+01
    endloop
  endfacet
  facet normal 0.000000e+00 0.000000e+00 1.000000e+00
    outer loop
      vertex -3.902837e+00 -5.689046e-02 2.902583e+01
      vertex -4.323949e+00 -1.213902e+00 2.902583e+01
      vertex -1.807206e+00 -7.249998e+00 2.902583e+01
    endloop
  endfacet
  facet normal 0.000000e+00 1.398578e-08 -1.000000e+00
    outer loop
      vertex 7.311971e+00 -2.988194e+00 5.960464e-08
      vertex 5.596972e+00 -7.249998e+00 0.000000e+00
      vertex 3.927190e+00 -2.988194e+00 5.960464e-08
    endloop
  endfacet
  facet normal -1.944262e-09 1.476817e-08 -1.000000e+00
    outer loop
      vertex 7.311971e+00 -2.988194e+00 5.960464e-08
      vertex 7.473416e+00 -7.002960e+00 0.000000e+00
      vertex 5.596972e+00 -7.249998e+00 0.000000e+00
    endloop
  endfacet
  facet normal -6.048821e-09 1.460312e-08 -1.000000e+00
    outer loop
      vertex 7.311971e+00 -2.988194e+00 5.960464e-08
      vertex 9.221971e+00 -6.278684e+00 0.000000e+00
      vertex 7.473416e+00 -7.002960e+00 0.000000e+00
    endloop
  endfacet
  facet normal -3.276944e-08 -9.071537e-10 -1.000000e+00
    outer loop
      vertex 7.311971e+00 -2.988194e+00 5.960464e-08
      vertex 9.049733e+00 -5.689046e-02 0.000000e+00
      vertex 9.221971e+00 -6.278684e+00 0.000000e+00
    endloop
  endfacet
  facet normal 0.000000e+00 0.000000e+00 -1.000000e+00
    outer loop
      vertex 9.049733e+00 -5.689046e-02 0.000000e+00
      vertex 9.221971e+00 6.278687e+00 0.000000e+00
      vertex 9.221971e+00 -6.278684e+00 0.000000e+00
    endloop
  endfacet
  facet normal -3.279571e-08 8.915759e-10 -1.000000e+00
    outer loop
      vertex 9.049733e+00 -5.689046e-02 0.000000e+00
      vertex 7.311971e+00 2.874430e+00 5.960464e-08
      vertex 9.221971e+00 6.278687e+00 0.000000e+00
    endloop
  endfacet
  facet normal -5.884789e-09 -1.420712e-08 -1.000000e+00
    outer loop
      vertex 7.311971e+00 2.874430e+00 5.960464e-08
      vertex 7.473416e+00 7.002962e+00 0.000000e+00
      vertex 9.221971e+00 6.278687e+00 0.000000e+00
    endloop
  endfacet
  facet normal -0.000000e+00 -1.443725e-08 -1.000000e+00
    outer loop
      vertex 7.311971e+00 2.874430e+00 5.960464e-08
      vertex 3.927190e+00 2.874430e+00 5.960464e-08
      vertex 7.473416e+00 7.002962e+00 0.000000e+00
    endloop
  endfacet
  facet normal -1.707582e-09 -1.297051e-08 -1.000000e+00
    outer loop
      vertex 3.927190e+00 2.874430e+00 5.960464e-08
      vertex 5.596972e+00 7.249998e+00 0.000000e+00
      vertex 7.473416e+00 7.002962e+00 0.000000e+00
    endloop
  endfacet
  facet normal 0.000000e+00 -2.033383e-08 -1.000000e+00
    outer loop
      vertex 2.189412e+00 -5.689046e-02 0.000000e+00
      vertex 3.927190e+00 -2.988194e+00 5.960464e-08
      vertex -4.010442e+00 -2.988194e+00 5.960464e-08
    endloop
  endfacet
  facet normal 0.000000e+00 -2.033383e-08 -1.000000e+00
    outer loop
      vertex -4.010442e+00 -2.988194e+00 5.960464e-08
      vertex -2.272678e+00 -5.689046e-02 0.000000e+00
      vertex 2.189412e+00 -5.689046e-02 0.000000e+00
    endloop
  endfacet
  facet normal 0.000000e+00 2.033372e-08 -1.000000e+00
    outer loop
      vertex 3.927190e+00 2.874430e+00 5.960464e-08
      vertex 2.189412e+00 -5.689046e-02 0.000000e+00
      vertex -2.272678e+00 -5.689046e-02 0.000000e+00
    endloop
  endfacet
  facet normal 0.000000e+00 2.033372e-08 -1.000000e+00
    outer loop
      vertex -2.272678e+00 -5.689046e-02 0.000000e+00
      vertex -4.010442e+00 2.874430e+00 5.960464e-08
      vertex 3.927190e+00 2.874430e+00 5.960464e-08
    endloop
  endfacet
  facet normal 0.000000e+00 1.398578e-08 -1.000000e+00
    outer loop
      vertex 3.927190e+00 -2.988194e+00 5.960464e-08
      vertex 5.596972e+00 -7.249998e+00 0.000000e+00
      vertex -5.596976e+00 -7.249998e+00 0.000000e+00
    endloop
  endfacet
  facet normal 0.000000e+00 1.398578e-08 -1.000000e+00
    outer loop
      vertex -5.596976e+00 -7.249998e+00 0.000000e+00
      vertex -4.010442e+00 -2.988194e+00 5.960464e-08
      vertex 3.927190e+00 -2.988194e+00 5.960464e-08
    endloop
  endfacet
  facet normal 0.000000e+00 1.398578e-08 -1.000000e+00
    outer loop
      vertex -7.395223e+00 -2.988194e+00 5.960464e-08
      vertex -4.010442e+00 -2.988194e+00 5.960464e-08
      vertex -5.596976e+00 -7.249998e+00 0.000000e+00
    endloop
  endfacet
  facet normal 1.949551e-09 1.480838e-08 -1.000000e+00
    outer loop
      vertex -5.596976e+00 -7.249998e+00 0.000000e+00
      vertex -7.473414e+00 -7.002961e+00 0.000000e+00
      vertex -7.395223e+00 -2.988194e+00 5.960464e-08
    endloop
  endfacet
  facet normal 6.100365e-09 1.472754e-08 -1.000000e+00
    outer loop
      vertex -7.395223e+00 -2.988194e+00 5.960464e-08
      vertex -7.473414e+00 -7.002961e+00 0.000000e+00
      vertex -9.221971e+00 -6.278684e+00 0.000000e+00
    endloop
  endfacet
  facet normal 3.349150e-08 -4.789206e-10 -1.000000e+00
    outer loop
      vertex -9.133000e+00 -5.689046e-02 0.000000e+00
      vertex -7.395223e+00 -2.988194e+00 5.960464e-08
      vertex -9.221971e+00 -6.278684e+00 0.000000e+00
    endloop
  endfacet
  facet normal 0.000000e+00 0.000000e+00 -1.000000e+00
    outer loop
      vertex -9.133000e+00 -5.689046e-02 0.000000e+00
      vertex -9.221971e+00 -6.278684e+00 0.000000e+00
      vertex -9.221971e+00 6.278687e+00 0.000000e+00
    endloop
  endfacet
  facet normal 3.350567e-08 4.705184e-10 -1.000000e+00
    outer loop
      vertex -9.133000e+00 -5.689046e-02 0.000000e+00
      vertex -9.221971e+00 6.278687e+00 0.000000e+00
      vertex -7.395223e+00 2.874430e+00 5.960464e-08
    endloop
  endfacet
  facet normal 5.933555e-09 -1.432487e-08 -1.000000e+00
    outer loop
      vertex -7.395223e+00 2.874430e+00 5.960464e-08
      vertex -9.221971e+00 6.278687e+00 0.000000e+00
      vertex -7.473414e+00 7.002962e+00 0.000000e+00
    endloop
  endfacet
  facet normal 1.895958e-09 -1.440134e-08 -1.000000e+00
    outer loop
      vertex -7.395223e+00 2.874430e+00 5.960464e-08
      vertex -7.473414e+00 7.002962e+00 0.000000e+00
      vertex -5.596976e+00 7.249998e+00 0.000000e+00
    endloop
  endfacet
  facet normal 0.000000e+00 -1.362215e-08 -1.000000e+00
    outer loop
      vertex -5.596976e+00 7.249998e+00 0.000000e+00
      vertex -4.010442e+00 2.874430e+00 5.960464e-08
      vertex -7.395223e+00 2.874430e+00 5.960464e-08
    endloop
  endfacet
  facet normal 0.000000e+00 -1.362215e-08 -1.000000e+00
    outer loop
      vertex 5.596972e+00 7.249998e+00 0.000000e+00
      vertex 3.927190e+00 2.874430e+00 5.960464e-08
      vertex -4.010442e+00 2.874430e+00 5.960464e-08
    endloop
  endfacet
  facet normal 0.000000e+00 -1.362215e-08 -1.000000e+00
    outer loop
      vertex -4.010442e+00 2.874430e+00 5.960464e-08
      vertex -5.596976e+00 7.249998e+00 0.000000e+00
      vertex 5.596972e+00 7.249998e+00 0.000000e+00
    endloop
  endfacet
  facet normal 0.000000e+00 0.000000e+00 1.000000e+00
    outer loop
      vertex -3.902837e+00 -5.689046e-02 2.902583e+01
      vertex -1.807206e+00 -7.249998e+00 2.902583e+01
      vertex -1.807206e+00 7.249998e+00 2.902583e+01
    endloop
  endfacet
  facet normal 1.000000e+00 0.000000e+00 0.000000e+00
    outer loop
      vertex -1.807206e+00 -7.249998e+00 2.902583e+01
      vertex -1.807206e+00 7.249998e+00 4.057787e+00
      vertex -1.807206e+00 7.249998e+00 2.902583e+01
    endloop
  endfacet
endsolid Default
